<svg xmlns="http://www.w3.org/2000/svg" xmlns:xlink="http://www.w3.org/1999/xlink" version="1.1" x="0px" y="0px" viewBox="0 0 29 37.5" xml:space="preserve"><g transform="translate(-30 -80)"><g xmlns="http://www.w3.org/2000/svg" xmlns:xlink="http://www.w3.org/1999/xlink"><path d="M44.276,106.947C44.348,106.982,44.424,107,44.5,107s0.152-0.018,0.224-0.053c1.566-0.783,4.255-1.197,7.776-1.197    c2.688,0,4.922,0.245,4.945,0.247c0.141,0.017,0.281-0.029,0.389-0.125c0.105-0.095,0.166-0.23,0.166-0.373v-17    c0-0.234-0.162-0.438-0.392-0.488c-0.063-0.014-0.67-0.147-1.608-0.307V85c0-0.276-0.224-0.5-0.5-0.5    c-0.285,0-6.918,0.027-11,1.952c-4.082-1.924-10.715-1.952-11-1.952c-0.276,0-0.5,0.224-0.5,0.5v2.705    c-0.938,0.16-1.545,0.293-1.608,0.307C31.162,88.063,31,88.266,31,88.5v17c0,0.142,0.061,0.278,0.166,0.373    c0.107,0.095,0.25,0.141,0.389,0.125c0.023-0.002,2.258-0.247,4.945-0.247C40.021,105.75,42.71,106.164,44.276,106.947z     M32,88.907c0.236-0.047,0.588-0.113,1-0.185V102c0,0.276,0.224,0.5,0.5,0.5c0.067,0,6.611,0.028,10.5,1.823v1.415    c-1.738-0.656-4.255-0.988-7.5-0.988c-1.943,0-3.656,0.125-4.5,0.2V88.907z M44,87.321V88.5v0.319V98h1v-9.181V88.5v-1.179    c3.262-1.505,8.389-1.768,10-1.812v15.998c-1.662,0.039-7.012,0.298-10.5,1.943c-3.488-1.645-8.838-1.904-10.5-1.943V85.509    C35.611,85.554,40.738,85.816,44,87.321z M57,104.95c-0.844-0.074-2.557-0.2-4.5-0.2c-3.245,0-5.762,0.332-7.5,0.988v-1.415    c3.889-1.795,10.433-1.823,10.5-1.823c0.276,0,0.5-0.224,0.5-0.5V88.723c0.412,0.072,0.764,0.138,1,0.185V104.95z"/><rect x="44" y="99" width="1" height="1"/><rect x="44" y="101" width="1" height="1"/></g></g><text x="0" y="45" fill="#000000" font-size="5px" font-weight="bold" font-family="'Helvetica Neue', Helvetica, Arial-Unicode, Arial, Sans-serif">Created by Hea Poh Lin</text><text x="0" y="50" fill="#000000" font-size="5px" font-weight="bold" font-family="'Helvetica Neue', Helvetica, Arial-Unicode, Arial, Sans-serif">from the Noun Project</text></svg>