<svg xmlns="http://www.w3.org/2000/svg" xmlns:xlink="http://www.w3.org/1999/xlink" version="1.1" x="0px" y="0px" viewBox="0 0 100 125" enable-background="new 0 0 100 100" xml:space="preserve"><path d="M39.744,86.792C39.744,86.792,39.744,86.792,39.744,86.792c-2.296,0-4.443-0.883-6.046-2.485L15.701,66.313  c-3.333-3.337-3.331-8.762,0.005-12.095l38.535-38.535c1.519-1.524,3.56-2.404,5.746-2.475l18.288,0.01  c4.694,0,8.518,3.821,8.522,8.519v18.251c-0.074,2.226-0.952,4.265-2.474,5.783L45.791,84.304  C44.19,85.908,42.042,86.792,39.744,86.792z M60.026,15.707c-1.506,0.05-2.946,0.668-4.016,1.741L17.474,55.986  c-2.321,2.318-2.323,6.238-0.004,8.559l17.996,17.994c1.131,1.13,2.65,1.753,4.278,1.753c1.629,0,3.148-0.623,4.278-1.755  l38.535-38.535c1.071-1.069,1.689-2.51,1.741-4.057l-0.001-18.208c-0.003-3.318-2.705-6.02-6.023-6.02L60.026,15.707z   M69.395,38.524c-4.363-0.001-7.913-3.551-7.914-7.913c0.001-4.363,3.551-7.913,7.913-7.913h0.001c4.362,0,7.912,3.55,7.913,7.913  C77.307,34.975,73.757,38.524,69.395,38.524z M69.395,25.198c-2.984,0-5.413,2.429-5.414,5.413c0.001,2.983,2.43,5.412,5.414,5.413  c2.984,0,5.412-2.428,5.413-5.413C74.807,27.627,72.379,25.198,69.395,25.198L69.395,25.198z"/><text x="0" y="115" fill="#000000" font-size="5px" font-weight="bold" font-family="'Helvetica Neue', Helvetica, Arial-Unicode, Arial, Sans-serif">Created by Kidiladon</text><text x="0" y="120" fill="#000000" font-size="5px" font-weight="bold" font-family="'Helvetica Neue', Helvetica, Arial-Unicode, Arial, Sans-serif">from the Noun Project</text></svg>