<svg xmlns="http://www.w3.org/2000/svg" xmlns:xlink="http://www.w3.org/1999/xlink" version="1.1" x="0px" y="0px" viewBox="0 0 100 125" enable-background="new 0 0 100 100" xml:space="preserve"><path d="M51.322,82.691l-0.037,6.812c0,0.714-0.408,1.609-1.123,1.609s-1.12-0.896-1.12-1.609l-0.041-6.812H3.443v16.619h93.438  V82.691H51.322z"/><path d="M82.215,64.308c-0.087-0.025-8.904-2.622-16.144-7.202c-6.38-4.036-8.846-7.687-9.354-8.524v-4.633  c3.772,0.924,9.353,1.12,13.408,1.12c1.938,0,3.261-0.047,3.273-0.048l0.654-0.024l-0.494-0.43  c-0.056-0.048-5.367-4.639-10.689-6.987h8.52c1.034,0,1.874-0.841,1.874-1.875s-0.84-1.875-1.874-1.875H56.717v-3.82  c0-0.573-0.367-1.073-0.914-1.244c-0.536-0.167-1.141,0.04-1.461,0.498l-2.754,3.95l0.11-18.887  c3.034-0.706,5.214-3.437,5.214-6.574c0-3.722-3.027-6.75-6.75-6.75c-3.722,0-6.75,3.028-6.75,6.75c0,3.138,2.181,5.869,5.216,6.574  l0.12,19.502h-3.026v-1.819c0-0.779-0.634-1.413-1.413-1.413c-0.055,0-0.11,0.004-0.167,0.012l-0.148,0.003  c-6.527,0.171-12.541,4.25-12.541,9.285c0,1.831,0.678,3.578,1.967,5.089c-0.004,0-0.01,0-0.015,0c-1.296,0-2.507,0.609-3.282,1.639  l-0.044-0.021c-2.401-1.149-3.755-2.657-3.768-2.671c-0.269-0.306-0.656-0.481-1.063-0.481c-0.341,0-0.67,0.124-0.928,0.348  c-0.587,0.512-0.649,1.406-0.137,1.994c0.069,0.079,1.715,1.943,4.676,3.36c0.159,0.076,0.306,0.142,0.452,0.208  c0.048,0.739,0.291,1.44,0.709,2.05c-0.08,0.092-0.146,0.194-0.199,0.304c-0.009,0.019-0.958,1.977-2.551,4.043l-3.787,3.76  c-2.468,1.954-5.262,3.663-5.291,3.681c-0.322,0.195-0.549,0.506-0.639,0.872c-0.089,0.367-0.031,0.746,0.165,1.069  c0.259,0.425,0.711,0.678,1.208,0.678c0.258,0,0.512-0.07,0.733-0.205c0.522-0.318,5.184-3.191,7.971-5.979  c2.35-2.35,3.949-5.177,4.515-6.256v11.72c0,0.779,0.633,1.413,1.413,1.413c0.779,0,1.413-0.634,1.413-1.413V52.885  c1.526-0.631,2.728-2.132,2.728-3.792c0-0.418-0.062-0.827-0.186-1.219c0.22,0.101,0.443,0.196,0.669,0.286v16.938  c0,0.779,0.634,1.413,1.413,1.413c0.78,0,1.413-0.634,1.413-1.413l-0.012-25.673h1.906l-0.007,25.673  c0,0.779,0.634,1.413,1.413,1.413c0.779,0,1.413-0.634,1.413-1.413v-18.42l3.086-3.007l0.241,39.021l0.012,0.257h2.239l0.234-40.633  c0.876,0.326,1.739,0.623,2.571,0.887v5.721c0,0.199,0.047,0.398,0.135,0.576c0.094,0.19,2.384,4.716,10.436,9.81  c7.595,4.806,16.44,7.396,16.814,7.504c0.119,0.034,0.24,0.052,0.362,0.052c0.576,0,1.092-0.388,1.252-0.943  C83.307,65.232,82.906,64.507,82.215,64.308z"/><text x="0" y="115" fill="#000000" font-size="5px" font-weight="bold" font-family="'Helvetica Neue', Helvetica, Arial-Unicode, Arial, Sans-serif">Created by Luis Prado</text><text x="0" y="120" fill="#000000" font-size="5px" font-weight="bold" font-family="'Helvetica Neue', Helvetica, Arial-Unicode, Arial, Sans-serif">from the Noun Project</text></svg>