<svg xmlns="http://www.w3.org/2000/svg" xmlns:xlink="http://www.w3.org/1999/xlink" version="1.1" x="0px" y="0px" viewBox="0 0 64 80" style="enable-background:new 0 0 64 64;" xml:space="preserve"><rect x="5" y="55" width="2" height="2"/><rect x="7" y="57" width="2" height="2"/><path d="M49.881,34.079c-1.196-1.284-3.207-1.425-4.553-0.207C45.12,34.062,45,34.331,45,34.613s0.119,0.552,0.328,0.741  C45.749,35.735,46,36.351,46,37s-0.251,1.264-0.671,1.645C45.119,38.835,45,39.104,45,39.386s0.119,0.551,0.328,0.741  c1.345,1.22,3.355,1.079,4.553-0.206C50.973,40.608,52.434,41,54,41c3.364,0,6-1.757,6-4s-2.636-4-6-4  C52.434,33,50.973,33.392,49.881,34.079z M58,37c0,0.944-1.71,2-4,2c-1.812,0-3.051-0.628-3.607-1.217  c-0.19-0.201-0.454-0.313-0.727-0.313c-0.052,0-0.105,0.004-0.157,0.013c-0.327,0.052-0.606,0.262-0.747,0.561  c-0.273,0.579-0.744,0.942-1.233,0.956C47.834,38.4,48,37.714,48,37s-0.166-1.4-0.471-2c0.49,0.014,0.96,0.377,1.233,0.956  c0.141,0.299,0.42,0.509,0.747,0.561c0.325,0.056,0.657-0.061,0.884-0.3C50.949,35.628,52.188,35,54,35C56.29,35,58,36.056,58,37z"/><path d="M52,26c-4.623,0-8.582,2.871-10.207,6.92c-0.825-0.329-1.663-0.633-2.514-0.88c-1.59-0.463-3.238-0.774-4.916-0.952  c2.016-1.884,3.901-3.925,5.615-6.089C39.985,24.999,39.993,25,40,25c6.617,0,12-5.383,12-12S46.617,1,40,1S28,6.383,28,13  c0,5.794,4.128,10.642,9.598,11.758c-1.625,1.953-3.385,3.801-5.262,5.495c-0.355,0.315-0.7,0.621-1.036,0.908  c-2.682,2.295-5.007,3.799-7.256,5.254c-1.638,1.06-3.208,2.08-4.822,3.336c-0.071-0.358-0.156-0.714-0.273-1.067  c-0.184-0.551-0.437-1.095-0.737-1.614C21.1,35.085,23,31.761,23,28c0-6.065-4.935-11-11-11S1,21.935,1,28s4.935,11,11,11  c1.587,0,3.092-0.344,4.456-0.952c0.239,0.41,0.451,0.832,0.595,1.265c0.215,0.65,0.306,1.316,0.32,1.984  c-0.7,0.627-1.389,1.282-2.092,2.011c-1.478,1.541-2.786,3.141-4,4.891c-0.741,1.067-1.399,2.142-2.025,3.244  C8.557,51.16,7.797,51,7,51c-3.309,0-6,2.691-6,6s2.691,6,6,6s6-2.691,6-6c0-1.794-0.795-3.402-2.047-4.502  c0.521-0.922,1.076-1.824,1.68-2.717c1.074,0.005,2.158,0.065,3.229,0.209c1.111,0.155,2.184,0.399,3.225,0.69  C19.035,51.114,19,51.553,19,52c0,6.065,4.935,11,11,11s11-4.935,11-11s-4.935-11-11-11c-4.924,0-9.102,3.253-10.501,7.722  c-1.089-0.298-2.207-0.552-3.366-0.713c-0.693-0.093-1.391-0.158-2.088-0.198c0.833-1.083,1.715-2.116,2.674-3.117  c0.782-0.811,1.543-1.537,2.325-2.218c2.046-1.77,4.008-3.039,6.085-4.383c2.217-1.434,4.51-2.923,7.159-5.154  c2.208,0.084,4.371,0.42,6.432,1.021c0.846,0.245,1.677,0.55,2.494,0.882C41.076,35.541,41,36.262,41,37c0,6.065,4.935,11,11,11  s11-4.935,11-11S58.065,26,52,26z M30,13c0-5.514,4.486-10,10-10s10,4.486,10,10s-4.486,10-10,10S30,18.514,30,13z M11,57  c0,2.206-1.794,4-4,4s-4-1.794-4-4s1.794-4,4-4S11,54.794,11,57z M30,43c4.962,0,9,4.038,9,9s-4.038,9-9,9s-9-4.038-9-9  S25.038,43,30,43z M12,37c-4.962,0-9-4.038-9-9s4.038-9,9-9s9,4.038,9,9S16.962,37,12,37z M52,46c-4.962,0-9-4.038-9-9s4.038-9,9-9  s9,4.038,9,9S56.962,46,52,46z"/><path d="M17.646,29.139c0.886-0.886,1.508-1.952,1.75-3c0.277-1.199,0.026-2.296-0.688-3.01c-0.715-0.715-1.814-0.966-3.011-0.689  c-1.048,0.242-2.114,0.864-3,1.75c-0.155,0.155-0.303,0.318-0.444,0.487c-0.141-0.171-0.289-0.334-0.442-0.487  c-0.886-0.887-1.952-1.508-3-1.75c-1.199-0.275-2.296-0.025-3.01,0.689c-0.714,0.714-0.965,1.812-0.689,3.01  c0.242,1.048,0.864,2.113,1.75,2.999c0.236,0.236,0.488,0.455,0.754,0.653C6.76,31.1,6.793,32.743,7.789,33.739  c1.17,1.169,3.231,1.01,4.596-0.354c0.003-0.003,0.007-0.007,0.011-0.011c0.003,0.004,0.007,0.007,0.011,0.011  c0.751,0.751,1.713,1.137,2.622,1.137c0.742,0,1.449-0.257,1.975-0.783c1.032-1.033,1.029-2.762,0.075-4.091  C17.277,29.489,17.466,29.319,17.646,29.139z M16.232,27.725c-0.352,0.352-0.753,0.648-1.194,0.881  c-0.309,0.163-0.511,0.476-0.531,0.825c-0.021,0.35,0.143,0.684,0.431,0.882c0.103,0.071,0.204,0.149,0.298,0.243  c0.565,0.565,0.73,1.392,0.354,1.768c-0.378,0.376-1.204,0.211-1.768-0.353c-0.141-0.141-0.263-0.308-0.361-0.495  c-0.175-0.333-0.519-0.534-0.884-0.534c-0.063,0-0.127,0.006-0.19,0.018c-0.07,0.014-0.143,0.016-0.255,0.022  c-0.342,0.022-0.648,0.218-0.813,0.519c-0.102,0.186-0.214,0.339-0.345,0.47c-0.565,0.565-1.39,0.73-1.768,0.354  c-0.376-0.376-0.211-1.203,0.351-1.766c0.029-0.029,0.061-0.052,0.158-0.13c0.278-0.229,0.387-0.731,0.325-1.085  c-0.054-0.309-0.249-0.575-0.528-0.718c-0.457-0.235-0.871-0.538-1.234-0.9c-0.616-0.616-1.059-1.357-1.215-2.036  c-0.118-0.512-0.062-0.93,0.154-1.146c0.217-0.217,0.635-0.274,1.146-0.154c0.678,0.156,1.42,0.599,2.036,1.215  c0.269,0.269,0.515,0.581,0.729,0.926c0.193,0.31,0.515,0.506,0.909,0.471c0.103,0.003,0.202,0.02,0.3,0.036  c0.404,0.066,0.808-0.119,1.02-0.468c0.214-0.353,0.468-0.678,0.756-0.965c0.616-0.616,1.357-1.059,2.036-1.215  c0.511-0.12,0.93-0.063,1.146,0.154c0,0,0,0,0,0c0.216,0.216,0.272,0.634,0.154,1.146C17.291,26.367,16.848,27.109,16.232,27.725z"/><path d="M28.811,58.898C29.063,58.967,29.32,59,29.576,59c1.119,0,2.2-0.627,2.611-1.603c0.306-0.724,0.208-1.443,0.131-2.021  c-0.03-0.223-0.063-0.447-0.062-0.668c0.004-0.536,0.257-1.116,0.525-1.729c0.178-0.408,0.362-0.829,0.498-1.285  c0.32-1.071,0.327-2.216,0.021-3.312v0c-0.147-0.528-0.365-1.03-0.646-1.493c-0.512-0.843-1.184-1.434-1.943-1.709  c-0.935-0.34-1.884-0.189-2.601,0.414c-0.812,0.682-1.228,1.883-1.033,2.989c0.051,0.294,0.13,0.585,0.21,0.875  c0.095,0.345,0.185,0.671,0.2,0.962c0.031,0.597-0.239,1.25-0.525,1.94c-0.141,0.34-0.281,0.68-0.395,1.024  c-0.37,1.113-0.422,2.144-0.155,3.063C26.762,57.65,27.681,58.59,28.811,58.898z M28.465,54.014c0.099-0.299,0.222-0.595,0.345-0.89  c0.341-0.825,0.729-1.761,0.674-2.809c-0.026-0.509-0.155-0.977-0.27-1.39c-0.063-0.228-0.127-0.456-0.168-0.688  c-0.071-0.407,0.079-0.885,0.349-1.112C29.471,47.062,29.572,47,29.73,47c0.083,0,0.181,0.017,0.299,0.06  c0.413,0.15,0.726,0.554,0.916,0.867c0.186,0.307,0.331,0.641,0.429,0.994c0.204,0.732,0.201,1.493-0.011,2.202  c-0.102,0.339-0.253,0.687-0.415,1.056c-0.321,0.735-0.686,1.568-0.693,2.515c-0.002,0.338,0.042,0.664,0.08,0.95  c0.055,0.405,0.102,0.755,0.008,0.977c-0.117,0.277-0.627,0.453-1.007,0.35c-0.449-0.123-0.853-0.557-1.004-1.08  C28.181,55.366,28.226,54.735,28.465,54.014z"/><path d="M43,21v-4.586l0.707-0.707C43.895,15.52,44,15.265,44,15v-4c0-1.065-0.562-1.997-1.401-2.529C42.847,8.034,43,7.537,43,7  c0-1.654-1.346-3-3-3s-3,1.346-3,3c0,0.537,0.153,1.034,0.401,1.471C36.562,9.003,36,9.935,36,11v4c0,0.265,0.105,0.52,0.293,0.707  L37,16.414V21c0,0.552,0.448,1,1,1h4C42.552,22,43,21.552,43,21z M40,6c0.551,0,1,0.449,1,1s-0.449,1-1,1s-1-0.449-1-1  S39.449,6,40,6z M41,16v4h-2v-4c0-0.265-0.105-0.52-0.293-0.707L38,14.586V11c0-0.551,0.449-1,1-1h2c0.551,0,1,0.449,1,1v3.586  l-0.707,0.707C41.105,15.48,41,15.735,41,16z"/><text x="0" y="79" fill="#000000" font-size="5px" font-weight="bold" font-family="'Helvetica Neue', Helvetica, Arial-Unicode, Arial, Sans-serif">Created by Nithinan Tatah</text><text x="0" y="84" fill="#000000" font-size="5px" font-weight="bold" font-family="'Helvetica Neue', Helvetica, Arial-Unicode, Arial, Sans-serif">from the Noun Project</text></svg>