<svg xmlns="http://www.w3.org/2000/svg" xmlns:xlink="http://www.w3.org/1999/xlink" version="1.1" x="0px" y="0px" viewBox="0 0 48 60" style="enable-background:new 0 0 48 48;" xml:space="preserve"><style type="text/css">
	.st0{display:none;}
	.st1{display:inline;}
</style><g><g><path d="M24,25c5.5,0,10-4.5,10-10S29.5,5,24,5S14,9.5,14,15S18.5,25,24,25z M24,7c4.4,0,8,3.6,8,8s-3.6,8-8,8s-8-3.6-8-8    S19.6,7,24,7z"/><path d="M32,28H16C9.9,28,5,32.9,5,39c0,0.6,0.4,1,1,1h36c0.6,0,1-0.4,1-1C43,32.9,38.1,28,32,28z M7.1,38c0.5-4.5,4.3-8,8.9-8h16    c4.6,0,8.4,3.5,8.9,8H7.1z"/></g></g><text x="0" y="63" fill="#000000" font-size="5px" font-weight="bold" font-family="'Helvetica Neue', Helvetica, Arial-Unicode, Arial, Sans-serif">Created by yossy made yulian</text><text x="0" y="68" fill="#000000" font-size="5px" font-weight="bold" font-family="'Helvetica Neue', Helvetica, Arial-Unicode, Arial, Sans-serif">from the Noun Project</text></svg>