<?xml version="1.0" encoding="UTF-8" standalone="no"?>
<!DOCTYPE svg PUBLIC "-//W3C//DTD SVG 1.1//EN"
 "http://www.w3.org/Graphics/SVG/1.1/DTD/svg11.dtd">
<!-- Generated by graphviz version 2.40.1 (20161225.0304)
 -->
<!-- Title: g Pages: 1 -->
<svg width="676pt" height="447pt"
 viewBox="0.00 0.00 676.00 447.00" xmlns="http://www.w3.org/2000/svg" xmlns:xlink="http://www.w3.org/1999/xlink">
<g id="graph0" class="graph" transform="scale(1 1) rotate(0) translate(4 443)">
<title>g</title>
<polygon fill="#ffffff" stroke="transparent" points="-4,4 -4,-443 672,-443 672,4 -4,4"/>
<g id="clust1" class="cluster">
<title>cluster1</title>
<polygon fill="#d3d3d3" stroke="#d3d3d3" points="8,-95 8,-431 336,-431 336,-95 8,-95"/>
<text text-anchor="middle" x="172" y="-415.8" font-family="Times,serif" font-size="14.00" fill="#000000">Taxon name</text>
</g>
<g id="clust2" class="cluster">
<title>cluster2</title>
<polygon fill="#d3d3d3" stroke="#d3d3d3" points="408,-8 408,-431 660,-431 660,-8 408,-8"/>
<text text-anchor="middle" x="534" y="-415.8" font-family="Times,serif" font-size="14.00" fill="#000000">ORCID</text>
</g>
<!-- taxon_name -->
<g id="node1" class="node">
<title>taxon_name</title>
<ellipse fill="#ffffff" stroke="#ffffff" cx="245" cy="-382" rx="44.6926" ry="18"/>
<text text-anchor="middle" x="245" y="-378.3" font-family="Times,serif" font-size="14.00" fill="#000000">Taxon name</text>
</g>
<!-- taxon_team -->
<g id="node2" class="node">
<title>taxon_team</title>
<ellipse fill="#ffffff" stroke="#ffffff" cx="234" cy="-295" rx="35.194" ry="18"/>
<text text-anchor="middle" x="234" y="-291.3" font-family="Times,serif" font-size="14.00" fill="#000000">tm:Team</text>
</g>
<!-- taxon_name&#45;&gt;taxon_team -->
<g id="edge1" class="edge">
<title>taxon_name&#45;&gt;taxon_team</title>
<path fill="none" stroke="#000000" d="M242.7208,-363.9735C241.2311,-352.1918 239.2548,-336.5607 237.5602,-323.1581"/>
<polygon fill="#000000" stroke="#000000" points="241.0031,-322.4853 236.2763,-313.0034 234.0584,-323.3634 241.0031,-322.4853"/>
<text text-anchor="middle" x="269.5" y="-334.8" font-family="Times,serif" font-size="14.00" fill="#000000">tn:authorteam</text>
</g>
<!-- ScholarlyArticle1 -->
<g id="node6" class="node">
<title>ScholarlyArticle1</title>
<ellipse fill="#ffffff" stroke="#ffffff" cx="472" cy="-382" rx="55.7903" ry="18"/>
<text text-anchor="middle" x="472" y="-378.3" font-family="Times,serif" font-size="14.00" fill="#000000">ScholarlyArticle</text>
</g>
<!-- taxon_name&#45;&gt;ScholarlyArticle1 -->
<g id="edge14" class="edge">
<title>taxon_name&#45;&gt;ScholarlyArticle1</title>
<path fill="none" stroke="#000000" d="M289.8479,-382C322.9172,-382 368.4411,-382 405.7047,-382"/>
<polygon fill="#000000" stroke="#000000" points="405.9787,-385.5001 415.9787,-382 405.9786,-378.5001 405.9787,-385.5001"/>
<text text-anchor="middle" x="352.9755" y="-388.8" font-family="Times,serif" font-size="14.00" fill="#000000">tcom:publishedInCitation</text>
</g>
<!-- bnode1 -->
<g id="node3" class="node">
<title>bnode1</title>
<ellipse fill="#ffffff" stroke="#ffffff" cx="229" cy="-208" rx="27" ry="18"/>
</g>
<!-- taxon_team&#45;&gt;bnode1 -->
<g id="edge2" class="edge">
<title>taxon_team&#45;&gt;bnode1</title>
<path fill="none" stroke="#000000" d="M232.964,-276.9735C232.2869,-265.1918 231.3885,-249.5607 230.6183,-236.1581"/>
<polygon fill="#000000" stroke="#000000" points="234.1028,-235.786 230.0347,-226.0034 227.1143,-236.1877 234.1028,-235.786"/>
<text text-anchor="middle" x="263" y="-247.8" font-family="Times,serif" font-size="14.00" fill="#000000">tm:hasMember</text>
</g>
<!-- role1 -->
<g id="node4" class="node">
<title>role1</title>
<polygon fill="#ffffff" stroke="#ffffff" points="107.5,-139 16.5,-139 16.5,-103 107.5,-103 107.5,-139"/>
<text text-anchor="middle" x="62" y="-117.3" font-family="Times,serif" font-size="14.00" fill="#000000">Publishing author</text>
</g>
<!-- bnode1&#45;&gt;role1 -->
<g id="edge3" class="edge">
<title>bnode1&#45;&gt;role1</title>
<path fill="none" stroke="#000000" d="M207.5096,-196.8044C181.9032,-183.4645 138.4729,-160.8392 105.7096,-143.7709"/>
<polygon fill="#000000" stroke="#000000" points="107.261,-140.6327 96.7753,-139.1164 104.0269,-146.8408 107.261,-140.6327"/>
<text text-anchor="middle" x="171.5" y="-160.8" font-family="Times,serif" font-size="14.00" fill="#000000">tm:role</text>
</g>
<!-- author1 -->
<g id="node5" class="node">
<title>author1</title>
<ellipse fill="#ffffff" stroke="#ffffff" cx="227" cy="-121" rx="101.2821" ry="18"/>
<text text-anchor="middle" x="227" y="-117.3" font-family="Times,serif" font-size="14.00" fill="#000000">urn:lsid:ipni.org:authors:40176&#45;1</text>
</g>
<!-- bnode1&#45;&gt;author1 -->
<g id="edge4" class="edge">
<title>bnode1&#45;&gt;author1</title>
<path fill="none" stroke="#000000" d="M228.5856,-189.9735C228.3148,-178.1918 227.9554,-162.5607 227.6473,-149.1581"/>
<polygon fill="#000000" stroke="#000000" points="231.1429,-148.9202 227.4139,-139.0034 224.1447,-149.0812 231.1429,-148.9202"/>
<text text-anchor="middle" x="252.5" y="-160.8" font-family="Times,serif" font-size="14.00" fill="#000000">tm:member</text>
</g>
<!-- index1 -->
<g id="node13" class="node">
<title>index1</title>
<polygon fill="none" stroke="#000000" points="400,-139 346,-139 346,-103 400,-103 400,-139"/>
<text text-anchor="middle" x="373" y="-117.3" font-family="Times,serif" font-size="14.00" fill="#000000">1</text>
</g>
<!-- bnode1&#45;&gt;index1 -->
<g id="edge12" class="edge">
<title>bnode1&#45;&gt;index1</title>
<path fill="none" stroke="#000000" d="M249.0226,-195.903C271.7555,-182.1685 309.2909,-159.4909 337.1155,-142.6802"/>
<polygon fill="#000000" stroke="#000000" points="339.0279,-145.614 345.7772,-137.4471 335.4081,-139.6226 339.0279,-145.614"/>
<text text-anchor="middle" x="328" y="-160.8" font-family="Times,serif" font-size="14.00" fill="#000000">tm:index</text>
</g>
<!-- author1name -->
<g id="node12" class="node">
<title>author1name</title>
<polygon fill="none" stroke="#000000" points="362.5,-52 215.5,-52 215.5,-16 362.5,-16 362.5,-52"/>
<text text-anchor="middle" x="289" y="-30.3" font-family="Times,serif" font-size="14.00" fill="#000000">Tatiana Ungaretti Paleo Konno</text>
</g>
<!-- author1&#45;&gt;author1name -->
<g id="edge11" class="edge">
<title>author1&#45;&gt;author1name</title>
<path fill="none" stroke="#000000" d="M239.8464,-102.9735C248.6583,-90.6085 260.4917,-74.0036 270.3396,-60.1847"/>
<polygon fill="#000000" stroke="#000000" points="273.2167,-62.1783 276.17,-52.0034 267.5162,-58.1158 273.2167,-62.1783"/>
<text text-anchor="middle" x="276" y="-73.8" font-family="Times,serif" font-size="14.00" fill="#000000">dc:title</text>
</g>
<!-- orcid_role -->
<g id="node7" class="node">
<title>orcid_role</title>
<ellipse fill="#ffffff" stroke="#ffffff" cx="445" cy="-208" rx="27" ry="18"/>
<text text-anchor="middle" x="445" y="-204.3" font-family="Times,serif" font-size="14.00" fill="#000000">Role</text>
</g>
<!-- ScholarlyArticle1&#45;&gt;orcid_role -->
<g id="edge5" class="edge">
<title>ScholarlyArticle1&#45;&gt;orcid_role</title>
<path fill="none" stroke="#000000" d="M466.4141,-364.0237C462.3397,-350.2051 457.0221,-330.5693 454,-313 449.5892,-287.3577 447.3016,-257.8023 446.1394,-236.5944"/>
<polygon fill="#000000" stroke="#000000" points="449.6214,-236.1436 445.6289,-226.3299 442.63,-236.4914 449.6214,-236.1436"/>
<text text-anchor="middle" x="469" y="-291.3" font-family="Times,serif" font-size="14.00" fill="#000000">creator</text>
</g>
<!-- orcid_identifier -->
<g id="node10" class="node">
<title>orcid_identifier</title>
<ellipse fill="#ffffff" stroke="#ffffff" cx="543" cy="-295" rx="50.0912" ry="18"/>
<text text-anchor="middle" x="543" y="-291.3" font-family="Times,serif" font-size="14.00" fill="#000000">propertyValue</text>
</g>
<!-- ScholarlyArticle1&#45;&gt;orcid_identifier -->
<g id="edge8" class="edge">
<title>ScholarlyArticle1&#45;&gt;orcid_identifier</title>
<path fill="none" stroke="#000000" d="M486.3679,-364.3943C496.7329,-351.6935 510.8767,-334.3624 522.4363,-320.1977"/>
<polygon fill="#000000" stroke="#000000" points="525.2847,-322.2431 528.8958,-312.2827 519.8614,-317.8172 525.2847,-322.2431"/>
<text text-anchor="middle" x="530" y="-334.8" font-family="Times,serif" font-size="14.00" fill="#000000">identifier</text>
</g>
<!-- creator1 -->
<g id="node8" class="node">
<title>creator1</title>
<ellipse fill="#ffffff" stroke="#ffffff" cx="447" cy="-121" rx="29.4969" ry="18"/>
<text text-anchor="middle" x="447" y="-117.3" font-family="Times,serif" font-size="14.00" fill="#000000">Person</text>
</g>
<!-- orcid_role&#45;&gt;creator1 -->
<g id="edge6" class="edge">
<title>orcid_role&#45;&gt;creator1</title>
<path fill="none" stroke="#000000" d="M445.4144,-189.9735C445.6852,-178.1918 446.0446,-162.5607 446.3527,-149.1581"/>
<polygon fill="#000000" stroke="#000000" points="449.8553,-149.0812 446.5861,-139.0034 442.8571,-148.9202 449.8553,-149.0812"/>
<text text-anchor="middle" x="461" y="-160.8" font-family="Times,serif" font-size="14.00" fill="#000000">creator</text>
</g>
<!-- orcid_role&#45;&gt;index1 -->
<g id="edge13" class="edge">
<title>orcid_role&#45;&gt;index1</title>
<path fill="none" stroke="#000000" d="M425.0267,-195.2947C416.2768,-189.0376 406.3509,-180.9228 399,-172 393.1863,-164.9431 388.1932,-156.3716 384.1819,-148.2856"/>
<polygon fill="#000000" stroke="#000000" points="387.3195,-146.7321 379.9335,-139.1362 380.9706,-149.6802 387.3195,-146.7321"/>
<text text-anchor="middle" x="420" y="-160.8" font-family="Times,serif" font-size="14.00" fill="#000000">roleName</text>
</g>
<!-- https://orcid.org/0000&#45;0001&#45;9036&#45;0912 -->
<g id="node9" class="node">
<title>https://orcid.org/0000&#45;0001&#45;9036&#45;0912</title>
<ellipse fill="#ffffff" stroke="#ffffff" cx="534" cy="-34" rx="117.7793" ry="18"/>
<text text-anchor="middle" x="534" y="-30.3" font-family="Times,serif" font-size="14.00" fill="#000000">https://orcid.org/0000&#45;0001&#45;9036&#45;0912</text>
</g>
<!-- creator1&#45;&gt;https://orcid.org/0000&#45;0001&#45;9036&#45;0912 -->
<g id="edge7" class="edge">
<title>creator1&#45;&gt;https://orcid.org/0000&#45;0001&#45;9036&#45;0912</title>
<path fill="none" stroke="#000000" d="M462.5539,-105.4461C475.373,-92.627 493.8073,-74.1927 508.7398,-59.2602"/>
<polygon fill="#000000" stroke="#000000" points="511.5848,-61.365 516.181,-51.819 506.635,-56.4152 511.5848,-61.365"/>
<text text-anchor="middle" x="504" y="-73.8" font-family="Times,serif" font-size="14.00" fill="#000000">@id</text>
</g>
<!-- creator1&#45;&gt;author1name -->
<g id="edge10" class="edge">
<title>creator1&#45;&gt;author1name</title>
<path fill="none" stroke="#000000" d="M427.9842,-107.2779C422.0128,-103.1633 415.3259,-98.7505 409,-95 385.8691,-81.286 359.2891,-67.5769 337.0334,-56.6387"/>
<polygon fill="#000000" stroke="#000000" points="338.3051,-53.3649 327.7826,-52.1286 335.2374,-59.6569 338.3051,-53.3649"/>
<text text-anchor="middle" x="400.5" y="-73.8" font-family="Times,serif" font-size="14.00" fill="#000000">name</text>
</g>
<!-- doi -->
<g id="node11" class="node">
<title>doi</title>
<polygon fill="#ffffff" stroke="#ffffff" points="591,-226 495,-226 495,-190 591,-190 591,-226"/>
<text text-anchor="middle" x="543" y="-204.3" font-family="Times,serif" font-size="14.00" fill="#000000">10.2307/25065588</text>
</g>
<!-- orcid_identifier&#45;&gt;doi -->
<g id="edge9" class="edge">
<title>orcid_identifier&#45;&gt;doi</title>
<path fill="none" stroke="#000000" d="M543,-276.9735C543,-265.1918 543,-249.5607 543,-236.1581"/>
<polygon fill="#000000" stroke="#000000" points="546.5001,-236.0033 543,-226.0034 539.5001,-236.0034 546.5001,-236.0033"/>
<text text-anchor="middle" x="554.5" y="-247.8" font-family="Times,serif" font-size="14.00" fill="#000000">value</text>
</g>
</g>
</svg>
