<?xml version="1.0" standalone="no"?>
<!DOCTYPE svg PUBLIC "-//W3C//DTD SVG 20010904//EN"
 "http://www.w3.org/TR/2001/REC-SVG-20010904/DTD/svg10.dtd">
<svg version="1.0" xmlns="http://www.w3.org/2000/svg"
 width="225.852694pt" height="248.700326pt" viewBox="0 0 225.852694 248.700326"
 preserveAspectRatio="xMidYMid meet">
<metadata>
Created by Potrace Professional 1.1m
</metadata>
<g transform="translate(-71.073804,328.821775) rotate(-360.00) scale(0.079295,-0.079295)"
fill="#000000" stroke="none">
<path d="M896 4129 c1 -15 4 -18 8 -8 4 10 3 20 -1 25 -4 4 -7 -4 -7 -17z"/>
<path d="M2711 3779 c0 -3 10 -13 22 -23 20 -15 21 -15 5 5 -16 21 -27 28 -27
18z"/>
<path d="M1448 3762 c9 -4 20 -3 24 1 4 4 -3 7 -16 7 -15 -1 -18 -4 -8 -8z"/>
<path d="M1874 3263 c4 -13 11 -20 15 -16 4 4 0 14 -8 23 -13 12 -14 11 -7 -7z"/>
<path d="M1993 2616 c0 -17 62 -19 582 -16 452 3 583 8 587 20 4 12 -118 16
-582 16 -522 0 -587 -2 -587 -20z"/>
<path d="M2396 2213 c-118 -54 -145 -128 -145 -397 0 -189 1 -198 36 -268 55
-112 96 -129 311 -129 197 0 237 14 282 101 39 74 38 236 -1 291 -46 64 -88
74 -309 74 l-199 0 0 44 c0 71 24 138 57 160 26 17 65 19 252 15 l222 -5 -4
44 c-4 43 -7 45 -73 61 -38 9 -140 19 -227 23 -127 5 -166 2 -202 -14z m373
-469 c29 -29 20 -164 -13 -187 -53 -40 -268 -38 -329 2 -33 22 -56 86 -56 159
l0 48 188 0 c160 0 192 -4 210 -22z"/>
<path d="M2384 1695 c1 -15 4 -18 8 -7 4 9 3 20 -1 24 -4 4 -7 -4 -7 -17z"/>
<path d="M2276 2156 c-5 -8 -6 -16 -3 -20 4 -3 10 3 14 14 8 22 1 26 -11 6z"/>
<path d="M3727 2059 c-6 -18 -5 -19 7 -7 9 9 13 19 9 23 -4 4 -11 -3 -16 -16z"/>
<path d="M2482 2060 c9 -4 20 -4 24 1 4 4 -3 7 -16 6 -15 0 -18 -3 -8 -7z"/>
<path d="M2419 2047 c9 -4 20 -3 24 1 4 4 -3 7 -16 7 -15 -1 -18 -4 -8 -8z"/>
<path d="M2898 2022 c9 -4 20 -3 24 1 5 4 -3 7 -16 6 -15 0 -18 -3 -8 -7z"/>
<path d="M2327 1425 c-5 -7 -2 -13 5 -13 8 0 14 6 14 13 0 7 -3 13 -6 13 -3 0
-9 -6 -13 -13z"/>
<path d="M2609 1220 l87 -104 68 2 c37 1 71 3 75 3 4 1 -38 47 -95 102 -100
98 -106 101 -163 101 l-60 0 88 -104z"/>
<path d="M2774 1219 c0 -3 10 -13 23 -23 20 -15 20 -15 4 5 -16 21 -27 28 -27
18z"/>
<path d="M896 1115 c1 -15 4 -18 8 -8 4 10 3 20 -1 25 -4 4 -7 -4 -7 -17z"/>
<path d="M2772 1013 c9 -4 20 -3 24 1 4 4 -3 7 -16 7 -15 -1 -18 -4 -8 -8z"/>
</g>
</svg>
