<?xml version="1.0" standalone="no"?>
<!DOCTYPE svg PUBLIC "-//W3C//DTD SVG 20010904//EN"
 "http://www.w3.org/TR/2001/REC-SVG-20010904/DTD/svg10.dtd">
<svg version="1.0" xmlns="http://www.w3.org/2000/svg"
 width="275.962244pt" height="274.868392pt" viewBox="0 0 275.962244 274.868392"
 preserveAspectRatio="xMidYMid meet">
<metadata>
Created by Potrace Professional 1.1m
</metadata>
<g transform="translate(-64.102608,345.004933) rotate(-360.00) scale(0.079295,-0.079295)"
fill="#000000" stroke="none">
<path d="M996 4310 c-50 -30 -80 -60 -110 -109 -82 -138 -80 -100 -76 -1616 3
-1266 5 -1373 26 -1433 35 -103 94 -180 173 -224 l69 -39 1450 -3 c1316 -3
1455 -2 1512 17 116 39 203 147 234 293 20 94 20 2760 0 2855 -19 87 -62 170
-114 220 -89 85 17 80 -1616 80 l-1479 0 -69 -41z m303 -419 l14 -44 66 29
c104 46 179 62 257 56 94 -6 144 -43 190 -136 33 -66 34 -78 34 -265 0 -184
-2 -199 -33 -266 -23 -49 -47 -79 -81 -100 -80 -49 -152 -48 -406 10 l-28 6 0
-222 0 -222 -51 0 -50 0 0 599 0 599 37 0 c30 0 39 -7 51 -44z m1508 11 c71
-52 85 -85 91 -205 l6 -113 -45 -48 -45 -49 -218 -4 c-120 -2 -223 -8 -229
-14 -5 -5 -4 -46 3 -90 10 -63 20 -88 47 -111 33 -29 38 -29 252 -25 l219 4 0
-35 c0 -46 -29 -56 -219 -74 -253 -23 -348 14 -388 150 -27 94 -24 422 5 497
47 121 115 151 333 147 132 -3 158 -7 188 -30z m622 -17 l14 -50 104 50 c92
45 112 50 200 50 86 0 97 -3 103 -26 16 -62 1 -72 -115 -78 -87 -4 -127 -13
-198 -45 l-88 -39 -3 -303 -4 -304 -50 0 -50 0 0 397 0 398 36 0 c31 0 38 -7
51 -50z m-1616 -1677 c24 -1 28 -8 28 -45 l0 -44 -226 0 c-220 0 -227 -1 -246
-28 -25 -36 -26 -147 -1 -183 17 -24 32 -27 206 -31 206 -5 233 -13 281 -90
21 -34 25 -58 21 -156 -6 -201 -48 -225 -348 -205 -243 17 -242 16 -242 62 l0
38 226 0 c258 0 255 -2 264 108 4 50 0 77 -15 100 -21 31 -23 32 -198 32 -270
0 -306 23 -313 203 -4 123 7 168 57 214 40 38 106 45 314 35 90 -5 176 -9 192
-10z m1963 -6 c69 -29 99 -85 106 -198 6 -112 0 -147 -33 -185 -39 -45 -84
-53 -293 -53 l-201 0 0 -73 c0 -85 32 -149 81 -162 17 -4 123 -6 234 -3 l203
4 -4 -37 c-5 -45 -26 -52 -222 -71 -330 -31 -400 37 -400 392 0 256 30 333
145 383 60 26 324 28 384 3z"/>
<path d="M1463 3816 c-31 -9 -78 -26 -104 -37 l-48 -20 3 -242 4 -243 38 -10
c21 -6 89 -17 152 -24 212 -26 250 18 251 285 0 145 -3 170 -28 222 -16 32
-43 64 -61 72 -40 19 -134 17 -207 -3z"/>
<path d="M2451 3816 c-50 -23 -74 -68 -86 -162 l-9 -72 194 0 c245 0 256 5
246 117 -10 113 -29 127 -182 131 -88 3 -135 -1 -163 -14z"/>
<path d="M3433 2100 c-51 -22 -78 -82 -78 -170 l0 -64 186 0 c226 0 242 7 242
101 0 81 -20 122 -66 138 -56 20 -235 16 -284 -5z"/>
</g>
</svg>
