<?xml version="1.0" encoding="UTF-8"?>
<!DOCTYPE svg PUBLIC "-//W3C//DTD SVG 1.1//EN" "http://www.w3.org/Graphics/SVG/1.1/DTD/svg11.dtd">
<svg version="1.1" xmlns="http://www.w3.org/2000/svg" xmlns:xlink="http://www.w3.org/1999/xlink" x="0" y="0" width="400" height="400" viewBox="0, 0, 400, 400">
  <g id="Layer_1">
    <g>
      <path d="M93.237,68.135 L63.523,71.182 L58.19,132.135 C52.095,192.325 58.19,324.896 67.333,333.277 C72.666,339.373 323.332,339.373 328.666,334.039 C330.951,331.754 335.523,307.373 338.57,279.182 L343.904,227.373 L292.094,231.944 C263.142,234.23 228.094,241.849 213.618,248.706 C199.904,256.325 186.952,262.42 185.428,262.42 C183.904,261.658 182.38,244.897 182.38,223.563 C182.38,173.278 162.571,106.992 140.475,84.135 C126.761,69.659 115.333,65.849 93.237,68.135 z" fill="#000000"/>
      <path d="M183.142,97.087 C191.523,116.897 200.666,154.23 203.713,181.659 C205.999,208.325 211.332,229.658 214.38,229.658 C217.428,230.42 233.428,224.325 249.428,218.23 C264.666,211.373 292.094,206.039 310.38,206.039 C337.047,206.039 342.38,203.754 342.38,190.039 C342.38,170.23 311.904,168.706 262.38,186.23 C243.332,192.325 228.094,197.658 227.332,197.658 C226.571,197.658 225.809,177.087 224.285,151.182 C221.999,87.182 212.094,62.04 186.952,62.04 L167.142,62.04 L183.142,97.087 z" fill="#000000"/>
      <path d="M241.047,79.563 C244.094,89.468 246.38,115.373 246.38,135.944 C246.38,170.23 247.904,174.039 260.094,167.182 C267.713,163.373 289.809,157.278 308.094,154.23 L341.618,148.897 L337.047,111.563 C333.999,90.992 331.713,73.468 330.951,72.706 C330.951,72.706 308.856,69.659 282.951,66.611 C236.475,60.516 236.475,60.516 241.047,79.563 z" fill="#000000"/>
    </g>
  </g>
</svg>
