<?xml version="1.0" standalone="no"?>
<!DOCTYPE svg PUBLIC "-//W3C//DTD SVG 20010904//EN"
 "http://www.w3.org/TR/2001/REC-SVG-20010904/DTD/svg10.dtd">
<svg version="1.0" xmlns="http://www.w3.org/2000/svg"
 width="400.003261pt" height="400.000000pt" viewBox="0 0 400.003261 400.000000"
 preserveAspectRatio="xMidYMid meet">
<metadata>
Created by Potrace Professional 1.1m
</metadata>
<g transform="translate(0.003261,400.000000) rotate(-360.00) scale(0.095238,-0.095238)"
fill="#000000" stroke="none">
<path d="M36 4164 l-36 -35 0 -626 c0 -344 2 -626 5 -626 3 0 23 16 45 35 154
139 424 243 753 292 124 19 547 19 667 1 209 -32 527 -107 662 -155 172 -63
469 -132 673 -157 575 -71 1063 77 1342 409 l53 62 0 382 0 383 -36 35 -35 36
-2029 0 -2029 0 -35 -36z"/>
<path d="M4142 2907 c-164 -128 -394 -227 -656 -284 -100 -21 -138 -24 -399
-23 -272 0 -298 1 -446 29 -237 44 -263 46 -296 16 -35 -34 -29 -83 20 -152
134 -190 253 -450 365 -797 235 -731 656 -1231 1202 -1428 96 -35 255 -75 263
-66 3 2 4 621 2 1375 l-2 1371 -53 -41z"/>
<path d="M971 2934 c-398 -39 -723 -195 -918 -440 l-53 -66 0 -1167 c0 -1282
-4 -1211 63 -1245 25 -13 82 -16 318 -16 l288 0 6 93 c18 286 157 526 391 679
269 175 602 189 885 35 260 -142 442 -442 443 -731 l0 -76 547 0 c336 0 554 4
566 10 10 6 24 25 30 42 19 55 -1 86 -91 143 -418 265 -746 741 -1005 1459
-161 447 -315 729 -513 937 -113 118 -202 186 -321 245 -141 70 -250 94 -436
98 -87 2 -177 2 -200 0z"/>
<path d="M1370 600 c-230 -70 -403 -300 -404 -534 l0 -66 567 0 567 0 0 81
c-1 220 -161 434 -383 513 -79 28 -265 31 -347 6z"/>
</g>
</svg>
