<?xml version="1.0" standalone="no"?>
<!DOCTYPE svg PUBLIC "-//W3C//DTD SVG 20010904//EN"
 "http://www.w3.org/TR/2001/REC-SVG-20010904/DTD/svg10.dtd">
<svg version="1.0" xmlns="http://www.w3.org/2000/svg"
 width="400.000000pt" height="400.000000pt" viewBox="0 0 400.000000 400.000000"
 preserveAspectRatio="xMidYMid meet">
<metadata>
Created by Potrace Professional 1.1m
</metadata>
<g transform="translate(0.000000,400.000000) rotate(-360.00) scale(0.095238,-0.095238)"
fill="#000000" stroke="none">
<path d="M0 2100 l0 -2100 2100 0 2100 0 0 2100 0 2100 -2100 0 -2100 0 0
-2100z m1932 -132 c0 -123 1 -131 17 -115 37 37 119 48 179 26 98 -37 146
-166 99 -267 -34 -74 -90 -110 -170 -110 -42 0 -102 23 -117 46 -4 6 -8 1 -8
-12 0 -20 -6 -24 -37 -24 l-36 0 0 294 0 294 36 0 37 0 0 -132z m1166 -162 l0
-294 -42 0 c-33 0 -41 3 -36 16 8 20 6 20 -43 -5 -113 -58 -236 1 -268 127
-23 92 27 198 108 229 46 17 115 13 160 -10 22 -12 42 -21 43 -21 1 0 2 18 2
39 -1 22 0 79 1 126 l1 87 37 0 37 0 0 -294z m-2441 258 c54 -16 99 -49 99
-72 -1 -7 -12 -21 -27 -32 -25 -18 -26 -18 -60 7 -92 70 -231 30 -282 -82 -25
-55 -25 -145 0 -200 36 -77 90 -110 181 -110 56 0 84 10 122 45 23 20 23 20
56 -3 l32 -23 -23 -25 c-40 -43 -112 -71 -182 -72 -84 0 -136 19 -192 71 -63
57 -89 113 -95 197 -16 215 165 360 371 299z m1987 -12 c43 -30 24 -88 -29
-88 -51 0 -70 47 -36 85 22 24 34 24 65 3z m-1562 -181 c56 -30 62 -53 62
-215 l1 -144 -32 0 c-25 0 -31 4 -31 23 l0 23 -27 -25 c-34 -32 -124 -41 -171
-17 -71 37 -82 129 -21 179 37 32 91 48 164 48 53 0 56 1 49 24 -19 61 -82 78
-157 42 -35 -16 -38 -16 -58 2 -26 23 -19 34 35 59 57 25 138 26 186 1z m413
-12 l25 -23 39 27 c71 48 165 30 202 -39 13 -25 19 -68 22 -173 l4 -139 -43 0
-43 0 0 133 c0 154 -8 172 -75 172 -48 0 -82 -29 -84 -71 -1 -16 -3 -36 -4
-45 -2 -9 -3 -55 -4 -102 l-1 -87 -37 0 -36 0 0 129 c0 157 -10 178 -77 173
-70 -5 -85 -36 -90 -182 l-3 -120 -36 0 -36 0 0 184 0 184 37 0 c30 0 37 -4
37 -23 l0 -23 23 21 c33 31 48 35 105 31 34 -2 59 -11 75 -27z m1015 -9 c0
-39 -1 -39 -44 -40 -75 -2 -87 -25 -91 -172 l-4 -126 -36 0 -35 0 0 184 0 184
36 0 c31 0 37 -4 37 -24 0 -20 2 -20 13 -6 20 25 52 39 89 40 33 0 35 -2 35
-40z m906 20 c30 -16 39 -17 39 -5 0 10 13 15 42 15 l43 0 -3 -213 c-4 -241
-10 -260 -84 -309 -74 -50 -214 -44 -278 11 l-28 23 27 31 27 31 27 -26 c22
-20 42 -26 94 -30 58 -3 69 -1 95 21 18 16 32 41 37 67 11 62 4 71 -32 44 -24
-17 -46 -23 -92 -23 -98 0 -162 55 -185 160 -16 75 40 183 110 211 43 17 119
14 161 -8z m467 -8 c42 -31 75 -96 75 -148 l1 -44 -147 0 c-81 0 -147 -3 -147
-5 0 -24 26 -62 54 -79 46 -28 92 -27 138 4 37 25 38 25 62 6 23 -18 23 -20 4
-40 -78 -87 -250 -68 -308 35 -27 47 -33 152 -11 190 27 46 60 78 94 93 48 22
147 16 185 -12z m-1227 -166 l1 -184 -42 0 -42 0 0 184 0 184 41 0 41 0 1
-184z m-1968 -288 c23 -10 50 -28 60 -40 19 -20 18 -22 -29 -60 l-47 -39 -28
22 c-55 43 -163 19 -202 -45 -68 -114 -10 -264 108 -277 40 -5 56 -1 91 22
l42 28 47 -33 c26 -19 47 -37 47 -42 0 -18 -74 -70 -119 -83 -64 -18 -169 -9
-223 19 -140 72 -194 250 -120 397 33 66 82 112 145 135 58 22 177 20 228 -4z
m430 -187 c81 -56 110 -162 70 -250 -74 -160 -296 -160 -370 0 -23 50 -25 87
-7 146 15 51 78 117 126 132 55 17 134 5 181 -28z m388 33 c12 -5 17 -21 17
-58 l0 -51 -43 0 c-86 0 -104 -34 -104 -186 l0 -98 -58 0 -58 0 0 194 0 195
58 0 c55 0 58 -2 58 -29 l0 -28 28 27 c16 15 41 30 56 32 14 3 27 6 28 7 0 0
9 -2 18 -5z m326 -15 c55 -21 100 -103 100 -180 l0 -40 -131 0 c-143 0 -159
-9 -104 -52 35 -28 63 -28 107 0 l36 21 35 -27 c20 -15 36 -32 36 -37 0 -19
-64 -54 -118 -65 -78 -16 -137 2 -193 58 -48 48 -65 109 -52 179 22 120 162
190 284 143z"/>
<path d="M1982 1805 c-46 -27 -64 -120 -34 -178 21 -40 45 -52 105 -52 41 0
54 5 80 33 24 25 30 42 30 79 0 53 -22 103 -52 119 -26 13 -105 13 -129 -1z"/>
<path d="M2821 1789 c-51 -51 -47 -161 8 -197 39 -26 114 -22 148 7 53 45 52
154 -2 196 -42 33 -118 30 -154 -6z"/>
<path d="M978 1679 c-57 -11 -75 -26 -75 -61 0 -39 18 -53 68 -53 55 0 86 22
99 70 16 59 6 64 -92 44z"/>
<path d="M3277 1802 c-35 -20 -53 -56 -53 -110 -1 -86 94 -145 171 -105 42 21
59 53 59 112 0 48 -4 60 -30 87 -25 24 -40 30 -76 30 -25 0 -57 -7 -71 -14z"/>
<path d="M3721 1815 c-19 -9 -56 -60 -56 -76 0 -4 49 -6 109 -6 l110 0 -11 31
c-6 18 -21 39 -33 47 -26 18 -86 20 -119 4z"/>
<path d="M939 1119 c-36 -36 -35 -98 1 -132 59 -56 152 -16 152 65 0 55 -37
93 -89 93 -26 0 -46 -8 -64 -26z"/>
<path d="M1691 1145 c-35 -35 -26 -42 53 -42 77 0 79 2 43 44 -21 25 -71 23
-96 -2z"/>
</g>
</svg>
