<?xml version="1.0" standalone="no"?>
<!DOCTYPE svg PUBLIC "-//W3C//DTD SVG 20010904//EN"
 "http://www.w3.org/TR/2001/REC-SVG-20010904/DTD/svg10.dtd">
<svg version="1.0" xmlns="http://www.w3.org/2000/svg"
 width="400.000000pt" height="400.000000pt" viewBox="0 0 400.000000 400.000000"
 preserveAspectRatio="xMidYMid meet">
<metadata>
Created by Potrace Professional 1.1m
</metadata>
<g transform="translate(0.000000,400.000000) rotate(-360.00) scale(0.095238,-0.095238)"
fill="#000000" stroke="none">
<path d="M0 2100 l0 -2100 2100 0 2100 0 0 2100 0 2100 -2100 0 -2100 0 0
-2100z m2041 1478 c20 -19 68 -63 107 -97 39 -35 103 -94 142 -131 38 -38 116
-111 173 -163 56 -52 119 -111 140 -130 21 -19 51 -47 67 -60 19 -16 29 -33
27 -47 -4 -21 -10 -22 -329 -25 -332 -3 -480 -14 -502 -36 -6 -7 -20 -12 -30
-12 -18 0 -88 -35 -177 -87 -20 -11 -77 -62 -126 -111 -68 -69 -100 -112 -134
-178 -25 -48 -44 -96 -44 -106 0 -10 -5 -23 -12 -29 -6 -6 -15 -41 -21 -78 -6
-37 -14 -91 -18 -121 -17 -108 25 -319 85 -429 9 -18 23 -44 31 -58 15 -31 17
-33 68 -94 79 -93 149 -151 238 -199 163 -89 288 -107 674 -98 201 4 279 2
296 -7 l24 -12 0 -340 c0 -300 -2 -340 -17 -346 -9 -4 -200 -7 -424 -7 -386 1
-413 2 -532 25 -68 14 -163 38 -209 54 -91 31 -273 118 -290 139 -7 7 -16 14
-21 14 -37 0 -263 206 -367 336 -45 54 -127 191 -158 261 -26 60 -51 116 -63
140 -8 17 -13 33 -41 145 -6 25 -19 73 -28 105 -21 74 -24 522 -4 572 7 17 17
53 22 79 9 52 26 105 48 150 8 16 15 38 15 49 0 10 7 24 16 31 8 8 15 21 16
29 0 20 23 63 94 169 32 48 62 95 68 104 34 55 216 239 286 289 25 18 45 36
45 41 0 5 7 9 16 9 9 0 19 7 22 16 4 8 12 16 20 16 8 0 20 5 28 13 21 19 51
37 89 55 19 8 37 20 40 26 4 6 14 11 23 11 8 0 23 7 31 15 9 9 27 16 40 16 14
0 30 7 38 16 7 8 23 16 36 16 13 0 30 7 37 15 7 9 28 16 46 16 18 1 42 8 53
16 11 9 40 16 64 16 24 0 52 6 63 15 14 10 47 15 102 16 77 0 83 -2 117 -34z
m1409 -218 c23 -12 51 -27 62 -34 32 -20 111 -102 111 -115 0 -7 8 -21 18 -32
15 -17 18 -41 18 -133 0 -131 -12 -164 -89 -243 -147 -151 -352 -148 -501 8
-31 32 -55 66 -55 76 0 9 -7 27 -16 38 -26 34 -21 184 8 247 13 28 27 52 31
52 4 0 8 6 8 15 0 16 91 89 150 121 51 28 200 28 255 0z m-115 -1073 l288
-286 -3 -709 -3 -709 -293 -3 c-197 -2 -297 1 -305 8 -7 8 -10 307 -7 990 2
538 6 982 8 987 3 4 10 8 16 8 6 0 141 -129 299 -286z"/>
</g>
</svg>
