<?xml version="1.0" standalone="no"?>
<!DOCTYPE svg PUBLIC "-//W3C//DTD SVG 20010904//EN"
 "http://www.w3.org/TR/2001/REC-SVG-20010904/DTD/svg10.dtd">
<svg version="1.0" xmlns="http://www.w3.org/2000/svg"
 width="1270.000000pt" height="432.852888pt" viewBox="0 0 1270.000000 432.852888"
 preserveAspectRatio="xMidYMid meet">
<metadata>
Created by Potrace Professional 1.1m
</metadata>
<g transform="translate(-0.000000,432.852888) rotate(-360.00) scale(0.095238,-0.095238)"
fill="#000000" stroke="none">
<path d="M1516 4531 c-374 -68 -721 -332 -914 -694 -26 -49 -46 -92 -43 -94 2
-2 30 27 62 66 184 226 467 385 768 433 129 21 396 8 530 -25 231 -58 391
-144 546 -294 l66 -64 89 89 c49 49 89 91 89 95 0 3 -29 40 -64 82 -172 202
-449 358 -721 405 -110 20 -304 20 -408 1z"/>
<path d="M7644 4173 c0 -15 -5 -36 -11 -47 -8 -15 -5 -30 11 -59 27 -51 30
-211 5 -249 -22 -33 -184 -141 -255 -170 -53 -22 -60 -22 -102 -8 -56 19 -86
7 -145 -59 -47 -52 -41 -72 27 -107 25 -12 79 -56 121 -97 76 -74 154 -122
199 -122 15 0 29 11 39 31 31 59 23 81 -59 159 -87 83 -86 88 15 125 36 13 81
37 100 54 39 34 60 38 70 13 3 -9 6 -78 6 -153 0 -134 -1 -139 -31 -188 -35
-57 -33 -76 15 -133 l28 -33 -1 -412 -1 -411 27 -35 c15 -20 32 -35 39 -35 25
-1 53 52 77 144 16 61 19 358 5 517 -4 49 -3 125 2 168 10 90 33 121 100 131
74 12 81 15 115 47 51 46 46 73 -24 122 -32 23 -68 49 -81 58 l-22 17 26 23
c230 208 271 236 330 238 82 1 98 41 53 137 -32 70 -86 99 -188 99 -68 0 -91
-4 -222 -38 -98 -25 -95 -26 -93 27 0 26 5 77 9 113 l8 66 -49 47 c-43 41 -55
47 -96 47 -43 0 -47 -2 -47 -27z m442 -341 c11 -6 20 -16 20 -22 0 -26 -67
-104 -116 -135 -33 -21 -67 -56 -89 -90 -69 -109 -104 -96 -102 38 3 112 18
141 84 156 27 7 69 24 92 37 46 28 80 33 111 16z m-169 -456 c30 -32 22 -43
-39 -53 -39 -6 -45 -4 -45 12 0 18 38 67 53 67 3 0 17 -12 31 -26z"/>
<path d="M3911 4073 c-100 -13 -204 -47 -270 -89 l-55 -35 -3 47 -4 47 -246 0
-246 0 0 -898 0 -898 263 0 262 0 0 597 c0 613 4 683 43 759 39 76 146 114
323 114 141 0 217 -20 278 -75 102 -89 111 -168 112 -899 l0 -496 263 0 262 0
0 617 c0 637 -6 753 -43 861 -56 164 -188 276 -393 334 -74 21 -425 30 -546
14z"/>
<path d="M5345 3679 l-337 -395 3 -63 3 -62 346 -456 347 -455 265 -1 c146 0
265 2 265 5 0 3 -177 228 -394 500 -217 272 -393 498 -391 502 1 5 163 187
360 404 196 217 358 400 360 406 3 6 -84 10 -243 10 l-246 0 -338 -395z"/>
<path d="M1494 4056 c10 -2 24 -2 31 1 7 2 -1 5 -18 4 -18 0 -23 -2 -13 -5z"/>
<path d="M1787 4043 c45 -12 105 -33 134 -47 29 -15 61 -27 73 -27 37 0 241
-110 228 -123 -3 -3 -16 2 -29 12 -13 9 -35 17 -48 17 -22 0 -23 -3 -11 -24 7
-13 27 -40 45 -60 30 -36 30 -36 -13 4 l-44 41 -29 -20 c-17 -11 -36 -18 -43
-17 -7 2 -13 -2 -13 -9 0 -6 -5 -8 -10 -5 -18 11 -12 -13 15 -68 15 -28 26
-56 26 -60 0 -5 -10 10 -22 33 l-22 42 -25 -50 c-26 -51 -39 -63 -34 -31 2 10
-3 33 -10 51 -15 36 -14 55 6 76 11 12 11 18 1 30 -12 14 -16 13 -31 -6 -14
-17 -30 -22 -66 -22 -59 0 -62 -12 -17 -94 34 -62 37 -68 21 -58 -6 3 -10 2
-10 -4 0 -6 5 -14 11 -18 8 -5 8 -10 -2 -16 -11 -6 -10 -10 5 -16 10 -4 24 -1
30 5 7 7 20 12 28 12 13 -1 11 -4 -4 -13 -39 -23 -56 -53 -52 -95 3 -35 0 -41
-25 -52 -16 -6 -32 -12 -36 -12 -4 -1 -14 -11 -23 -22 -13 -19 -16 -19 -22 -4
-9 23 12 62 33 62 31 0 45 27 41 80 -2 28 -4 63 -5 77 0 23 -4 20 -23 -20 -13
-25 -32 -48 -42 -51 -11 -3 -19 -11 -19 -19 0 -8 -6 -15 -12 -15 -7 0 -4 -11
6 -28 17 -26 17 -29 2 -40 -10 -7 -14 -16 -10 -20 3 -3 1 -6 -6 -6 -6 0 -12
11 -12 25 0 30 -11 40 -31 27 -12 -7 -11 -15 4 -48 15 -31 16 -44 7 -64 -6
-14 -7 -23 -2 -20 6 4 13 2 17 -4 3 -6 2 -11 -4 -11 -5 0 -7 -10 -4 -23 4 -15
2 -20 -6 -15 -7 4 -12 15 -12 23 0 12 -8 10 -32 -8 -31 -23 -31 -23 -31 -128
0 -102 0 -104 20 -86 26 24 45 12 36 -22 -7 -26 -5 -27 31 -23 43 5 45 3 22
-27 -8 -11 -12 -29 -9 -40 3 -10 1 -18 -5 -18 -6 0 -12 5 -12 13 0 9 -2 9 -9
-1 -12 -20 -22 8 -15 42 4 20 2 19 -17 -9 -19 -28 -27 -32 -46 -25 -12 4 -29
19 -36 33 -11 22 -10 27 8 40 19 12 21 26 21 118 0 81 -3 104 -15 104 -8 0
-14 -8 -13 -18 1 -9 -4 -19 -12 -22 -7 -2 -12 0 -12 4 1 5 1 16 1 25 -2 14 -3
14 -11 1 -7 -11 -3 -24 10 -41 27 -34 26 -56 -6 -86 -15 -14 -26 -19 -26 -12
0 14 -25 44 -36 44 -13 0 -5 -47 10 -64 9 -10 18 -33 20 -51 3 -18 16 -43 29
-55 13 -11 18 -18 11 -14 -8 3 -13 0 -13 -10 0 -9 13 -19 29 -22 16 -4 36 -10
46 -15 22 -12 106 -17 122 -8 6 5 14 4 17 -1 3 -4 -4 -14 -15 -21 -12 -8 -20
-8 -20 -2 0 6 -8 11 -17 11 -9 0 -13 -5 -10 -11 4 -6 2 -10 -4 -10 -6 0 -13 4
-17 10 -3 6 -22 11 -42 11 -66 0 -133 39 -153 91 -5 13 -17 24 -28 24 -15 0
-16 2 -2 11 13 8 12 10 -5 10 -11 0 -17 3 -13 7 4 4 -1 16 -10 26 -10 11 -15
23 -11 27 4 3 7 1 7 -6 0 -6 7 -12 15 -12 8 0 22 -7 31 -16 15 -15 17 -15 17
0 0 9 -7 19 -16 23 -10 4 -14 13 -11 22 11 28 -5 86 -24 87 -10 0 -24 15 -33
34 -9 18 -20 34 -26 34 -7 0 -13 -86 -16 -226 l-6 -226 -2 225 -2 226 -37 -41
c-38 -40 -48 -85 -25 -107 8 -9 8 -17 0 -31 -11 -19 -12 -19 -18 3 -4 13 -12
21 -19 18 -12 -4 -59 83 -59 110 0 21 -81 94 -94 86 -21 -13 -34 -166 -29
-342 2 -97 1 -146 -4 -115 -11 70 -12 276 -3 376 4 54 3 81 -4 81 -6 0 -9 -9
-6 -19 6 -22 -33 -76 -54 -76 -8 0 -16 -4 -18 -10 -2 -5 -25 -20 -50 -32 l-48
-21 41 6 c27 4 44 2 49 -7 10 -16 -25 -77 -75 -130 -45 -49 -47 -56 -36 -124
6 -39 4 -55 -9 -76 -20 -30 -16 -67 16 -162 11 -31 18 -58 15 -61 -5 -5 -59
156 -59 179 1 11 -4 17 -9 13 -6 -3 -10 -21 -9 -39 0 -19 -5 -35 -11 -38 -7
-2 -12 -9 -12 -14 0 -13 -56 -92 -65 -93 -3 0 -17 25 -29 55 -84 202 -97 462
-34 675 l19 63 51 0 c48 0 67 8 68 29 0 4 -10 8 -22 8 -12 0 -18 4 -15 10 9
14 -27 1 -49 -18 -14 -12 -17 -12 -15 -1 6 29 41 103 49 103 4 0 13 14 19 32
26 75 184 243 303 322 78 52 194 105 313 142 76 24 85 28 44 23 -70 -8 -166
-41 -264 -90 -618 -307 -753 -1143 -264 -1632 83 -83 164 -141 276 -197 82
-42 240 -91 285 -90 16 0 -5 10 -49 22 -74 21 -85 29 -46 37 62 13 105 15 112
4 3 -6 16 -11 27 -11 14 -1 18 4 13 17 -4 11 -2 15 5 10 11 -7 149 43 160 58
3 4 30 6 61 4 30 -2 55 0 55 3 0 4 48 8 107 8 105 1 157 5 244 20 l42 7 -36
-24 c-78 -50 -248 -118 -373 -148 -17 -4 -15 -6 6 -7 44 -2 203 48 286 90 111
56 192 114 275 197 395 396 395 1042 0 1440 -154 156 -382 270 -583 292 -54 6
-53 5 23 -14z m496 -243 c21 -18 38 -36 38 -41 0 -4 -17 -16 -38 -26 -24 -11
-36 -23 -32 -32 5 -12 2 -13 -14 -3 -11 7 -22 21 -25 32 -4 16 -3 17 10 7 11
-9 21 -8 43 7 21 14 25 20 13 24 -8 2 -19 11 -24 19 -4 8 -13 12 -18 8 -6 -3
-10 -1 -10 5 0 6 5 12 11 12 6 0 8 4 5 10 -12 19 4 11 41 -22z m-83 -104 c-4
-6 -14 -10 -22 -10 -9 0 -13 4 -10 10 4 6 14 11 22 11 9 0 13 -5 10 -11z m-71
-17 c-4 -3 -13 -4 -20 -1 -9 4 -6 6 6 7 11 0 17 -2 14 -6z m-253 -353 c-2 -13
-4 -2 -4 24 0 25 2 36 4 23 3 -13 3 -34 0 -47z m334 -71 c4 -6 2 -10 -4 -10
-6 0 -11 4 -11 10 0 6 -8 11 -16 11 -9 0 -16 4 -16 10 0 13 37 -4 47 -21z
m-492 -44 c-3 -12 1 -23 10 -26 17 -7 40 -72 32 -93 -5 -13 -10 -14 -27 -3
-14 9 -17 18 -11 29 5 10 3 19 -7 27 -8 6 -18 31 -21 55 -6 39 -4 44 12 38 11
-4 16 -14 12 -27z m-303 -50 c-2 -24 -18 -30 -18 -7 0 12 9 28 16 28 2 0 2
-10 2 -21z m267 -34 c-8 -8 -12 -8 -12 -2 0 14 12 27 19 20 3 -3 0 -11 -7 -18z
m113 -95 c0 -7 -4 -20 -10 -29 -8 -12 -10 -9 -10 13 0 16 4 29 10 29 6 0 10
-6 10 -13z m59 -38 c9 -11 14 -12 19 -3 13 20 112 -30 112 -57 0 -5 7 -17 17
-27 23 -25 -2 -27 -30 -2 -15 14 -22 14 -35 4 -11 -10 -19 -11 -30 -2 -7 7
-17 9 -21 5 -3 -4 -6 6 -6 21 0 18 -6 28 -16 28 -9 0 -18 0 -21 0 -13 0 -43
38 -40 49 6 15 35 6 51 -16z m-74 -12 c14 0 27 -4 30 -9 4 -5 -9 -6 -27 -2
-18 3 -34 12 -36 19 -1 8 0 9 3 3 3 -6 16 -11 30 -11z m256 -27 c-14 -17 -41
-20 -41 -4 0 5 7 10 16 10 8 0 16 5 16 11 0 6 4 8 11 4 7 -4 7 -11 -2 -21z
m101 -55 c9 -26 2 -23 -42 16 l-42 36 39 -18 c21 -10 41 -25 45 -34z m-194
-39 c0 -9 4 -15 10 -15 6 0 11 -15 11 -32 0 -17 4 -31 10 -31 19 0 52 -80 46
-112 -5 -29 -51 -106 -72 -122 -6 -4 -27 -8 -47 -8 -28 0 -44 9 -75 42 -43 45
-62 50 -107 27 -16 -9 -46 -17 -67 -19 l-38 -3 -3 58 c-5 93 2 113 45 127 21
7 52 28 69 48 17 20 37 34 44 31 6 -2 21 2 32 10 11 8 31 15 44 15 21 0 23 -4
18 -26 -4 -15 -2 -26 4 -26 6 0 18 -3 27 -7 12 -4 17 0 17 15 0 31 11 55 22
49 5 -4 10 -13 10 -21z m-977 -13 c0 -9 -8 -44 -17 -78 -15 -53 -21 -61 -43
-61 -24 0 -26 3 -20 33 4 18 7 41 7 51 0 20 53 83 65 76 4 -2 8 -11 8 -21z
m1342 -38 c-8 -8 -15 -13 -17 -11 -7 6 9 26 20 26 6 0 4 -7 -3 -15z m-1219
-56 c-3 -10 -5 -5 -5 13 -1 17 2 25 4 18 3 -7 3 -21 1 -31z m1089 8 c11 -17
-12 -22 -26 -6 -10 13 -10 16 4 16 9 0 19 -4 22 -10z m-806 -35 c-3 -7 -5 -1
-5 14 0 14 2 20 5 13 3 -8 3 -19 0 -27z m-273 -30 c-3 -9 -6 -6 -6 6 -1 11 2
17 5 14 4 -4 4 -13 1 -20z m-166 -185 c18 -36 31 -65 28 -65 -6 0 -68 121 -68
132 0 12 6 2 40 -67z m1261 -25 c-77 -69 -94 -79 -94 -52 0 12 15 29 37 42 20
12 37 26 37 32 0 6 7 7 17 4 10 -4 15 -3 12 3 -3 5 -2 20 3 34 9 23 11 23 27
6 16 -16 14 -20 -39 -69z m-262 13 c0 -5 -7 -14 -15 -21 -11 -9 -15 -9 -20 3
-3 8 -3 18 1 21 9 10 34 8 34 -3z m-798 -106 c0 -6 -5 -10 -10 -10 -6 0 -11 4
-11 10 0 6 5 11 11 11 5 0 10 -5 10 -11z m165 -151 c-32 -28 -36 -38 -13 -38
23 0 51 -49 42 -71 -5 -10 -8 -21 -7 -25 4 -19 -31 -14 -87 12 -56 26 -60 31
-39 37 17 6 22 13 17 27 -3 11 -1 20 5 20 6 0 12 6 12 13 0 16 50 48 78 49 19
1 18 -2 -8 -24z"/>
<path d="M6641 4044 c-204 -93 -213 -387 -14 -488 173 -88 377 21 394 211 11
117 -41 214 -142 267 -69 36 -171 40 -238 10z"/>
<path d="M539 4013 c-178 -141 -359 -421 -443 -687 -102 -321 -82 -698 55
-1022 130 -307 377 -551 689 -680 311 -129 740 -153 1061 -61 323 93 596 298
773 581 74 117 81 140 29 91 -168 -156 -419 -302 -645 -374 -151 -49 -258 -66
-413 -65 -606 0 -1071 325 -1251 876 -47 145 -70 305 -70 499 -1 345 66 593
216 802 32 44 56 80 54 80 -2 0 -27 -18 -55 -40z"/>
<path d="M1596 4045 c0 -4 5 -15 11 -23 8 -13 10 -12 10 7 0 13 -5 24 -10 24
-6 0 -11 -4 -11 -8z"/>
<path d="M1628 4032 c0 -12 3 -21 7 -22 5 0 19 -3 32 -5 31 -6 30 10 -2 31
-34 22 -37 21 -37 -4z"/>
<path d="M1806 4012 c14 -12 40 -21 58 -21 l31 1 -31 13 c-18 8 -44 17 -58 21
l-26 7 26 -21z"/>
<path d="M1901 3980 c0 -14 18 -23 25 -12 3 5 -1 12 -10 15 -8 4 -15 2 -15 -3z"/>
<path d="M9125 3972 c-46 -14 -72 -32 -132 -92 -41 -40 -95 -103 -119 -139
-33 -49 -51 -66 -68 -66 -60 0 -82 -66 -112 -338 -12 -111 5 -344 34 -465 3
-12 9 -57 13 -100 8 -89 41 -206 66 -234 22 -24 61 -23 98 4 25 18 34 19 47 9
20 -17 90 -7 152 21 73 33 102 28 168 -26 132 -110 243 -140 333 -89 63 35 86
101 107 305 41 407 -3 897 -93 1043 -23 36 -83 97 -114 115 -101 59 -111 62
-217 66 -78 3 -121 -1 -163 -14z m290 -76 c142 -94 197 -299 209 -772 9 -340
-11 -565 -54 -609 -36 -36 -167 -13 -249 44 -36 25 -40 31 -34 62 4 23 1 38
-11 50 -30 30 -63 30 -148 2 -129 -44 -204 -61 -217 -49 -6 6 -16 38 -23 71
-7 34 -17 69 -21 80 -4 11 -2 20 7 22 8 3 76 24 151 47 75 22 167 54 204 69
45 18 71 24 78 17 12 -12 -16 -115 -43 -156 -20 -32 -9 -42 18 -18 26 24 62
120 72 192 3 31 11 56 17 57 6 1 44 -47 84 -108 41 -60 81 -109 90 -109 30 0
21 34 -25 95 -82 110 -112 200 -119 367 -4 69 -11 134 -16 144 -20 38 -29 4
-29 -103 0 -64 -5 -109 -11 -109 -5 0 -20 22 -32 49 -13 28 -32 69 -43 92 -24
50 -24 65 -4 114 23 54 20 66 -16 81 -39 16 -58 42 -78 112 -19 62 -49 104
-67 93 -20 -12 -14 -42 26 -117 l38 -71 -46 -41 c-25 -22 -78 -61 -117 -88
-39 -27 -79 -59 -87 -72 -14 -22 -13 -28 11 -74 31 -58 33 -98 10 -143 -29
-56 -5 -61 87 -17 105 50 129 56 129 36 0 -15 -30 -43 -157 -153 -56 -47 -126
-80 -146 -67 -26 16 -41 308 -23 455 7 60 17 114 21 120 5 6 11 26 15 45 23
124 151 301 261 364 59 34 74 37 146 37 76 0 83 -2 142 -41z m-227 -490 c0
-36 -49 -111 -109 -170 -56 -55 -82 -55 -95 0 -12 48 10 88 54 97 17 4 51 28
76 54 53 53 74 59 74 19z m59 -92 c9 -20 15 -42 12 -50 -7 -18 -103 -45 -116
-32 -12 12 53 118 72 118 8 0 23 -17 32 -36z m75 -187 c7 -7 13 -30 13 -52 0
-40 -20 -61 -58 -61 -9 0 -69 -26 -134 -58 -118 -58 -158 -68 -171 -47 -16 25
155 162 261 210 51 23 72 25 89 8z"/>
<path d="M9316 3699 c-24 -27 -43 -50 -42 -51 26 -24 152 -99 167 -99 11 0 26
14 36 32 21 41 7 90 -39 136 -44 44 -69 40 -122 -18z"/>
<path d="M12081 3900 c-8 -8 -19 -33 -22 -55 -13 -75 -90 -258 -140 -331 -44
-63 -106 -200 -106 -232 0 -16 12 -39 33 -58 40 -39 88 -42 166 -11 77 30 95
28 95 -11 0 -17 -8 -49 -16 -69 -35 -84 -14 -143 53 -145 40 -1 41 -2 45 -41
2 -33 -10 -67 -63 -174 -93 -187 -96 -198 -74 -237 26 -44 49 -45 83 -4 16 19
47 52 68 73 22 22 43 57 50 81 6 24 16 46 22 49 5 4 10 16 10 28 0 11 14 47
31 80 46 92 97 214 91 220 -10 10 -26 -8 -58 -65 -30 -52 -64 -77 -64 -46 0 7
-14 42 -32 78 l-32 66 21 42 c29 57 28 98 -5 137 -44 52 -96 79 -149 76 l-47
-3 20 26 c10 14 40 53 66 87 46 61 120 137 193 199 32 27 39 40 39 72 0 94
-103 185 -208 185 -34 0 -59 -6 -70 -17z"/>
<path d="M10521 3822 c-10 -6 -18 -36 -23 -86 -4 -42 -9 -90 -12 -106 -7 -38
-52 -131 -98 -200 -62 -95 -43 -145 66 -166 26 -5 57 -15 69 -24 22 -15 21
-15 -9 -43 -59 -56 -150 -110 -214 -128 -51 -14 -70 -25 -85 -50 -25 -40 -20
-93 13 -127 27 -29 53 -33 76 -10 8 8 18 12 21 9 3 -3 48 17 101 45 69 37 98
48 106 39 9 -8 7 -20 -5 -44 -9 -17 -17 -40 -17 -51 0 -57 -143 -212 -212
-229 -42 -11 -48 -46 -14 -75 15 -14 39 -25 51 -24 27 0 94 34 142 73 36 30
107 149 107 180 0 12 5 29 10 40 6 10 15 48 21 85 12 78 29 97 100 118 33 9
60 25 73 43 l21 28 -27 27 c-19 19 -43 29 -76 33 -44 5 -48 8 -48 33 0 34 28
65 119 130 74 53 91 79 91 143 0 78 -30 81 -163 18 -54 -25 -103 -43 -110 -38
-16 10 0 46 70 151 31 46 56 87 56 93 0 18 -30 66 -57 91 -29 27 -114 41 -143
22z m42 -666 c0 -17 -35 -44 -126 -95 -75 -42 -73 -42 -73 -21 0 8 12 23 28
33 16 11 52 37 80 58 52 41 91 52 91 25z"/>
<path d="M12853 3800 c-65 -32 -145 -100 -133 -112 3 -3 19 6 35 20 70 64 104
76 230 76 148 1 155 -3 153 -106 -5 -337 -4 -800 2 -914 10 -162 12 -158 -90
-107 -35 18 -75 37 -89 42 -45 17 -28 -14 34 -63 32 -25 64 -59 71 -75 14 -32
45 -60 100 -88 l35 -18 41 40 c44 43 49 64 26 107 -40 74 -57 623 -28 884 28
244 21 270 -78 320 -44 23 -66 27 -148 27 -86 0 -102 -4 -161 -33z"/>
<path d="M1787 3757 c-20 -25 -18 -43 6 -45 20 -2 22 2 17 25 -9 35 -9 36 -23
20z"/>
<path d="M1658 3625 c-1 -4 -1 -16 0 -26 2 -11 -5 -18 -14 -18 -13 0 -17 -15
-18 -71 l-2 -71 -4 60 c-4 59 -15 77 -28 45 -3 -9 -14 -16 -25 -16 -10 0 -56
-35 -102 -78 -48 -44 -75 -76 -63 -73 28 7 67 -33 50 -50 -9 -9 -9 -17 0 -30
9 -15 17 -17 42 -10 19 6 37 5 49 -3 15 -9 31 -8 70 4 40 13 55 24 69 52 9 20
13 37 7 39 -5 2 -6 8 -3 14 4 5 -1 22 -11 36 -9 14 -13 26 -9 26 4 0 -1 8 -11
19 -16 18 -16 20 3 38 11 10 26 15 33 10 12 -7 63 41 63 59 0 5 3 17 7 27 4
12 3 15 -5 11 -6 -4 -15 -3 -18 3 -8 13 -78 15 -80 3z"/>
<path d="M12880 3611 c-34 -26 -35 -37 -6 -44 20 -5 22 -12 17 -44 -7 -42 -75
-142 -97 -142 -15 0 -26 23 -26 53 0 12 -7 21 -18 21 -9 0 -28 9 -41 22 -35
32 -49 16 -44 -50 3 -37 13 -68 29 -89 13 -18 21 -38 18 -46 -3 -7 -28 -22
-56 -32 -89 -33 -122 -84 -82 -125 22 -21 32 -21 88 5 25 11 51 21 57 21 9 0
11 -36 9 -121 -3 -106 -1 -127 18 -166 12 -25 22 -53 22 -61 0 -10 25 -24 70
-39 66 -22 71 -23 89 -5 11 9 19 27 17 39 -2 19 -20 34 -119 107 -36 26 -30
36 24 45 33 5 40 11 43 34 3 22 -7 37 -50 73 -39 33 -53 52 -53 73 0 26 27 63
47 63 17 0 79 53 79 68 0 19 -33 37 -67 37 -46 0 -40 18 23 80 79 78 118 131
118 160 0 23 -52 85 -72 85 -5 0 -22 -10 -37 -22z"/>
<path d="M930 3564 c-3 -10 0 -25 7 -34 7 -9 12 -24 10 -34 -2 -10 5 -21 14
-24 14 -6 16 -2 10 25 -4 18 -13 44 -20 58 -12 22 -15 24 -21 9z"/>
<path d="M824 3539 c-3 -6 1 -11 11 -11 9 0 14 5 10 11 -3 5 -8 10 -10 10 -2
0 -7 -5 -11 -10z"/>
<path d="M12592 3513 c-12 -15 -24 -32 -25 -36 -2 -5 -18 -15 -35 -24 -28 -13
-32 -21 -38 -72 -4 -32 -17 -93 -30 -135 -21 -71 -23 -94 -19 -278 5 -266 25
-323 98 -275 21 13 24 23 21 53 -3 20 -9 43 -13 50 -5 7 -10 39 -11 71 -1 31
-6 102 -9 157 -9 128 24 333 71 443 26 61 21 85 -10 46z"/>
<path d="M1675 3497 c-20 -9 -20 -10 2 -10 13 -1 24 4 24 10 0 5 -1 10 -3 9
-1 0 -12 -5 -23 -9z"/>
<path d="M11246 3381 c-26 -10 -76 -29 -111 -42 -34 -13 -76 -28 -92 -34 -16
-6 -46 -25 -68 -41 l-38 -31 -14 27 c-18 34 -43 34 -56 0 -11 -29 22 -248 41
-272 5 -6 12 -23 16 -38 3 -15 16 -40 28 -56 29 -37 67 -36 152 4 38 18 85 32
107 32 43 0 119 42 119 66 0 8 -10 24 -21 36 -12 12 -21 28 -21 34 0 19 60
132 78 147 35 29 50 72 37 110 -23 71 -78 91 -157 58z m-1 -115 c13 -8 10 -23
-20 -92 -20 -45 -46 -94 -58 -110 -24 -31 -91 -64 -114 -55 -8 3 -22 41 -33
90 l-18 84 24 26 c26 27 66 41 199 66 2 0 12 -4 20 -9z"/>
<path d="M945 3360 c0 -6 5 -10 11 -10 6 0 8 4 5 10 -4 6 -9 11 -11 11 -3 0
-5 -5 -5 -11z"/>
<path d="M977 3318 c0 -6 4 -10 9 -10 6 0 13 4 17 10 3 6 -1 11 -10 11 -9 0
-16 -5 -16 -11z"/>
<path d="M6531 2777 l0 -530 231 0 231 0 0 530 0 531 -231 0 -231 0 0 -531z"/>
<path d="M834 3252 c3 -7 9 -21 12 -30 6 -16 36 -37 36 -25 0 16 -26 58 -39
63 -10 3 -13 1 -9 -8z"/>
<path d="M10634 2853 c-8 -19 46 -146 81 -192 31 -40 50 -42 95 -6 59 46 34
140 -48 181 -53 27 -121 36 -128 17z"/>
<path d="M10049 2069 l0 -54 65 3 66 3 0 48 0 47 -66 3 -65 3 0 -53z"/>
<path d="M9167 1780 l0 -331 63 0 63 0 0 94 0 93 48 28 49 29 122 -123 123
-122 82 3 82 3 -153 142 c-83 78 -151 146 -150 152 2 6 64 49 138 95 l136 84
-83 3 -82 3 -151 -95 c-83 -52 -153 -95 -156 -95 -3 0 -5 83 -5 184 l0 184
-63 0 -63 0 0 -331z"/>
<path d="M13115 2075 l-58 -23 -3 -60 -4 -60 -46 0 c-45 0 -47 -1 -47 -31 0
-31 2 -32 47 -32 l48 0 0 -182 c0 -178 0 -182 25 -206 39 -36 141 -53 224 -36
28 6 30 9 24 39 -6 31 -10 33 -58 37 -29 1 -58 8 -66 14 -9 8 -13 54 -13 173
l0 161 63 0 63 0 0 32 0 31 -63 0 -63 0 0 84 c0 46 -4 84 -8 83 -4 -1 -34 -11
-65 -24z"/>
<path d="M1384 2082 c8 -3 17 -2 20 1 4 4 -3 6 -14 6 -12 -1 -14 -3 -6 -7z"/>
<path d="M1504 2030 c11 -3 25 -3 32 0 7 3 -1 5 -19 5 -17 0 -23 -3 -13 -5z"/>
<path d="M1714 2030 c11 -3 25 -3 32 0 7 3 -1 5 -19 5 -17 0 -23 -3 -13 -5z"/>
<path d="M7518 1936 c-165 -29 -252 -115 -252 -249 0 -156 130 -249 348 -248
148 0 257 49 305 136 l19 37 -65 7 c-36 4 -66 7 -66 5 -1 -1 -15 -20 -31 -42
-38 -52 -82 -70 -171 -70 -121 0 -192 57 -200 160 -10 117 55 185 185 194 89
7 138 -8 179 -55 26 -30 39 -36 73 -36 83 0 94 19 44 77 -50 56 -124 83 -242
86 -55 2 -112 1 -126 -2z"/>
<path d="M8433 1928 c-31 -8 -70 -25 -86 -37 l-31 -23 0 32 0 32 -63 0 -63 0
0 -241 0 -242 68 0 69 0 0 157 c0 96 4 167 12 184 20 44 95 74 187 74 89 0
130 -18 147 -64 6 -15 11 -100 11 -189 l0 -162 68 0 69 0 -3 188 c-4 216 -8
229 -96 273 -62 31 -203 40 -289 18z"/>
<path d="M11329 1929 c-27 -8 -66 -24 -87 -37 l-38 -22 0 31 c0 31 -1 31 -58
31 l-58 0 0 -241 0 -242 62 0 61 0 5 160 c3 95 10 170 18 184 29 55 168 91
258 66 81 -23 84 -31 88 -233 l4 -177 68 0 69 0 -5 189 c-5 216 -9 227 -96
272 -60 31 -214 41 -291 19z"/>
<path d="M12233 1926 c-164 -45 -253 -174 -210 -304 18 -57 85 -124 149 -153
77 -33 254 -41 350 -15 81 22 150 65 175 107 l18 32 -63 7 c-62 6 -64 5 -100
-30 -41 -41 -90 -58 -172 -58 -79 0 -131 16 -173 53 -35 31 -63 86 -51 98 4 4
133 7 288 7 320 0 296 -9 266 91 -20 69 -86 131 -164 156 -80 24 -241 29 -313
9z m259 -78 c42 -19 87 -72 87 -102 0 -10 -49 -13 -210 -13 -145 0 -210 3
-210 11 0 40 60 95 124 115 54 16 162 11 209 -11z"/>
<path d="M3087 1924 c0 -4 51 -113 113 -242 l112 -234 72 3 72 3 77 179 78
178 18 -42 c9 -23 42 -103 73 -178 l55 -137 72 -3 72 -3 118 237 c65 130 118
239 118 242 0 3 -29 5 -64 5 l-64 0 -85 -178 c-47 -99 -88 -179 -91 -179 -3 0
-38 81 -78 179 l-72 178 -70 0 -69 0 -78 -184 c-42 -101 -80 -181 -84 -179 -4
3 -42 85 -84 184 l-77 179 -67 0 c-37 0 -67 -3 -67 -8z"/>
<path d="M4413 1690 l118 -242 71 3 72 3 74 176 c41 97 76 175 78 173 2 -2 36
-82 76 -176 l72 -173 72 -3 73 -3 118 237 c65 130 118 239 118 242 0 3 -29 5
-64 5 l-64 0 -85 -178 c-47 -99 -89 -179 -92 -179 -3 0 -38 80 -79 179 l-73
178 -68 0 -68 0 -78 -184 c-43 -101 -81 -183 -84 -183 -3 0 -42 83 -85 183
l-78 184 -71 0 -70 0 117 -242z"/>
<path d="M5580 1793 c36 -77 89 -185 117 -242 l51 -102 70 0 70 0 77 179 c41
99 79 174 83 167 4 -6 38 -87 75 -179 l67 -167 71 0 70 0 121 242 121 241 -66
0 -65 0 -84 -178 c-46 -98 -87 -178 -91 -179 -4 0 -39 80 -78 179 l-72 178
-69 0 -69 0 -78 -184 c-43 -100 -81 -183 -84 -183 -3 0 -41 82 -84 183 l-78
184 -71 0 -71 0 67 -139z"/>
<path d="M10049 1691 l0 -242 68 0 68 0 0 242 0 241 -68 0 -68 0 0 -241z"/>
<path d="M6815 1507 l0 -58 73 0 74 0 0 58 0 58 -74 0 -73 0 0 -58z"/>
<path d="M10574 1507 l0 -58 73 0 74 0 0 58 0 58 -74 0 -73 0 0 -58z"/>
<path d="M0 1066 c0 -14 743 -16 6665 -13 4437 1 6664 6 6662 13 -2 7 -2234
11 -6665 13 -5919 2 -6662 1 -6662 -13z"/>
<path d="M470 829 c-15 -9 -18 -26 -18 -83 0 -48 -5 -75 -15 -83 -19 -16 -225
-17 -298 -1 -64 14 -104 7 -109 -18 -2 -9 1 -97 7 -195 15 -229 8 -223 163
-168 95 34 205 50 237 35 l27 -12 -4 -136 c-4 -158 4 -176 68 -164 67 13 76
34 73 176 l-3 125 29 11 c41 16 148 4 257 -29 85 -26 93 -26 117 -11 24 16 26
23 33 180 7 144 6 167 -10 190 -24 38 -40 41 -130 27 -120 -19 -265 -24 -281
-10 -9 7 -14 34 -14 71 0 49 -5 64 -25 83 -26 24 -73 30 -104 12z m429 -263
c17 -14 20 -106 4 -135 -15 -29 -54 -33 -184 -18 l-115 12 0 74 0 73 110 6
c124 7 165 5 185 -12z m-450 -12 c17 -17 17 -118 -1 -132 -7 -7 -73 -13 -149
-15 l-136 -3 -3 67 c-2 40 1 72 9 81 16 20 261 22 280 2z"/>
<path d="M6074 815 c-9 -14 -15 -39 -13 -55 l3 -30 -139 -3 -139 -3 0 36 c0
40 -15 56 -61 65 -25 5 -35 2 -48 -18 -10 -13 -17 -38 -17 -54 l0 -30 -64 3
c-71 4 -94 -12 -94 -62 0 -26 0 -26 84 -18 l85 7 -3 -103 -3 -104 -72 -5 c-60
-4 -75 -10 -92 -31 -45 -55 -2 -108 56 -69 14 9 48 19 77 22 l52 6 -53 -50
c-62 -59 -152 -103 -246 -122 -57 -11 -69 -17 -72 -36 -5 -34 44 -67 100 -66
75 0 159 51 285 175 97 96 113 108 147 108 29 0 34 -3 25 -13 -7 -7 -13 -25
-13 -42 0 -28 -2 -29 -51 -29 -57 0 -79 -16 -73 -55 3 -22 8 -24 66 -24 60 0
63 -1 63 -26 0 -26 -2 -26 -89 -29 -115 -3 -133 -8 -154 -40 -16 -24 -16 -27
1 -46 18 -19 33 -20 309 -15 252 5 292 8 303 22 35 46 9 62 -111 69 -102 5
-137 20 -124 54 5 12 21 17 58 17 37 0 54 4 58 15 10 26 -31 58 -72 58 -31 0
-38 4 -43 29 -4 16 -12 35 -18 43 -9 11 -5 12 20 6 60 -14 95 -38 218 -151
141 -131 191 -158 252 -137 45 14 112 88 112 122 0 26 1 26 -111 46 -104 19
-202 54 -260 91 l-55 34 96 1 c106 0 131 12 109 52 -10 19 -21 22 -90 22 l-78
0 0 93 c0 105 5 113 68 118 37 3 42 7 42 30 0 23 -5 27 -55 35 l-55 9 0 40 c0
46 -19 63 -73 63 -22 0 -37 -8 -48 -25z m-2 -168 c4 -8 3 -18 0 -21 -4 -4 -69
-6 -146 -6 -133 0 -140 1 -140 21 0 19 7 21 140 21 111 0 142 -4 146 -15z m2
-101 c0 -13 -24 -16 -144 -19 -140 -2 -144 -2 -144 19 0 21 4 21 144 19 120
-3 144 -6 144 -19z m4 -87 c3 -16 -10 -18 -145 -18 -141 0 -147 1 -147 21 0
21 5 21 144 19 127 -3 144 -5 148 -22z"/>
<path d="M2962 805 c-6 -8 -19 -38 -27 -66 -21 -70 -77 -133 -148 -167 -32
-15 -56 -33 -54 -40 2 -7 29 -14 63 -15 46 -3 70 2 112 23 29 15 53 23 53 17
0 -6 9 -11 20 -11 29 0 46 -27 38 -59 l-7 -28 -118 6 c-128 7 -153 1 -187 -46
-43 -57 8 -85 105 -58 92 25 202 34 201 16 0 -39 -26 -99 -58 -135 -50 -55
-125 -85 -234 -93 -75 -6 -91 -10 -94 -26 -5 -25 53 -77 95 -85 82 -15 218 48
308 142 32 34 65 62 72 61 8 0 25 -8 39 -19 78 -61 192 -138 205 -138 8 0 17
7 21 16 10 27 -175 220 -229 238 -9 3 -9 10 0 27 11 20 23 23 99 26 l86 3 0
31 0 32 -89 5 -89 5 0 48 0 47 84 5 c70 4 84 8 87 24 7 39 -15 46 -151 52 -72
3 -134 8 -137 11 -3 3 5 21 16 40 27 44 28 85 3 108 -24 21 -69 22 -85 3z"/>
<path d="M10057 808 c-9 -6 -25 -35 -35 -65 -10 -30 -28 -73 -39 -96 -17 -34
-22 -38 -32 -24 -11 13 -49 17 -217 19 -217 3 -236 0 -268 -46 -21 -30 -21
-70 0 -78 9 -3 47 4 84 16 80 26 129 29 137 7 9 -23 -74 -173 -131 -237 -28
-32 -82 -75 -120 -98 -37 -22 -71 -47 -74 -55 -10 -26 32 -57 78 -57 38 0 51
8 107 61 70 67 138 158 180 241 37 74 91 90 91 25 0 -43 -30 -136 -60 -188
-35 -61 -79 -86 -149 -86 l-56 0 20 -34 c29 -51 81 -73 138 -59 74 19 130 91
174 227 13 40 23 55 37 55 11 0 27 3 36 6 13 5 15 -5 10 -71 -7 -105 11 -139
102 -184 87 -45 198 -67 333 -69 93 -1 111 2 136 20 31 24 70 94 82 150 8 40
14 40 -100 6 -46 -14 -91 -16 -226 -12 -92 2 -175 8 -185 11 -27 12 -40 55
-40 127 0 69 6 79 53 79 18 0 20 -8 20 -77 0 -58 4 -81 17 -92 37 -31 76 36
77 135 0 49 3 55 27 61 14 4 34 4 43 0 25 -9 13 -80 -21 -133 -33 -49 -34 -62
-5 -62 56 0 116 79 134 176 18 92 -16 121 -109 92 -70 -21 -68 -21 -68 19 0
40 -16 60 -48 60 -32 0 -47 -21 -47 -64 0 -35 -3 -40 -30 -44 -28 -4 -30 -2
-29 28 1 28 -3 33 -30 36 -36 4 -58 -19 -58 -61 0 -26 -3 -27 -37 -23 -49 5
-48 32 3 60 22 13 61 35 89 51 46 27 57 28 215 32 91 1 174 6 184 11 25 10 23
54 -3 68 -14 8 -62 9 -146 4 -148 -8 -185 -2 -169 27 18 33 13 63 -15 90 -28
29 -34 30 -60 15z m-145 -268 c0 -25 -3 -27 -27 -21 -16 4 -42 10 -58 13 -47
9 -18 35 39 35 43 0 46 -2 46 -27z"/>
<path d="M9702 793 c-24 -30 -15 -81 21 -113 25 -23 42 -29 79 -29 26 0 47 4
46 8 0 4 -16 38 -34 76 -29 60 -38 69 -66 71 -20 2 -37 -3 -46 -13z"/>
<path d="M12506 797 c-48 -20 -180 -41 -253 -41 -64 0 -73 -2 -73 -20 0 -33
30 -47 114 -53 77 -6 80 -7 80 -32 0 -26 -1 -26 -82 -26 -77 0 -84 -2 -108
-30 -15 -17 -25 -40 -23 -53 3 -19 10 -22 51 -22 25 0 72 4 102 9 49 8 55 6
55 -10 0 -32 -136 -155 -225 -204 l-83 -46 40 -36 c33 -30 45 -35 75 -30 43 7
104 53 158 118 20 26 42 47 46 47 5 0 11 -75 12 -166 l3 -165 39 -3 c28 -3 45
2 59 17 12 12 25 17 30 11 6 -5 40 0 83 12 46 14 117 24 194 28 105 4 138 1
257 -24 75 -16 150 -29 168 -28 37 2 110 73 110 107 0 20 -7 22 -71 22 -39 0
-131 3 -205 6 l-133 7 0 45 0 46 91 3 c86 3 92 4 96 26 3 27 -13 33 -114 37
-65 3 -68 4 -68 29 0 25 3 27 97 36 79 8 97 13 95 26 -5 26 -75 34 -286 30
-193 -4 -199 -5 -218 -29 -30 -37 -19 -48 45 -43 127 9 130 8 134 -19 5 -35
-15 -44 -82 -37 -54 5 -60 3 -78 -22 -34 -49 -18 -60 77 -52 l85 8 0 -43 c0
-53 -15 -59 -134 -57 -83 1 -88 0 -117 -30 -17 -17 -34 -30 -37 -30 -10 0 -7
234 2 249 7 11 12 11 23 -2 17 -22 53 -21 53 1 0 9 -20 45 -43 80 -23 35 -41
71 -39 80 2 11 18 19 45 22 49 7 68 17 68 37 0 26 -32 47 -74 47 -39 0 -41 2
-41 32 0 27 6 34 42 48 50 20 68 47 52 78 -12 23 -51 26 -94 9z"/>
<path d="M1416 781 c-15 -15 -17 -54 -12 -349 2 -183 6 -343 9 -356 8 -41 43
-48 134 -30 44 10 157 20 251 23 154 6 223 3 503 -23 106 -10 107 -9 104 283
-1 129 4 266 10 305 8 49 8 76 0 91 -23 43 -43 45 -293 31 -258 -14 -496 -3
-582 26 -57 20 -103 20 -124 -1z m829 -110 c22 -7 36 -21 40 -37 4 -14 5 -119
2 -234 -3 -154 -7 -213 -18 -225 -12 -16 -54 -18 -361 -18 -308 0 -349 2 -366
18 -18 16 -19 37 -19 230 0 238 3 250 73 267 57 13 611 12 649 -1z"/>
<path d="M1617 601 c-21 -27 -29 -76 -12 -76 6 0 58 5 117 11 116 12 137 6
137 -37 0 -41 -24 -50 -104 -42 -70 7 -73 6 -95 -22 -42 -54 -33 -60 80 -56
l103 4 2 -26 c6 -51 -8 -58 -126 -58 -125 0 -147 -9 -142 -62 3 -31 5 -32 45
-29 23 1 162 3 309 3 261 0 306 5 306 34 0 36 -37 49 -134 49 -110 0 -132 12
-127 67 l3 33 81 5 c86 7 122 24 102 49 -8 10 -37 14 -93 14 -85 0 -105 9
-105 47 0 40 20 48 122 48 106 0 125 9 88 45 -21 22 -31 23 -279 24 l-258 1
-20 -26z"/>
<path d="M2091 349 c-40 -34 -35 -44 25 -44 60 0 106 50 62 67 -30 11 -51 6
-87 -23z"/>
<path d="M4149 774 c-27 -30 -30 -82 -4 -105 10 -9 38 -21 62 -28 61 -16 177
-19 177 -5 0 6 -37 45 -82 87 -88 82 -115 91 -153 51z"/>
<path d="M7521 782 c-23 -16 -23 -21 -17 -131 8 -134 2 -147 -62 -147 l-42 0
4 97 4 96 -30 17 c-27 15 -30 14 -44 -5 -9 -11 -16 -42 -16 -68 0 -26 -11 -80
-26 -120 -38 -109 -32 -115 106 -106 l110 8 0 -106 c0 -126 -8 -138 -85 -138
-60 0 -68 13 -57 94 6 47 5 52 -22 70 -27 18 -29 18 -46 -4 -10 -12 -21 -46
-25 -75 -3 -29 -16 -73 -27 -97 -28 -58 -28 -89 2 -108 19 -13 32 -14 71 -4
66 17 402 17 459 0 37 -11 50 -11 73 0 41 20 53 66 28 107 -14 23 -20 55 -21
112 -1 91 -6 104 -40 104 -38 0 -47 -20 -50 -111 l-3 -83 -68 0 -69 0 0 115 0
116 93 -4 c77 -3 96 0 113 15 24 22 25 42 4 82 -10 19 -15 60 -15 111 0 60 -5
85 -16 95 -13 10 -19 10 -32 0 -11 -10 -15 -35 -15 -95 0 -73 -3 -84 -24 -99
-13 -9 -38 -16 -57 -16 -44 0 -50 20 -41 132 9 101 0 125 -52 147 -43 18 -38
18 -65 -1z"/>
<path d="M12637 774 c-15 -23 -15 -37 -5 -121 20 -151 10 -144 189 -144 83 0
165 -4 180 -9 23 -7 33 -4 53 16 20 21 27 44 37 134 15 129 9 144 -58 138 -72
-7 -291 -5 -335 4 -39 8 -45 6 -61 -18z m339 -83 c15 -16 16 -55 2 -83 -10
-18 -23 -20 -109 -20 -107 0 -122 7 -122 58 0 50 15 58 121 58 60 0 100 -5
108 -13z"/>
<path d="M4521 766 c-30 -24 -30 -24 -22 -109 4 -47 10 -131 14 -187 9 -133
20 -146 100 -120 70 22 179 23 238 2 62 -22 111 -20 137 5 18 18 21 35 21 122
0 56 5 131 12 167 10 59 10 70 -6 95 -17 25 -23 27 -68 21 -27 -4 -100 -9
-162 -13 -94 -4 -117 -3 -132 11 -10 9 -37 19 -60 23 -33 5 -47 2 -72 -17z
m360 -133 c23 -14 24 -20 17 -75 -12 -100 -20 -106 -140 -106 -65 0 -107 4
-115 12 -17 17 -17 162 1 173 39 24 196 22 237 -4z"/>
<path d="M8627 750 c-15 -14 -17 -29 -11 -87 6 -67 5 -71 -23 -100 -17 -17
-50 -40 -75 -51 -30 -13 -44 -26 -44 -40 0 -18 7 -20 57 -20 115 0 178 47 191
143 8 64 19 77 61 77 45 0 54 -13 63 -94 4 -37 11 -76 17 -86 8 -15 3 -19 -25
-25 -18 -5 -69 -9 -112 -9 -89 -2 -99 -6 -122 -50 -16 -30 -15 -32 6 -37 15
-4 20 -12 16 -24 -5 -14 10 -26 63 -52 38 -19 67 -40 65 -46 -6 -20 -144 -89
-214 -108 -38 -10 -68 -25 -72 -35 -10 -26 33 -54 83 -53 52 0 175 47 242 92
27 19 52 34 55 33 3 0 45 -32 92 -71 90 -77 139 -107 172 -107 11 0 45 19 74
43 57 45 89 92 77 111 -4 6 -45 19 -91 29 -94 21 -248 67 -260 78 -4 4 2 26
14 49 21 41 23 93 5 132 -6 15 -2 16 38 9 94 -19 141 -13 181 22 41 36 68 100
49 118 -8 8 -27 3 -67 -17 -63 -32 -127 -36 -164 -11 -23 17 -24 22 -18 95 6
73 5 78 -19 93 -21 14 -32 15 -66 5 -40 -12 -139 -10 -193 5 -19 5 -33 2 -45
-11z m203 -371 c13 -25 13 -33 2 -52 -7 -11 -17 -10 -50 7 -23 12 -59 25 -81
29 -49 9 -44 14 21 25 81 14 97 12 108 -9z"/>
<path d="M8175 722 c-40 -34 -29 -77 24 -100 62 -26 254 -21 254 8 0 9 -186
101 -227 111 -15 4 -32 -3 -51 -19z"/>
<path d="M10959 720 c-68 -24 -101 -64 -82 -99 17 -31 40 -34 101 -17 63 19
222 37 243 29 11 -4 14 -44 14 -167 0 -154 -1 -161 -23 -173 -16 -9 -81 -11
-216 -7 -194 5 -194 5 -225 -21 -33 -29 -71 -95 -71 -126 0 -48 60 -58 137
-24 99 43 208 56 423 50 207 -6 250 -13 425 -67 75 -24 92 -26 127 -15 45 13
122 90 133 132 13 54 9 55 -192 62 -103 4 -224 10 -268 13 l-81 6 -7 69 c-10
98 0 255 18 266 8 5 81 9 163 9 139 0 150 2 156 21 3 11 1 30 -5 41 -9 18 -28
21 -202 27 -106 4 -246 3 -311 -3 -72 -6 -132 -6 -152 -1 -43 13 -57 12 -105
-5z"/>
<path d="M6837 709 c-59 -31 -88 -119 -41 -123 36 -2 42 -2 80 7 l36 8 -6 -54
c-8 -64 -52 -150 -96 -187 -17 -14 -56 -40 -86 -57 -30 -17 -57 -38 -61 -47
-9 -24 10 -52 46 -67 46 -19 82 0 158 80 l63 68 0 -94 c0 -114 7 -123 79 -100
36 11 76 14 128 11 51 -4 79 -1 85 7 15 20 25 239 11 255 -8 10 -39 15 -103
15 -121 0 -161 8 -153 30 4 9 10 46 13 82 7 77 -3 72 160 82 62 3 113 11 117
18 18 28 -8 55 -60 63 -86 13 -348 15 -370 3z m301 -354 c14 -14 17 -91 4
-111 -5 -8 -26 -16 -46 -20 -74 -12 -113 76 -54 122 30 24 77 28 96 9z"/>
<path d="M3356 593 c-12 -12 -16 -27 -12 -41 3 -12 8 -95 12 -184 3 -90 7
-174 10 -187 7 -32 44 -39 110 -19 75 22 172 21 244 -4 92 -31 97 -25 97 154
0 79 4 166 9 192 14 83 9 86 -209 89 -104 1 -201 6 -216 10 -19 6 -32 3 -45
-10z m327 -111 c14 -15 5 -186 -11 -207 -8 -9 -37 -12 -101 -10 l-90 3 -3 99
c-2 54 -1 105 2 113 7 18 185 19 203 2z"/>
<path d="M4242 576 c-15 -6 -61 -9 -105 -6 -89 6 -118 -5 -161 -56 -54 -64
-23 -106 57 -78 25 9 74 17 109 18 l63 3 0 -105 c0 -93 -4 -113 -30 -170 -34
-74 -33 -96 5 -118 24 -13 32 -12 87 13 37 17 89 55 134 99 86 82 100 103 82
123 -13 17 -29 13 -95 -28 -27 -16 -54 -29 -61 -29 -18 0 -14 75 12 185 20 90
21 103 7 128 -17 31 -60 40 -104 21z"/>
<path d="M8088 535 c-48 -18 -80 -90 -51 -114 14 -12 29 -10 88 9 40 13 88 22
108 20 l36 -4 -3 -57 c-6 -111 -25 -199 -52 -239 -37 -55 -42 -100 -15 -128
29 -28 78 -28 123 0 79 48 228 242 209 272 -11 18 -22 12 -90 -42 -60 -48 -94
-64 -93 -45 0 10 40 240 48 277 10 47 -15 56 -160 57 -71 0 -138 -3 -148 -6z"/>
<path d="M4559 260 c-47 -63 -116 -129 -179 -171 -59 -39 -56 -51 10 -44 72 9
193 70 252 127 61 58 69 85 36 118 -41 41 -72 33 -119 -30z"/>
<path d="M4846 294 c-18 -20 -18 -22 26 -79 57 -74 195 -203 224 -210 28 -7
90 17 114 44 28 32 34 66 12 73 -58 19 -155 74 -229 130 -88 67 -117 75 -147
42z"/>
</g>
</svg>
