<?xml version="1.0" encoding="UTF-8"?>
<!DOCTYPE svg PUBLIC "-//W3C//DTD SVG 1.1//EN" "http://www.w3.org/Graphics/SVG/1.1/DTD/svg11.dtd">
<svg version="1.1" xmlns="http://www.w3.org/2000/svg" xmlns:xlink="http://www.w3.org/1999/xlink" x="0" y="0" width="400" height="400" viewBox="0, 0, 400, 400">
  <g id="Layer_1">
    <g>
      <path d="M197.992,59.286 C197.706,62.143 197.516,71.191 197.706,79.381 L197.992,94.143 L215.802,94.048 L233.516,93.953 L233.516,186.429 L233.516,279 L253.04,279 L272.468,279 L272.754,186.714 L273.04,94.524 L290.278,94.238 L307.516,93.953 L307.516,73.953 L307.516,53.953 L253.135,53.953 L198.659,53.953 L197.992,59.286 z" fill="#000000"/>
      <path d="M96.564,193.953 L96.564,279 L133.992,279 L171.516,279 L171.516,264.524 L171.516,249.953 L149.992,249.953 L128.563,249.953 L128.563,227 L128.563,203.953 L147.516,203.953 L166.563,203.953 L166.563,190.524 L166.563,177 L147.516,177 L128.563,177 L128.563,157.476 L128.563,137.953 L148.563,137.953 L168.563,137.953 L168.563,123.476 L168.563,109 L132.563,109 L96.564,109 L96.564,193.953 z" fill="#000000"/>
      <path d="M182.468,185.762 C182.468,257.191 182.373,263.095 180.563,271.667 C176.468,291.667 166.278,302.714 146.278,308.81 C140.659,310.619 131.421,312.143 99.992,316.619 L96.944,317 L94.468,331.476 C93.04,339.476 92.183,346.048 92.564,346.048 C92.944,346.048 98.564,344.714 105.135,343.095 C116.944,340.143 124.944,338.619 143.992,335.381 C184.373,328.619 212.944,302.238 219.421,265.572 C220.659,258.905 220.849,185.762 219.897,146.81 L219.23,122.143 L214.563,119.667 C207.325,115.857 187.23,109 183.135,109 C182.754,109 182.468,143.572 182.468,185.762 z" fill="#000000"/>
    </g>
  </g>
</svg>
