<?xml version="1.0" encoding="UTF-8" standalone="no"?>
<svg
   xmlns:svg="http://www.w3.org/2000/svg"
   xmlns="http://www.w3.org/2000/svg"
   version="1.1"
   id="Layer_1"
   x="0px"
   y="0px"
   width="800"
   height="500"
   viewBox="0 0 800 500"
   xml:space="preserve"><g
     id="g3"
     transform="matrix(0.99183658,0,0,0.99183658,20.622508,18.368578)"><g
       id="g5"><path
         d="m 159.391,53.109 c -53.803,0 -98.368,41.189 -105.312,94.406 l 210.625,0 C 257.754,94.298 213.197,53.109 159.391,53.109 m -71.864,69.527 c 13.702,-26.531 40.757,-44.65 71.863,-44.65 31.104,0 58.159,18.119 71.861,44.65 l -143.724,0 z m 548.399,118.054 0,-237.344 -24.882,0 0,262.221 153.959,0 0,-24.877 -129.077,0 z M 582.824,3.346 l -24.888,0 0,65.782 C 528.591,27.373 480.074,0 425.251,0 369.572,0 320.374,28.215 291.18,71.075 262.479,28.217 214.137,0 159.391,0 71.503,0 -0.003,72.678 -0.003,162.011 c 0,89.34 71.506,162.017 159.394,162.017 54.746,0 103.085,-28.226 131.783,-71.09 29.194,42.876 78.398,71.09 134.077,71.09 54.823,0 103.34,-27.373 132.686,-69.135 l 0,63.783 207.066,0 0,-24.883 -182.179,0 0,-290.447 z M 425.251,299.145 c -52.721,0 -98.475,-29.938 -121.435,-73.639 l -25.379,0 c -22.508,43.701 -67.362,73.639 -119.047,73.639 -74.169,0 -134.509,-61.521 -134.509,-137.134 0,-75.612 60.34,-137.128 134.509,-137.128 64.65,0 118.777,46.746 131.611,108.819 13.09,-62.073 68.302,-108.819 134.249,-108.819 75.655,0 137.204,61.516 137.204,137.128 0.001,75.614 -61.548,137.134 -137.203,137.134 m 0,-246.036 c -60.094,0 -108.98,48.849 -108.98,108.902 0,4.653 0.326,9.231 0.896,13.732 l -263.186,0 c 6.615,53.587 51.346,95.176 105.41,95.176 35.46,0 66.795,-17.966 86.073,-45.413 l -32.937,0 c -14.264,12.765 -32.816,20.535 -53.137,20.535 -31.398,0 -58.646,-18.476 -72.222,-45.417 l 144.443,0 91.754,0 C 339,241.67 378.761,270.92 425.25,270.92 c 60.095,0 108.981,-48.855 108.981,-108.908 10e-4,-60.054 -48.885,-108.903 -108.98,-108.903 m 0,192.932 c -46.369,0 -84.097,-37.697 -84.097,-84.03 0,-46.328 37.728,-84.025 84.097,-84.025 46.37,0 84.095,37.697 84.095,84.025 0,46.332 -37.725,84.03 -84.095,84.03"
         id="path13"
         style="fill:#c1d72c;fill-opacity:1" /><path
         style="fill:#8ec1ec;fill-opacity:1"
         d="m 51.956,423.521 0,4.98 -28.544,0 0,22.904 31.783,0 0,4.979 -37.26,0 0,-58.752 35.931,0 0,4.98 -30.454,0 0,20.909 z"
         id="path16" /><path
         d="m 66.563,428.835 c 0,-2.817 -0.416,-8.797 -0.416,-10.784 l 4.98,0 c 0.08,2.818 0.166,5.972 0.332,6.715 l 0.249,0 c 1.993,-4.232 6.887,-7.716 13.112,-7.716 11.946,0 14.604,8.134 14.604,16.519 l 0,22.818 -4.98,0 0,-22.572 c 0,-6.228 -1.74,-12.281 -9.624,-12.281 -7.388,0 -13.281,5.142 -13.281,15.685 l 0,19.169 -4.977,0 0,-27.553 z"
         id="path17"
         style="fill:#8ec1ec;fill-opacity:1" /><path
         d="m 145.646,450.744 c -3.736,4.483 -8.63,6.639 -14.105,6.639 -11.783,0 -20.171,-8.469 -20.171,-20.167 0,-11.702 8.388,-20.168 20.171,-20.168 5.558,0 10.538,2.414 14.271,6.645 l -3.982,2.982 c -2.904,-3.149 -6.309,-5.143 -10.289,-5.143 -9.378,0 -15.188,7.051 -15.188,15.684 0,8.628 5.811,15.682 15.188,15.682 4.146,0 7.72,-2.155 10.289,-5.311 l 3.816,3.157 z"
         id="path19"
         style="fill:#8ec1ec;fill-opacity:1" /><path
         d="m 165.063,468.253 c -1.91,4.897 -5.065,8.05 -10.541,8.05 -1.657,0 -3.315,-0.335 -4.896,-0.749 l 0.498,-4.65 c 1.412,0.42 2.987,0.921 4.481,0.921 3.651,0 5.232,-3.403 6.392,-6.389 l 3.485,-8.889 -15.604,-38.5 5.561,0 12.7,32.282 12.364,-32.282 5.307,0 -19.747,50.206 z"
         id="path21"
         style="fill:#8ec1ec;fill-opacity:1" /><path
         d="m 225.642,450.744 c -3.733,4.483 -8.628,6.639 -14.108,6.639 -11.78,0 -20.165,-8.469 -20.165,-20.167 0,-11.702 8.385,-20.168 20.165,-20.168 5.561,0 10.538,2.414 14.277,6.645 l -3.985,2.982 c -2.904,-3.149 -6.309,-5.143 -10.292,-5.143 -9.375,0 -15.186,7.051 -15.186,15.684 0,8.628 5.811,15.682 15.186,15.682 4.152,0 7.717,-2.155 10.292,-5.311 l 3.816,3.157 z"
         id="path23"
         style="fill:#8ec1ec;fill-opacity:1" /><path
         id="path25"
         d="m 235.101,393.64999 4.979,0 0,62.74101 -4.979,0 z"
         style="fill:#8ec1ec;fill-opacity:1" /><path
         d="m 273.022,417.049 c 11.786,0 20.168,8.466 20.168,20.168 0,11.7 -8.382,20.165 -20.168,20.165 -11.784,0 -20.162,-8.465 -20.162,-20.165 0,-11.702 8.378,-20.168 20.162,-20.168 m 0,35.85 c 9.378,0 15.19,-7.054 15.19,-15.682 0,-8.629 -5.812,-15.684 -15.19,-15.684 -9.378,0 -15.188,7.054 -15.188,15.684 0,8.628 5.811,15.682 15.188,15.682"
         id="path27"
         style="fill:#8ec1ec;fill-opacity:1" /><path
         d="m 304.061,418.05 4.977,0 0,6.716 0.169,0 c 3.069,-5.306 9.624,-7.717 15.349,-7.717 11.786,0 20.162,8.466 20.162,20.168 0,11.7 -8.376,20.165 -20.162,20.165 -5.725,0 -12.279,-2.407 -15.349,-7.714 l -0.169,0 0,25.637 -4.977,0 0,-57.255 z m 20.494,34.849 c 9.378,0 15.191,-7.054 15.191,-15.682 0,-8.629 -5.813,-15.684 -15.191,-15.684 -9.043,0 -16.016,7.054 -16.016,15.684 0,8.628 6.973,15.682 16.016,15.682"
         id="path29"
         style="fill:#8ec1ec;fill-opacity:1" /><path
         d="m 390.528,449.169 c -3.903,5.809 -9.791,8.21 -16.598,8.21 -11.703,0 -19.421,-8.377 -19.421,-20.244 0,-11.451 7.967,-20.086 19.172,-20.086 11.786,0 18.006,9.049 18.006,17.932 l 0,3.483 -32.194,0 c 0,4.145 2.903,14.435 14.523,14.435 5.058,0 10.372,-2.653 12.86,-6.805 l 3.652,3.075 z m -3.817,-15.19 c 0,-6.805 -5.894,-12.448 -13.275,-12.448 -10.873,0 -13.942,10.454 -13.942,12.448 l 27.217,0 z"
         id="path31"
         style="fill:#8ec1ec;fill-opacity:1" /><path
         d="m 437.164,449.665 -0.164,0 c -3.069,5.311 -9.63,7.719 -15.354,7.719 -11.787,0 -20.168,-8.466 -20.168,-20.166 0,-11.703 8.381,-20.169 20.168,-20.169 5.724,0 12.284,2.414 15.354,7.716 l 0.164,0 0,-31.115 4.979,0 0,62.739 -4.979,0 0,-6.724 z m -15.518,-28.132 c -9.379,0 -15.191,7.054 -15.191,15.685 0,8.627 5.812,15.681 15.191,15.681 9.043,0 16.016,-7.054 16.016,-15.681 0,-8.631 -6.973,-15.685 -16.016,-15.685"
         id="path33"
         style="fill:#8ec1ec;fill-opacity:1" /><path
         d="m 458.491,399.123 c 2.076,0 3.731,1.662 3.731,3.738 0,2.073 -1.655,3.735 -3.731,3.735 -2.076,0 -3.736,-1.662 -3.736,-3.735 0,-2.076 1.66,-3.738 3.736,-3.738 m -2.491,18.925 4.979,0 0,38.34 -4.979,0 0,-38.34 z"
         id="path35"
         style="fill:#8ec1ec;fill-opacity:1" /><path
         d="m 505.709,440.289 c 0,7.467 0.166,11.698 0.747,16.099 l -4.647,0 c -0.335,-1.912 -0.498,-4.068 -0.498,-6.222 l -0.17,0 c -2.817,4.891 -6.973,7.213 -13.441,7.213 -6.561,0 -13.529,-3.234 -13.529,-11.365 0,-11.701 13.699,-12.863 21.25,-12.863 l 5.807,0 0,-2.322 c 0,-6.642 -4.645,-9.294 -10.789,-9.294 -4.479,0 -8.296,1.408 -11.701,4.312 l -2.903,-3.402 c 3.651,-3.483 9.624,-5.392 14.604,-5.392 9.295,0 15.271,4.149 15.271,13.855 l 0,9.381 z m -9.96,-3.157 c -8.302,0 -16.597,2.076 -16.597,8.629 0,4.732 4.564,7.14 8.717,7.14 10.623,0 13.357,-6.807 13.357,-13.195 l 0,-2.574 -5.477,0 z"
         id="path37"
         style="fill:#8ec1ec;fill-opacity:1" /><path
         d="m 560.228,417.049 c 11.786,0 20.162,8.466 20.162,20.168 0,11.7 -8.376,20.165 -20.162,20.165 -11.783,0 -20.168,-8.465 -20.168,-20.165 0,-11.702 8.384,-20.168 20.168,-20.168 m 0,35.85 c 9.378,0 15.191,-7.054 15.191,-15.682 0,-8.629 -5.813,-15.684 -15.191,-15.684 -9.384,0 -15.188,7.054 -15.188,15.684 -10e-4,8.628 5.804,15.682 15.188,15.682"
         id="path39"
         style="fill:#8ec1ec;fill-opacity:1" /><path
         d="m 595.166,422.525 -7.973,0 0,-4.478 7.973,0 0,-12.532 c 0,-9.873 6.552,-12.867 11.448,-12.867 2.405,0 4.232,0.338 5.728,1.001 l -1,4.315 c -1.162,-0.58 -2.568,-0.832 -4.479,-0.832 -4.564,0 -6.724,3.321 -6.724,10.204 l 0,10.711 8.966,0 0,4.478 -8.966,0 0,33.863 -4.974,0 0,-33.863 z"
         id="path41"
         style="fill:#8ec1ec;fill-opacity:1" /><path
         style="fill:#8ec1ec;fill-opacity:1"
         d="m 641.55,456.384 0,-58.752 5.48,0 0,53.773 27.382,0 0,4.979 z"
         id="path43" /><path
         d="m 685.78,399.123 c 2.07,0 3.733,1.662 3.733,3.738 0,2.073 -1.663,3.735 -3.733,3.735 -2.073,0 -3.737,-1.662 -3.737,-3.735 0,-2.076 1.664,-3.738 3.737,-3.738 m -2.489,18.925 4.978,0 0,38.34 -4.978,0 0,-38.34 z"
         id="path45"
         style="fill:#8ec1ec;fill-opacity:1" /><path
         d="m 706.028,422.525 -7.97,0 0,-4.478 7.97,0 0,-12.532 c 0,-9.873 6.552,-12.867 11.451,-12.867 2.402,0 4.232,0.338 5.724,1.001 l -0.999,4.315 c -1.159,-0.58 -2.568,-0.832 -4.479,-0.832 -4.564,0 -6.718,3.321 -6.718,10.204 l 0,10.711 8.96,0 0,4.478 -8.96,0 0,33.863 -4.979,0 0,-33.863 z"
         id="path47"
         style="fill:#8ec1ec;fill-opacity:1" /><path
         d="m 762.454,449.169 c -3.903,5.809 -9.793,8.21 -16.597,8.21 -11.701,0 -19.421,-8.377 -19.421,-20.244 0,-11.451 7.97,-20.086 19.169,-20.086 11.786,0 18.012,9.049 18.012,17.932 l 0,3.483 -32.195,0 c 0,4.145 2.904,14.435 14.519,14.435 5.057,0 10.372,-2.653 12.86,-6.805 l 3.653,3.075 z m -3.813,-15.19 c 0,-6.805 -5.894,-12.448 -13.281,-12.448 -10.867,0 -13.938,10.454 -13.938,12.448 l 27.219,0 z"
         id="path49"
         style="fill:#8ec1ec;fill-opacity:1" /></g></g></svg>