<?xml version="1.0" standalone="no"?>
<!DOCTYPE svg PUBLIC "-//W3C//DTD SVG 20010904//EN"
 "http://www.w3.org/TR/2001/REC-SVG-20010904/DTD/svg10.dtd">
<svg version="1.0" xmlns="http://www.w3.org/2000/svg"
 width="464.145360pt" height="186.520360pt" viewBox="0 0 464.145360 186.520360"
 preserveAspectRatio="xMidYMid meet">
<metadata>
Created by Potrace Professional 1.1m
</metadata>
<g transform="translate(-70.354640,243.000000) rotate(-360.00) scale(0.095238,-0.095238)"
fill="#000000" stroke="none">
<path d="M1332 2502 c-86 -201 -133 -464 -120 -679 6 -100 33 -262 53 -311 5
-14 -9 -19 -77 -29 -173 -25 -343 -117 -418 -227 -20 -28 -33 -54 -31 -56 2
-2 34 15 69 39 164 113 363 112 551 0 34 -20 138 -111 232 -201 95 -90 201
-186 237 -213 141 -105 288 -176 445 -212 117 -27 332 -27 424 1 l67 20 -6 75
c-16 183 -115 346 -290 480 -85 64 -309 175 -438 217 -125 40 -286 71 -447 86
-71 6 -130 13 -132 15 -3 2 3 34 13 70 48 189 45 445 -9 681 -23 102 -86 294
-97 294 -2 0 -14 -23 -26 -50z"/>
<path d="M2159 2299 c-149 -25 -275 -86 -372 -181 -102 -100 -180 -302 -180
-465 l0 -60 76 7 c196 19 347 84 464 200 115 116 178 257 199 444 l7 66 -71
-1 c-40 -1 -95 -5 -123 -10z"/>
<path d="M3038 2209 c-63 -23 -133 -88 -162 -153 -25 -55 -25 -61 -25 -365 0
-357 4 -383 74 -462 72 -79 129 -99 284 -100 125 0 128 0 198 37 85 43 134
105 152 192 6 30 10 119 9 197 l-3 141 -194 0 -195 0 0 -84 0 -84 95 -5 94 -6
4 -42 c4 -58 -15 -115 -47 -141 -23 -18 -43 -21 -115 -21 -80 0 -88 2 -118 29
-18 17 -35 46 -39 66 -3 20 -5 155 -3 302 l3 266 39 36 c38 34 43 36 124 36
100 0 135 -15 169 -71 13 -22 25 -41 26 -43 2 -3 158 78 172 89 10 8 -38 82
-81 125 -64 64 -114 78 -280 77 -92 0 -152 -6 -181 -16z"/>
<path d="M3714 2209 c-4 -4 -7 -245 -7 -536 l0 -528 229 0 c281 0 317 7 397
87 62 63 88 130 87 232 0 70 -31 153 -72 189 -28 25 -28 39 3 68 46 43 73 122
67 200 -9 129 -67 217 -175 267 -43 20 -72 22 -284 26 -130 2 -240 0 -245 -5z
m471 -218 c29 -29 36 -44 36 -79 0 -24 -7 -58 -16 -76 -25 -47 -71 -61 -194
-61 l-105 0 0 126 0 126 122 0 122 0 35 -36z m-27 -411 c46 -24 63 -55 63
-118 0 -108 -46 -139 -210 -139 l-105 0 0 137 0 136 111 0 c78 0 120 -5 141
-16z"/>
<path d="M4585 2209 c-4 -4 -7 -246 -7 -536 l0 -529 97 3 97 3 0 530 0 530
-89 3 c-50 2 -94 0 -98 -4z"/>
<path d="M4988 1680 l0 -536 97 3 97 3 3 223 2 223 179 0 178 0 0 89 0 90
-178 0 -179 0 0 125 0 126 213 3 212 3 0 89 0 89 -312 3 -312 3 0 -536z"/>
</g>
</svg>
