<?xml version="1.0" encoding="UTF-8"?>
<!DOCTYPE svg PUBLIC "-//W3C//DTD SVG 1.1//EN" "http://www.w3.org/Graphics/SVG/1.1/DTD/svg11.dtd">
<svg version="1.1" xmlns="http://www.w3.org/2000/svg" xmlns:xlink="http://www.w3.org/1999/xlink" x="0" y="0" width="400" height="400" viewBox="0, 0, 400, 400">
  <g id="Layer_1">
    <g>
      <path d="M92.831,111.957 C91.974,114.243 92.546,114.529 99.403,115.481 C107.022,116.529 113.498,118.91 119.974,123.005 C128.641,128.434 128.069,129.672 119.212,125.1 C111.022,120.91 105.498,119.481 92.927,117.957 C88.641,117.386 87.689,117.577 87.117,119.1 C86.165,121.577 87.593,122.148 96.831,122.815 C105.593,123.386 117.689,127.005 122.927,130.529 C124.641,131.672 125.308,132.434 124.355,132.148 C123.498,131.862 119.689,130.624 115.879,129.481 C110.831,127.862 105.308,127.1 95.593,126.719 L82.165,126.148 L82.831,130.053 C83.212,132.243 83.498,135.196 83.498,136.719 L83.498,139.481 L91.022,139.481 C99.498,139.481 111.974,141.767 118.069,144.434 C126.355,148.053 132.546,155.481 132.546,161.957 C132.546,164.434 132.641,164.434 139.498,164.434 C146.355,164.434 146.546,164.434 146.546,161.957 C146.546,155.481 152.641,148.053 160.927,144.434 C167.022,141.767 179.498,139.481 187.974,139.481 L195.498,139.481 L195.498,136.148 C195.498,134.243 195.784,131.291 196.165,129.481 L196.831,126.148 L183.403,126.719 C165.117,127.481 153.689,131.1 143.784,139.196 L139.593,142.624 L136.45,137.1 C128.165,122.434 114.546,112.91 99.212,111.005 C94.45,110.434 93.403,110.624 92.831,111.957 z" fill="#000000"/>
      <path d="M204.546,128.148 C204.546,129.291 204.736,132.243 205.117,134.719 L205.688,139.196 L217.403,139.767 C230.736,140.434 239.212,142.91 245.784,147.862 C250.546,151.576 254.45,157.672 254.45,161.767 C254.45,164.434 254.546,164.434 261.022,164.434 C267.307,164.434 267.498,164.434 267.498,161.957 C267.498,154.148 275.307,146.243 286.641,142.529 C291.974,140.815 297.022,140.053 305.212,139.672 L316.545,139.196 L316.545,136.624 C316.545,135.196 316.831,132.243 317.212,130.053 L317.784,126.148 L305.403,126.815 C286.736,127.672 273.403,132.148 264.546,140.434 C262.736,142.148 261.212,143.481 261.022,143.481 C260.831,143.481 259.117,142.053 257.212,140.243 C248.355,132.148 235.022,127.672 216.736,126.815 C204.927,126.243 204.546,126.243 204.546,128.148 z" fill="#000000"/>
      <path d="M132.069,178.91 C130.45,184.529 126.546,188.815 120.45,192.053 C115.403,194.624 103.308,197.291 93.022,198.053 L83.403,198.719 L83.689,204.91 L83.974,211.005 L92.546,210.719 C110.45,210.148 125.974,205.195 135.022,197.291 L139.498,193.291 L143.784,197.195 C152.26,205.005 168.355,210.053 186.546,210.719 L195.022,211.005 L195.308,204.91 L195.593,198.815 L186.546,198.148 C162.736,196.434 150.26,190.338 146.927,178.719 L145.403,173.481 L139.498,173.481 L133.593,173.481 L132.069,178.91 z" fill="#000000"/>
      <path d="M254.546,175.767 C254.546,178.624 251.022,185.195 248.165,187.672 C241.688,193.195 229.593,196.91 214.165,198.148 L205.593,198.815 L204.927,204.053 C204.546,206.91 204.641,209.862 205.022,210.529 C205.593,211.386 208.069,211.576 213.879,211.1 C233.498,209.481 248.355,204.624 256.926,197.1 L260.926,193.672 L264.546,196.91 C269.879,201.767 279.784,206.243 289.974,208.434 C301.498,210.91 315.974,212.148 316.831,210.719 C317.212,210.053 317.212,207.195 316.926,204.148 L316.26,198.719 L307.974,198.148 C291.307,196.815 279.784,193.195 273.212,187.1 C270.165,184.338 267.498,178.815 267.498,175.481 C267.498,173.672 266.831,173.481 261.022,173.481 C254.926,173.481 254.546,173.672 254.546,175.767 z" fill="#000000"/>
      <path d="M235.498,237.481 C233.593,239.386 233.498,240.814 233.498,259.386 C233.498,278.91 233.593,279.386 235.688,280.91 C238.546,282.91 242.45,282.91 245.307,280.91 C247.212,279.576 247.498,278.529 247.498,271.862 L247.498,264.338 L244.736,264.624 C242.26,264.91 241.974,265.386 241.688,269.767 C241.498,272.338 240.927,274.434 240.45,274.434 C239.879,274.434 239.498,268.053 239.498,259.005 C239.498,249.291 239.879,243.481 240.546,243.481 C241.022,243.481 241.498,245.291 241.498,247.481 C241.498,251.291 241.688,251.481 244.546,251.481 L247.498,251.481 L247.498,245.481 C247.498,238.529 245.403,235.481 240.546,235.481 C238.831,235.481 236.641,236.338 235.498,237.481 z" fill="#000000"/>
      <path d="M86.546,255.576 C86.546,273.862 86.45,274.719 84.546,275.195 C83.117,275.576 82.546,276.529 82.546,278.529 C82.546,281.862 83.784,282.91 87.022,282.053 C92.355,280.719 92.546,279.957 92.546,257.386 L92.546,236.434 L89.498,236.434 L86.546,236.434 L86.546,255.576 z" fill="#000000"/>
      <path d="M168.546,259.005 L168.546,281.481 L175.022,281.481 L181.498,281.481 L181.498,278.529 C181.498,275.957 181.117,275.576 178.26,275.291 L175.022,275.005 L174.736,255.767 L174.45,236.434 L171.498,236.434 L168.546,236.434 L168.546,259.005 z" fill="#000000"/>
      <path d="M183.498,239.005 C183.498,241.005 183.974,241.481 185.974,241.481 C187.974,241.481 188.546,241.005 188.546,239.005 C188.546,237.005 187.974,236.434 185.974,236.434 C183.974,236.434 183.498,237.005 183.498,239.005 z" fill="#000000"/>
      <path d="M209.974,237.672 C209.688,238.434 209.593,248.434 209.688,260.053 L209.974,281.005 L212.546,281.005 C214.736,281.005 215.022,280.434 215.498,276.434 L215.974,271.957 L217.307,276.719 C218.355,280.814 218.927,281.481 221.022,281.481 C224.069,281.481 224.069,281.005 221.403,270.624 L219.307,262.434 L221.403,255.576 C223.974,247.1 223.974,247.481 221.022,247.481 C219.022,247.481 218.355,248.243 217.307,251.767 L215.974,255.957 L215.498,246.434 C215.022,237.576 214.831,237.005 212.736,236.624 C211.498,236.529 210.26,236.91 209.974,237.672 z" fill="#000000"/>
      <path d="M283.498,241.957 C283.498,245.005 283.022,247.481 282.546,247.481 C281.974,247.481 281.498,248.624 281.498,249.957 C281.498,251.291 281.974,252.624 282.546,253.005 C283.117,253.386 283.498,258.91 283.498,266.338 C283.498,280.148 283.974,281.481 288.736,281.481 C291.784,281.481 292.45,279.481 289.974,277.481 C288.831,276.529 288.546,273.672 288.546,264.434 C288.546,257.576 288.926,252.338 289.498,251.957 C290.736,251.195 290.831,247.481 289.593,247.481 C289.022,247.481 288.45,245.1 288.26,242.243 C288.069,237.672 287.688,236.91 285.784,236.624 C283.688,236.338 283.498,236.719 283.498,241.957 z" fill="#000000"/>
      <path d="M99.498,247.195 C98.641,247.481 97.403,248.434 96.736,249.291 C95.308,251.1 95.022,260.434 96.45,260.434 C98.831,260.434 100.546,259.005 100.546,256.91 C100.546,255.672 100.927,254.338 101.498,253.957 C102.07,253.576 102.546,254.91 102.546,257.291 C102.546,260.624 101.974,261.672 98.927,263.957 C95.403,266.624 95.403,266.624 95.689,273.672 C96.07,282.053 97.022,283.1 103.784,282.053 L108.546,281.386 L108.546,266.148 C108.546,255.481 108.165,250.338 107.212,249.195 C105.879,247.386 101.784,246.338 99.498,247.195 z M102.546,271.957 C102.546,273.862 102.07,275.481 101.498,275.481 C100.355,275.481 100.07,270.243 101.117,269.1 C102.355,267.957 102.546,268.338 102.546,271.957 z" fill="#000000"/>
      <path d="M112.165,248.148 C111.784,248.529 111.498,257.672 111.498,268.624 C111.498,287.481 111.593,288.338 113.498,289.005 C116.45,289.862 117.498,288.814 117.498,284.91 C117.498,281.767 117.784,281.481 120.546,281.481 C122.831,281.481 123.784,280.91 124.546,278.91 C125.879,275.386 125.784,254.529 124.355,250.624 C123.403,247.672 123.022,247.481 118.069,247.481 C115.212,247.481 112.546,247.767 112.165,248.148 z M119.498,265.005 C119.498,272.529 119.117,276.338 118.546,275.957 C117.974,275.672 117.498,270.624 117.498,264.434 C117.498,257.767 117.879,253.481 118.546,253.481 C119.117,253.481 119.498,257.957 119.498,265.005 z" fill="#000000"/>
      <path d="M129.498,249.386 C128.927,250.434 128.546,253.386 128.546,255.957 C128.546,260.148 128.641,260.434 130.45,259.481 C131.498,258.91 132.546,257.481 132.641,256.338 C132.831,255.1 133.593,253.957 134.26,253.767 C135.117,253.481 135.498,254.624 135.498,257.672 C135.403,261.386 135.022,262.243 132.165,263.957 C128.355,266.434 126.736,271.672 128.069,277.195 C129.022,281.005 129.022,281.005 134.736,281.291 L140.546,281.576 L140.546,266.434 C140.546,257.957 140.069,250.529 139.498,249.386 C138.736,248.053 137.403,247.481 134.546,247.481 C131.593,247.481 130.26,248.053 129.498,249.386 z M135.498,271.481 C135.498,274.243 135.022,276.434 134.546,276.434 C133.403,276.434 133.117,268.243 134.165,267.1 C135.403,265.957 135.498,266.434 135.498,271.481 z" fill="#000000"/>
      <path d="M144.546,264.434 L144.546,281.481 L147.022,281.481 L149.498,281.481 L149.498,267.576 C149.498,248.624 151.403,247.957 151.689,266.719 L151.974,281.005 L154.736,281.291 L157.498,281.576 L157.498,266.529 C157.498,257.957 157.022,250.529 156.45,249.386 C155.593,247.862 154.355,247.481 149.974,247.481 L144.546,247.481 L144.546,264.434 z" fill="#000000"/>
      <path d="M183.498,264.434 L183.498,281.481 L185.974,281.481 L188.546,281.481 L188.546,264.434 L188.546,247.481 L185.974,247.481 L183.498,247.481 L183.498,264.434 z" fill="#000000"/>
      <path d="M193.498,264.529 L193.498,281.576 L195.784,281.291 C197.974,281.005 197.974,280.624 198.26,266.719 C198.45,258.624 198.927,252.434 199.498,252.434 C200.069,252.434 200.546,258.624 200.736,266.719 C201.022,280.624 201.022,281.005 203.212,281.291 L205.498,281.576 L205.498,266.148 C205.498,257.576 205.212,249.957 204.927,249.1 C204.45,247.862 202.927,247.481 198.927,247.481 L193.498,247.481 L193.498,264.529 z" fill="#000000"/>
      <path d="M251.498,249.386 C250.165,251.957 250.165,277.005 251.498,279.576 C252.26,280.91 253.593,281.481 255.974,281.481 C260.926,281.481 262.546,279.386 262.546,272.814 C262.546,267.672 262.355,267.386 260.26,267.672 C258.45,267.957 257.974,268.719 257.688,271.767 C257.212,277.195 255.498,276.338 255.498,270.529 C255.498,265.672 255.593,265.576 258.736,265.291 L261.974,265.005 L262.26,258.243 C262.641,249.481 261.593,247.481 256.546,247.481 C253.593,247.481 252.26,248.053 251.498,249.386 z M257.498,257.005 C257.498,258.91 257.022,260.434 256.546,260.434 C255.974,260.434 255.498,258.91 255.498,257.005 C255.498,255.1 255.974,253.481 256.546,253.481 C257.022,253.481 257.498,255.1 257.498,257.005 z" fill="#000000"/>
      <path d="M266.546,264.434 L266.546,281.481 L269.022,281.481 L271.498,281.481 L271.498,267.005 C271.498,247.862 273.307,247.576 273.688,266.719 L273.974,281.005 L276.546,281.005 L279.022,281.005 L279.307,266.243 C279.403,257.195 279.117,250.719 278.45,249.481 C277.593,247.862 276.355,247.481 271.974,247.481 L266.546,247.481 L266.546,264.434 z" fill="#000000"/>
      <path d="M294.736,248.719 C293.879,249.481 293.498,254.434 293.498,264.434 C293.498,280.434 293.784,281.481 299.117,281.481 C303.307,281.481 304.926,279.291 304.926,273.1 C305.022,268.529 304.736,267.957 302.736,267.672 C300.736,267.386 300.546,267.767 300.546,271.481 C300.546,274.338 300.069,275.481 299.212,275.195 C298.546,275.005 297.974,273.005 297.974,270.434 C297.974,266.148 298.069,265.957 301.498,265.481 L305.022,265.005 L304.926,257.767 C304.926,253.481 304.355,250.053 303.593,249.1 C301.974,247.195 296.45,247.005 294.736,248.719 z M300.355,257.862 C300.165,259.386 299.593,260.624 299.022,260.719 C297.784,261.005 297.117,257.005 297.974,254.719 C298.926,252.338 300.736,254.719 300.355,257.862 z" fill="#000000"/>
      <path d="M308.926,248.814 C308.641,249.481 308.546,257.005 308.736,265.481 C309.022,280.719 309.022,281.005 311.212,281.291 C313.498,281.576 313.498,281.576 313.498,268.053 C313.498,255.576 313.688,254.434 315.498,253.291 C316.641,252.529 317.498,251.005 317.498,249.767 C317.498,247.767 317.022,247.481 313.498,247.481 C311.117,247.481 309.212,248.053 308.926,248.814 z" fill="#000000"/>
    </g>
  </g>
</svg>
