<?xml version="1.0" encoding="UTF-8"?>
<!DOCTYPE svg PUBLIC "-//W3C//DTD SVG 1.1//EN" "http://www.w3.org/Graphics/SVG/1.1/DTD/svg11.dtd">
<svg version="1.1" xmlns="http://www.w3.org/2000/svg" xmlns:xlink="http://www.w3.org/1999/xlink" x="0" y="0" width="400" height="400" viewBox="0, 0, 400, 400">
  <g id="Layer_1">
    <g>
      <path d="M188.607,6.332 C173.273,7.761 163.94,9.285 152.607,12.142 C64.035,34.618 3.178,115.285 6.416,206.237 C8.226,256.237 26.607,299.57 61.083,335.094 C87.083,361.856 117.94,379.665 153.654,388.618 C181.94,395.665 218.321,395.665 246.606,388.618 C295.083,376.522 337.464,345.856 364.606,303.189 C377.368,283.094 387.654,255.856 391.749,231.189 C394.321,215.761 394.321,184.427 391.749,169.189 C386.892,140.332 375.844,112.999 359.368,89.38 C353.273,80.523 352.321,79.38 342.797,68.809 C314.13,36.904 272.511,14.809 228.607,8.237 C218.797,6.809 195.464,5.666 188.607,6.332 z M229.178,16.142 C289.749,25.666 342.035,64.999 368.702,121.189 C381.654,148.523 386.892,174.427 385.844,206.046 C385.273,224.237 383.464,236.808 379.464,250.713 C370.416,282.142 354.987,307.856 331.178,331.761 C314.892,348.046 303.559,356.237 283.845,366.237 C260.321,378.046 240.511,383.57 213.845,385.761 C180.511,388.522 147.749,381.951 116.416,366.237 C98.416,357.094 86.035,348.427 72.321,335.189 C33.845,298.332 14.035,252.237 14.131,199.38 C14.226,158.904 26.607,121.666 50.988,88.713 C57.75,79.57 73.178,63.475 82.702,55.666 C108.13,34.809 143.083,19.57 174.13,15.761 C178.797,15.19 184.226,14.523 186.13,14.332 C192.702,13.475 219.654,14.618 229.178,16.142 z" fill="#000000"/>
      <path d="M146.892,84.428 L134.13,97.285 L134.13,119.189 L134.13,141.189 L111.845,118.999 L89.654,96.713 L80.416,96.713 L71.178,96.713 L71.178,105.475 L71.178,114.237 L92.892,135.951 L114.607,157.666 L93.083,157.666 L71.559,157.666 L59.369,169.951 C52.607,176.713 47.083,182.523 47.178,182.904 C47.178,183.285 68.13,183.666 93.845,183.666 L140.607,183.761 L154.892,198.046 L169.178,212.332 L168.892,223.57 L168.607,234.904 L154.13,220.332 L139.654,205.666 L121.845,205.951 L104.13,206.237 L148.892,250.999 L193.654,295.761 L193.845,195.951 L194.13,96.237 L181.654,83.761 L169.178,71.189 L169.178,122.999 C169.178,151.475 168.797,174.713 168.321,174.713 C167.94,174.713 165.845,172.999 163.845,170.904 L160.13,167.189 L159.845,119.38 L159.654,71.666 L146.892,84.428 z" fill="#000000"/>
      <path d="M216.892,84.428 L204.13,97.285 L204.416,197.094 L204.607,296.999 L250.035,251.57 L295.464,206.237 L277.559,205.951 L259.749,205.666 L244.892,220.427 L230.13,235.189 L230.13,224.237 L230.13,213.285 L244.892,198.523 L259.559,183.666 L306.321,183.666 C332.13,183.666 353.178,183.38 353.178,182.904 C353.178,182.523 347.654,176.713 340.892,169.951 L328.606,157.666 L307.083,157.666 L285.654,157.666 L306.892,136.427 L328.13,115.189 L328.13,105.951 L328.13,96.713 L318.892,96.713 L309.654,96.713 L287.368,118.999 L265.178,141.189 L265.178,119.189 L265.178,97.189 L252.13,84.237 L239.178,71.285 L239.178,119.285 L239.178,167.285 L234.606,171.666 L230.13,176.142 L229.845,123.856 L229.654,71.666 L216.892,84.428 z" fill="#000000"/>
      <path d="M71.178,211.285 C71.178,224.808 78.797,250.523 87.178,265.284 C95.749,280.142 109.083,295.284 122.607,305.475 C131.368,311.951 148.13,320.713 158.607,324.237 C168.035,327.38 184.416,330.713 190.702,330.713 L195.178,330.713 L195.178,317.856 L195.178,304.999 L187.845,304.427 C168.13,302.713 145.368,292.142 129.368,277.284 C113.369,262.427 101.083,239.665 98.035,219.189 C97.464,215.38 96.797,210.713 96.511,208.999 L96.035,205.665 L83.559,205.665 L71.178,205.665 L71.178,211.285 z" fill="#000000"/>
      <path d="M303.749,206.904 C303.559,207.666 302.797,212.046 302.13,216.713 C298.511,243.285 283.845,267.665 261.464,284.713 C255.083,289.57 235.654,299.856 232.226,300.332 C231.368,300.427 227.94,301.189 224.607,302.142 C221.368,303.094 215.368,304.046 211.368,304.427 L204.13,304.999 L204.13,317.951 L204.13,330.999 L212.511,330.332 C217.083,329.951 224.416,328.808 228.702,327.761 C238.892,325.284 254.13,319.761 254.13,318.523 C254.13,318.046 254.511,317.856 254.987,318.142 C255.464,318.427 259.368,316.618 263.654,314.142 C291.083,298.523 312.702,272.332 322.511,242.713 C325.749,232.808 328.225,220.427 328.416,212.618 L328.606,206.237 L316.321,205.951 C307.083,205.761 304.035,205.951 303.749,206.904 z" fill="#000000"/>
      <path d="M293.654,300.523 C289.749,302.904 288.702,304.332 287.178,308.904 C282.797,322.427 300.606,332.999 311.083,323.094 C318.511,316.142 316.797,304.618 307.464,299.856 C304.13,298.142 296.987,298.523 293.654,300.523 z M308.702,303.951 C316.892,311.57 312.13,324.713 301.178,324.713 C293.845,324.713 288.321,318.142 289.464,310.808 C290.321,305.475 295.845,300.713 301.178,300.713 C304.321,300.713 305.94,301.38 308.702,303.951 z" fill="#000000"/>
      <path d="M295.178,312.713 C295.178,319.189 295.464,320.713 296.606,320.713 C297.654,320.713 298.13,319.665 298.13,317.189 C298.13,314.904 298.606,313.665 299.559,313.665 C300.321,313.665 301.845,315.284 302.987,317.189 C304.13,319.094 305.559,320.713 306.13,320.713 C307.559,320.713 307.368,320.046 305.464,317.094 C303.94,314.713 303.94,314.523 305.94,312.618 C308.416,310.427 308.606,309.38 307.083,306.618 C306.225,305.094 304.987,304.713 300.606,304.713 L295.178,304.713 L295.178,312.713 z M304.606,309.189 C304.606,310.713 303.845,311.284 301.368,311.57 C298.416,311.761 298.13,311.57 298.13,309.189 C298.13,306.808 298.416,306.618 301.368,306.904 C303.845,307.094 304.606,307.665 304.606,309.189 z" fill="#000000"/>
    </g>
  </g>
</svg>
