<?xml version="1.0" encoding="UTF-8"?>
<!DOCTYPE svg PUBLIC "-//W3C//DTD SVG 1.1//EN" "http://www.w3.org/Graphics/SVG/1.1/DTD/svg11.dtd">
<svg version="1.1" xmlns="http://www.w3.org/2000/svg" xmlns:xlink="http://www.w3.org/1999/xlink" x="0" y="0" width="236" height="236" viewBox="0, 0, 236, 236">
  <g id="Layer_1">
    <g>
      <path d="M0,118.009 L0,236 L117.991,236 L235.982,236 L235.982,118.009 L235.982,0.018 L117.991,0.018 L0,0.018 L0,118.009 z M44.96,14.846 C49.321,17.067 51.383,20.952 51.78,27.533 C52.493,38.714 47.181,43.948 34.255,44.82 L26.96,45.296 L26.96,51.56 C26.96,60.917 26.881,60.996 18.872,60.996 L11.974,60.996 L11.974,36.89 L11.974,12.785 L27.277,13.181 C36.872,13.419 43.454,14.053 44.96,14.846 z M72,22.459 L72,30.943 L76.758,28.406 C82.943,25.075 88.017,25.551 92.379,29.912 L95.392,32.926 L95.788,47.436 L96.264,62.027 L89.603,62.027 L83.022,62.027 L83.022,51.56 C83.022,38.714 82.15,36.018 78.106,36.018 C73.11,36.018 72,38.873 72,51.243 L72,62.027 L65.498,62.027 L58.995,62.027 L58.995,38.635 C58.995,25.868 59.313,15.005 59.63,14.688 C60.026,14.291 62.96,13.974 66.132,13.974 L72,13.974 L72,22.459 z M168.978,21.586 L168.978,26.978 L172.467,26.978 L176.035,26.978 L176.035,31.974 L176.035,36.97 L172.467,36.97 L168.978,36.97 L168.978,45.533 L168.978,54.018 L172.467,54.018 C175.876,54.018 176.035,54.097 176.035,57.903 C176.035,61.868 175.956,61.868 171.515,62.582 C165.568,63.454 160.731,62.423 158.352,59.886 C156.846,58.221 156.449,55.842 156.132,47.436 C155.815,37.207 155.815,36.97 153.436,36.97 C151.216,36.97 150.978,36.652 150.978,31.974 C150.978,27.375 151.216,26.978 153.436,26.978 C155.418,26.978 155.894,26.423 156.211,23.807 C156.449,21.031 157.242,20.238 162,17.939 C165.013,16.432 167.868,15.401 168.264,15.639 C168.66,15.877 168.978,18.573 168.978,21.586 z M218.22,29.516 C228.687,36.414 228.449,52.67 217.823,59.727 C214.255,62.106 212.669,62.503 206.563,62.503 C198.079,62.423 194.193,60.679 189.991,54.811 C184.599,47.436 186.343,35.859 193.638,30.309 C200.299,25.234 211.242,24.917 218.22,29.516 z M119.656,38.714 L123.304,50.529 L125.524,42.996 C126.713,38.873 128.22,33.56 128.934,31.26 L130.044,26.978 L136.07,26.978 C143.127,26.978 143.127,26.978 139.083,37.763 C137.498,42.044 134.722,49.577 132.898,54.494 C131.154,59.489 129.33,63.93 128.854,64.485 C128.379,64.961 127.982,66.071 127.982,66.943 C127.982,72.335 118.467,76.855 109.824,75.586 C105.304,74.952 105.224,74.793 104.828,70.987 L104.432,67.022 L108.872,67.022 C113.154,67.022 116.96,64.961 116.96,62.74 C116.96,62.185 115.929,59.251 114.581,56.159 C107.207,38.873 103.004,28.644 103.004,27.851 C103.004,27.375 105.938,26.978 109.427,26.978 L115.929,26.978 L119.656,38.714 z M173.894,79.075 C182.22,80.978 183.647,84.467 184.202,104.767 L184.519,113.965 L178.81,113.965 C173.656,113.965 173.101,113.806 172.308,111.428 L171.436,108.89 L169.136,110.872 C160.493,118.406 145.982,114.599 145.982,104.846 C145.982,98.82 148.837,96.679 160.334,94.062 C170.405,91.762 171.991,90.89 169.929,88.432 C168.264,86.37 162.396,86.608 160.255,88.908 C158.828,90.414 157.48,90.652 152.643,90.256 C147.013,89.78 146.854,89.701 147.489,87.084 C147.885,85.657 149.075,83.516 150.185,82.247 C153.674,78.52 165.013,77.014 173.894,79.075 z M163.348,137.04 L166.123,142.035 L167.868,139.815 C168.819,138.546 170.326,136.247 171.277,134.74 C172.942,132.203 173.577,131.965 179.524,131.965 C183.092,131.965 186.026,132.282 186.026,132.679 C186.026,133.075 183.727,136.643 181.03,140.608 C178.255,144.573 176.035,148.3 176.035,148.934 C176.035,149.568 177.7,152.423 179.762,155.278 C184.202,161.383 186.978,165.745 186.978,166.458 C186.978,166.775 183.885,167.013 180.158,167.013 C173.339,167.013 173.26,167.013 170.801,163.286 C169.453,161.225 168.105,158.687 167.709,157.736 C166.678,155.04 165.727,155.674 162.158,161.542 L158.749,167.013 L151.85,167.013 C146.537,167.013 145.031,166.696 145.586,165.745 C146.061,165.031 148.757,160.987 151.771,156.784 C155.022,152.106 156.846,148.538 156.449,147.745 C155.973,147.11 153.515,143.463 150.819,139.736 C148.202,136.088 145.982,132.837 145.982,132.52 C145.982,132.203 149.233,131.965 153.277,131.965 L160.493,131.965 L163.348,137.04 z M177.462,185.727 C181.427,188.661 182.22,191.833 182.854,205.789 L183.489,219.031 L177.938,219.031 C172.942,219.031 172.229,218.714 171.198,216.493 C170.008,213.956 170.008,213.956 168.105,215.938 C165.489,218.555 158.669,220.3 154.149,219.507 C148.44,218.555 145.903,216.018 145.268,210.943 C144.555,204.203 147.568,201.745 159.542,198.969 C164.775,197.78 169.216,196.432 169.533,196.035 C169.771,195.56 169.771,194.449 169.374,193.577 C168.423,191.119 160.414,191.436 159.066,193.894 C158.114,195.639 157.242,195.797 152.246,195.322 C149.075,195.004 146.299,194.608 146.141,194.37 C145.189,193.577 148.44,187.947 150.819,186.361 C154.863,183.745 158.828,183.031 167.233,183.507 C172.625,183.824 175.797,184.458 177.462,185.727 z" fill="#000000"/>
      <path d="M26.96,27.454 C26.96,29.278 26.722,31.577 26.405,32.45 C25.929,33.718 26.564,34.036 29.974,34.036 C35.603,34.036 37.982,32.529 37.982,29.199 C37.982,25.313 36.317,23.965 31.322,23.965 C27.04,23.965 26.96,24.044 26.96,27.454 z" fill="#000000"/>
      <path d="M201.568,37.207 C200.616,38.555 199.982,41.569 199.982,44.503 C199.982,47.436 200.616,50.45 201.568,51.798 C203.55,54.652 208.308,54.732 211.083,51.877 C212.907,50.053 213.145,48.864 212.748,43.789 C212.511,39.348 211.876,37.366 210.449,36.335 C207.594,34.274 203.312,34.67 201.568,37.207 z" fill="#000000"/>
      <path d="M163.982,99.375 C160.255,100.406 159.462,100.961 159.462,103.022 C159.462,105.163 160.017,105.56 163.189,105.798 C167.392,106.115 170.96,103.419 170.96,100.009 C170.96,97.789 170.405,97.71 163.982,99.375 z" fill="#000000"/>
      <path d="M166.52,203.648 C159.7,205.234 157.876,206.185 158.194,208.326 C158.669,211.419 165.092,211.894 167.947,209.04 C169.929,207.057 170.801,202.855 169.216,203.093 C168.819,203.172 167.63,203.41 166.52,203.648 z" fill="#000000"/>
    </g>
    <path d="M55.67,77.985 C55.353,78.461 55.591,80.523 56.146,82.505 C56.701,84.567 56.86,86.708 56.463,87.342 C56.067,88.056 56.225,88.214 56.78,87.818 C59.08,86.47 65.899,112.32 69.705,136.663 C71.291,146.892 71.846,181.069 70.578,189.553 C69.388,197.562 66.771,209.218 66.137,209.218 C65.82,209.218 65.503,210.725 65.344,212.707 C65.265,214.61 65.503,216.196 65.899,216.196 C68.595,216.196 85.089,183.606 83.582,181.227 C83.344,180.91 83.82,177.976 84.613,174.646 C85.406,171.395 86.04,163.703 86.04,157.518 C86.04,148.003 85.485,142.928 82.551,128.258 C81.045,120.408 74.305,104.866 67.564,93.844 C65.661,90.593 64.075,87.738 64.075,87.5 C64.075,86.945 59.952,81.236 57.89,78.857 C57.018,77.906 55.987,77.43 55.67,77.985 z" fill="#FFFFFF"/>
    <path d="M143.608,82.901 C143.053,84.329 143.212,84.408 144.163,83.456 C144.877,82.743 145.194,81.95 144.877,81.633 C144.56,81.315 144.005,81.871 143.608,82.901 z" fill="#EE0000"/>
    <path d="M124.736,92.1 C107.846,101.456 97.617,120.963 92.463,153.712 C90.798,164.496 90.719,166.161 92.067,166.161 C93.177,166.161 94.366,163.703 98.569,152.681 C102.058,143.562 105.388,135.791 106.102,135.157 C106.34,134.919 107.45,132.619 108.56,130.161 C109.591,127.703 111.256,124.452 112.287,123.025 C113.238,121.597 114.031,119.932 114.031,119.456 C114.031,118.981 114.745,117.712 115.538,116.602 C116.886,114.937 123.547,104.945 126.56,100.267 C127.115,99.395 127.749,98.443 128.067,98.205 C130.049,96.223 131.952,93.368 132.507,91.465 C133.379,88.531 130.842,88.769 124.736,92.1 z" fill="#FFFFFF"/>
    <path d="M22.049,103.677 C22.049,105.104 25.776,112.875 27.045,114.144 C28.789,115.888 39.177,137.06 39.335,139.201 C39.415,140.311 39.732,141.183 40.049,141.183 C40.842,141.183 45.362,152.047 45.362,153.87 C45.362,154.584 45.758,155.218 46.234,155.218 C47.899,155.218 47.027,157.201 45.283,157.28 C43.855,157.28 43.855,157.439 45.6,158.152 C47.027,158.707 48.296,161.166 49.802,166.32 C51.071,170.443 52.023,174.566 52.023,175.439 C52.023,176.39 52.419,177.183 52.895,177.183 C54.798,177.183 56.384,170.602 56.463,162.831 C56.542,158.311 56.939,154.108 57.335,153.474 C57.89,152.602 57.653,152.364 56.701,152.76 C55.749,153.157 55.036,152.205 54.481,149.509 C54.005,147.368 53.688,145.148 53.767,144.434 C53.767,143.721 53.45,143.483 52.974,143.721 C52.419,144.038 52.023,143.641 52.023,142.848 C52.023,138.487 45.362,127.862 33.785,113.826 C25.935,104.47 22.049,101.06 22.049,103.677 z" fill="#FFFFFF"/>
    <path d="M6.032,136.584 C6.032,137.377 6.507,138.329 7.062,138.725 C7.617,139.042 7.776,139.835 7.38,140.39 C6.983,141.025 7.221,141.183 7.935,140.787 C9.283,139.914 25.142,155.694 29.661,162.355 C31.247,164.734 32.913,166.795 33.309,167.033 C33.705,167.192 34.023,167.747 34.023,168.302 C34.023,168.778 35.212,170.998 36.639,173.218 C41.476,180.989 44.807,193.597 49.089,220.478 C49.802,224.76 50.754,228.487 51.23,228.804 C52.102,229.28 52.181,229.121 52.498,225.632 C52.657,224.602 53.529,218.654 54.56,212.549 C56.225,202.082 56.225,200.892 54.719,193.042 C52.736,183.21 52.736,183.051 51.705,181.465 C51.309,180.751 51.15,180.196 51.468,180.196 C51.785,180.196 50.754,178.055 49.247,175.439 C47.661,172.822 46.155,169.888 45.758,168.936 C45.441,167.985 44.648,167.192 44.093,167.192 C43.538,167.192 43.062,166.637 43.062,165.923 C42.983,164.417 34.261,155.139 27.758,149.668 C25.062,147.448 21.732,144.672 20.305,143.403 C18.957,142.214 17.212,141.183 16.578,141.183 C15.864,141.183 14.516,140.311 13.565,139.201 C12.534,138.091 11.503,137.377 11.265,137.615 C11.027,137.853 10.155,137.456 9.362,136.663 C7.538,134.76 6.032,134.76 6.032,136.584 z" fill="#FFFFFF"/>
    <path d="M112.208,157.677 C97.538,166.082 89.212,183.368 90.322,202.875 C90.956,212.945 91.353,214.372 93.573,213.5 C94.366,213.183 94.842,212.628 94.525,212.152 C94.287,211.756 95.714,206.443 97.697,200.496 C101.423,189.236 107.846,175.28 114.269,164.179 C117.917,157.914 118.868,155.139 117.282,155.218 C116.886,155.218 114.586,156.329 112.208,157.677 z" fill="#FFFFFF"/>
    <path d="M121.247,181.069 C118.868,182.02 116.569,183.368 116.093,184.082 C115.696,184.795 115.141,185.192 114.904,185.033 C113.952,184.24 107.212,193.042 105.943,196.69 C105.23,198.91 104.357,201.13 104.04,201.685 C102.93,203.509 102.93,213.976 104.04,214.61 C104.595,215.007 105.071,214.61 105.071,213.817 C105.071,213.024 105.388,212.232 105.864,211.994 C106.895,211.597 119.027,196.61 119.027,195.738 C119.027,195.342 120.216,193.597 121.564,191.773 C122.912,189.95 124.022,188.047 124.022,187.412 C124.022,186.857 124.498,186.223 125.053,185.985 C126.243,185.588 127.591,179.166 126.401,179.245 C125.926,179.245 123.626,180.117 121.247,181.069 z" fill="#FFFFFF"/>
  </g>
</svg>
