<?xml version="1.0" standalone="no"?>
<!DOCTYPE svg PUBLIC "-//W3C//DTD SVG 20010904//EN"
 "http://www.w3.org/TR/2001/REC-SVG-20010904/DTD/svg10.dtd">
<svg version="1.0" xmlns="http://www.w3.org/2000/svg"
 width="148.175438pt" height="150.000000pt" viewBox="0 0 148.175438 150.000000"
 preserveAspectRatio="xMidYMid meet">
<metadata>
Created by Potrace Professional 1.1m
</metadata>
<g transform="translate(-0.260103,150.000000) rotate(-360.00) scale(0.095238,-0.095238)"
fill="#000000" stroke="none">
<path d="M1019 1521 c-63 -64 -118 -171 -147 -284 -22 -86 -42 -275 -42 -389
l0 -72 49 6 c28 3 140 13 250 22 313 25 367 39 411 106 25 38 25 133 0 180
-11 20 -52 71 -92 114 -85 92 -104 126 -135 241 -33 121 -43 130 -153 130
l-88 0 -53 -54z m258 -312 c23 -11 54 -38 69 -60 26 -36 27 -42 14 -67 -66
-126 -270 -142 -358 -27 -34 45 -32 69 7 110 71 75 175 92 268 44z"/>
<path d="M1096 1182 c-40 -40 -46 -81 -20 -131 16 -31 68 -59 104 -56 104 8
139 161 47 208 -50 26 -91 19 -131 -21z"/>
<path d="M347 1536 c-50 -26 -66 -52 -126 -201 -29 -72 -82 -177 -117 -234
-35 -57 -74 -129 -85 -159 -49 -127 15 -230 156 -254 74 -12 324 13 471 48 75
18 139 36 143 40 13 12 -46 373 -74 456 -32 93 -95 204 -143 254 -65 67 -153
86 -225 50z"/>
<path d="M1011 753 c-177 -10 -181 -11 -176 -33 3 -12 19 -100 36 -196 18 -96
42 -201 54 -234 30 -78 90 -146 144 -162 117 -35 196 10 270 156 10 20 43 69
74 110 87 115 107 183 74 260 -22 51 -58 78 -127 96 -68 18 -79 18 -349 3z"/>
<path d="M696 702 c-54 -16 -151 -39 -218 -50 -66 -12 -146 -33 -176 -47 -134
-59 -197 -197 -148 -324 24 -62 51 -90 122 -124 34 -16 92 -58 128 -93 l67
-64 69 0 c84 0 115 14 172 79 85 97 113 241 97 497 -6 83 -11 152 -13 153 -2
1 -47 -11 -100 -27z"/>
</g>
</svg>
