<?xml version="1.0" encoding="UTF-8"?>
<!DOCTYPE svg PUBLIC "-//W3C//DTD SVG 1.1//EN" "http://www.w3.org/Graphics/SVG/1.1/DTD/svg11.dtd">
<svg version="1.1" xmlns="http://www.w3.org/2000/svg" xmlns:xlink="http://www.w3.org/1999/xlink" x="0" y="0" width="400" height="400" viewBox="0, 0, 400, 400">
  <g id="Layer_1">
    <g>
      <path d="M238.414,24.137 C234.699,25.661 231.366,30.423 231.08,34.708 C230.509,44.137 241.366,52.137 249.176,48.042 C258.795,43.089 260.223,31.089 251.937,25.47 C248.509,23.089 242.318,22.518 238.414,24.137 z" fill="#000000"/>
      <path d="M315.461,50.708 C309.842,52.708 302.223,60.518 300.318,66.518 C297.842,73.756 298.795,81.851 302.89,88.137 C306.985,94.613 311.461,97.851 318.699,99.756 C325.08,101.375 331.08,100.708 336.89,97.661 C338.414,96.899 339.937,96.613 340.318,96.994 C340.699,97.375 340.89,97.28 340.794,96.708 C340.604,96.137 341.747,94.327 343.271,92.708 C348.318,87.375 350.223,82.327 350.318,74.708 C350.318,69.375 349.842,66.708 348.223,63.661 C345.271,58.137 337.937,51.566 333.271,50.232 C328.033,48.804 320.223,48.994 315.461,50.708 z" fill="#000000"/>
      <path d="M93.652,52.804 C92.128,53.566 90.319,53.947 89.747,53.566 C89.08,53.185 88.89,53.28 89.176,53.851 C89.557,54.423 88.509,56.137 86.89,57.661 C82.985,61.375 80.509,68.994 81.271,74.518 C82.033,79.185 85.176,84.994 88.033,86.994 C89.08,87.756 89.747,88.708 89.461,89.089 C89.176,89.47 89.557,89.947 90.223,89.947 C90.89,90.042 93.747,90.804 96.699,91.566 C105.747,94.137 114.128,91.089 118.89,83.47 C126.033,72.232 122.509,59.089 110.795,53.089 C106.223,50.804 97.652,50.613 93.652,52.804 z" fill="#000000"/>
      <path d="M180.033,79.756 C162.509,82.708 142.699,91.089 129.271,101.089 C126.223,103.375 123.652,105.185 123.366,105.185 C122.223,105.185 106.795,121.661 102.89,126.994 C92.89,140.708 85.461,156.994 81.652,173.375 C78.795,186.042 78.509,211.661 81.176,224.137 C84.795,240.994 91.842,257.184 100.604,269.184 C102.414,271.565 103.557,273.946 103.176,274.518 C102.89,275.089 103.08,275.184 103.652,274.803 C104.223,274.518 105.366,275.184 106.128,276.422 C108.89,280.518 119.271,290.803 125.938,295.851 C149.652,313.946 176.414,322.327 206.414,320.899 C228.033,319.851 247.366,313.946 263.937,303.375 C266.89,301.47 269.937,299.851 270.604,299.851 C271.271,299.851 271.556,299.47 271.271,299.089 C271.08,298.613 271.652,297.851 272.699,297.28 C273.747,296.708 276.509,294.708 278.795,292.708 C281.176,290.803 283.556,289.47 284.128,289.851 C284.699,290.232 284.89,290.042 284.604,289.47 C284.223,288.899 286.318,285.946 289.176,282.994 C292.033,279.946 296.128,274.899 298.223,271.851 C300.414,268.708 302.604,266.518 303.175,266.803 C303.747,267.184 303.937,266.994 303.461,266.327 C303.08,265.661 304.128,262.899 305.842,260.137 C316.699,242.423 322.699,216.994 321.556,193.661 C320.414,171.851 315.08,154.232 304.128,136.232 C302.89,134.327 302.223,132.327 302.604,131.756 C302.89,131.185 302.89,130.994 302.414,131.375 C301.937,131.851 299.652,129.47 297.271,126.232 C290.604,116.994 278.414,105.566 267.937,98.708 C255.747,90.708 252.699,89.185 239.937,84.804 C221.366,78.518 198.89,76.613 180.033,79.756 z M189.842,100.899 C186.318,104.137 183.08,106.518 182.604,106.423 C182.128,106.232 182.033,106.518 182.318,107.089 C182.604,107.566 182.223,108.518 181.366,109.185 C180.223,110.232 178.318,110.042 172.128,108.327 C167.842,107.185 162.795,105.946 160.89,105.47 L157.366,104.518 L164.223,102.232 C172.033,99.661 185.557,96.232 188.223,96.232 C189.366,96.232 189.747,96.613 189.271,97.47 C188.699,98.423 188.795,98.423 189.938,97.566 C190.699,96.899 192.318,96.137 193.366,95.946 C194.509,95.661 195.557,95.375 195.842,95.28 C196.033,95.28 193.366,97.756 189.842,100.899 z M229.557,100.804 C239.08,106.708 244.89,122.518 247.461,149.661 L248.128,156.613 L242.509,151.185 C239.461,148.327 237.271,145.375 237.557,144.899 C237.937,144.327 237.652,144.232 237.08,144.613 C236.414,144.994 234.033,143.565 231.652,141.47 C229.271,139.28 226.414,136.899 225.271,136.137 C224.033,135.375 220.033,132.518 216.223,129.756 C212.509,127.089 205.366,122.708 200.414,120.042 C192.604,115.851 190.89,114.518 194.223,115.089 C194.699,115.185 194.795,114.804 194.414,114.327 C193.747,113.185 202.985,105.185 207.937,102.613 C217.08,97.946 223.937,97.375 229.557,100.804 z M271.652,123.946 C275.652,127.375 277.842,129.946 277.461,130.899 C277.176,131.661 277.366,132.042 277.842,131.661 C279.366,130.804 287.461,141.756 292.414,151.28 C296.89,160.042 301.366,172.518 302.414,179.661 C303.461,186.708 298.318,198.232 290.223,207.28 L286.604,211.28 L281.176,201.47 C275.556,191.28 272.318,186.137 267.652,180.042 L264.89,176.423 L264.509,157.089 C264.128,137.851 262.699,126.518 259.366,117.089 L257.937,112.994 L261.652,115.756 C263.747,117.28 268.223,120.994 271.652,123.946 z M167.08,119.185 C171.557,120.327 171.747,120.518 170.699,122.804 C170.033,124.137 169.176,125.185 168.699,125.185 C168.223,125.185 167.938,125.566 167.938,126.042 C167.938,127.851 160.699,138.708 159.747,138.423 C159.176,138.232 158.985,138.613 159.366,139.089 C159.652,139.661 158.89,142.232 157.557,144.899 C143.08,173.47 135.366,207.661 136.033,239.47 C136.223,246.994 136.319,253.184 136.223,253.184 C136.128,253.184 132.509,252.042 128.223,250.708 C119.557,247.946 109.271,242.137 109.652,240.232 C109.842,239.565 109.557,239.28 109.08,239.565 C108.604,239.851 107.271,239.089 106.128,237.946 C99.652,231.089 95.176,211.28 96.319,194.137 C97.557,174.613 105.08,152.804 115.271,139.661 C130.128,120.327 136.223,116.804 153.366,117.566 C158.318,117.756 164.509,118.518 167.08,119.185 z M198.604,132.613 C201.461,134.137 203.557,135.946 203.176,136.518 C202.89,137.089 203.08,137.185 203.747,136.804 C205.461,135.661 226.604,152.042 237.461,162.899 C244.699,170.137 246.89,172.994 246.89,175.089 C246.89,176.518 245.747,184.518 244.414,192.708 C241.842,208.232 237.937,222.899 232.699,236.518 C229.176,245.756 229.176,245.661 211.08,250.232 C194.223,254.423 180.033,256.137 164.033,256.137 C151.176,256.232 149.842,256.042 148.89,254.232 C147.461,251.47 147.652,225.375 149.366,213.661 C153.842,181.851 165.176,151.47 180.604,129.756 L183.842,125.28 L188.604,127.47 C191.271,128.708 195.747,130.994 198.604,132.613 z M270.033,205.946 C272.795,211.089 274.795,215.946 274.509,216.804 C274.128,217.565 274.318,218.042 274.795,217.756 C275.271,217.47 275.937,217.851 276.223,218.518 C276.509,219.47 274.128,221.756 269.556,224.899 C263.271,229.28 251.937,235.756 251.937,234.899 C251.937,234.708 252.795,232.137 253.842,229.184 C254.89,226.137 257.271,216.804 259.08,208.423 C262.89,190.994 262.033,191.184 270.033,205.946 z M302.89,217.375 C302.223,220.804 300.318,227.946 298.604,233.184 L295.556,242.708 L294.699,238.708 C294.223,236.518 293.176,232.232 292.414,229.28 C291.366,225.28 291.271,223.47 292.033,222.518 C292.604,221.756 293.556,221.47 294.033,221.756 C294.509,222.042 294.795,221.946 294.699,221.47 C294.414,220.613 303.08,210.137 303.747,210.708 C303.842,210.804 303.461,213.851 302.89,217.375 z M281.937,236.423 C282.604,238.803 282.985,245.375 282.699,251.661 C282.414,262.613 282.318,262.803 278.699,267.851 C274.223,273.946 268.033,279.375 266.604,278.518 C266.033,278.137 265.842,278.327 266.223,278.899 C267.176,280.518 256.89,287.851 246.604,292.708 C236.985,297.28 223.937,301.47 215.366,302.613 L210.414,303.28 L214.033,299.851 C223.08,291.28 235.08,273.661 242.318,258.327 L245.366,252.042 L256.89,246.137 C263.271,242.899 270.89,238.423 273.937,236.327 C276.89,234.137 279.747,232.327 280.128,232.232 C280.509,232.232 281.366,234.042 281.937,236.423 z M123.938,262.042 C127.461,263.184 132.319,264.613 134.604,265.184 C137.747,265.946 138.89,266.803 138.89,268.232 C138.89,269.28 139.938,273.47 141.271,277.565 C142.604,281.756 143.366,285.375 143.08,285.661 C142.795,285.946 143.176,286.137 143.938,286.137 C144.604,286.137 144.89,286.518 144.604,286.803 C143.652,287.756 133.747,280.042 126.985,273.28 C120.128,266.423 113.938,258.708 115.938,259.47 C116.699,259.756 120.319,260.994 123.938,262.042 z M218.795,265.47 C214.509,272.803 208.414,280.518 201.652,287.28 C190.033,298.899 178.414,302.803 169.271,298.137 C164.699,295.756 162.414,293.089 163.652,291.661 C164.033,291.184 163.842,291.184 163.271,291.47 C161.842,292.327 159.747,289.851 156.604,283.661 C154.795,280.042 150.89,269.28 150.89,267.756 C150.89,267.756 155.747,267.851 161.652,268.042 C175.461,268.423 191.08,266.803 207.366,263.28 C214.509,261.661 220.699,260.327 221.08,260.327 C221.557,260.232 220.414,262.518 218.795,265.47 z" fill="#000000"/>
      <path d="M172.604,187.28 C171.652,187.851 170.318,187.946 169.747,187.565 C168.985,187.184 168.89,187.28 169.271,188.042 C169.652,188.708 169.557,189.184 169.08,189.184 C168.509,189.184 167.08,191.28 165.842,193.756 C163.938,197.756 163.747,198.899 164.795,202.137 C166.414,207.565 169.176,210.613 173.652,211.946 C184.509,215.28 194.414,204.042 189.557,194.137 C188.604,192.423 188.223,190.518 188.604,189.946 C188.89,189.375 188.795,189.184 188.223,189.47 C187.747,189.756 185.938,189.184 184.318,188.137 C181.176,186.042 175.461,185.661 172.604,187.28 z" fill="#000000"/>
      <path d="M34.319,141.185 C30.128,142.518 25.081,147.756 23.747,152.327 C22.319,157.089 23.652,162.613 27.271,166.518 C28.604,167.851 29.461,169.28 29.271,169.661 C29.081,169.946 29.176,169.946 29.557,169.756 C29.842,169.47 31.461,169.946 32.985,170.708 C36.89,172.708 41.271,172.518 45.842,170.232 C56.7,164.613 57.842,150.137 47.842,143.565 C43.557,140.708 38.7,139.851 34.319,141.185 z" fill="#000000"/>
      <path d="M358.699,208.804 C353.937,210.804 350.318,217.565 351.271,222.613 C352.509,228.899 358.604,234.137 364.699,234.137 C368.223,234.137 373.937,230.518 375.652,227.184 C377.175,223.946 377.175,217.375 375.652,214.327 C372.699,208.613 364.985,206.137 358.699,208.804 z" fill="#000000"/>
      <path d="M57.176,266.613 C50.7,269.47 47.938,278.708 51.557,285.47 C52.509,287.28 53.176,289.089 53.08,289.47 C52.985,289.946 53.271,290.042 53.842,289.756 C54.319,289.375 56.319,289.851 58.223,290.803 C62.985,293.089 67.652,292.042 71.938,287.661 C75.08,284.327 75.366,283.565 75.557,277.661 C75.557,274.137 75.271,271.47 74.795,271.756 C74.319,272.042 73.08,270.994 72.128,269.375 C71.176,267.756 69.747,266.708 68.985,266.994 C68.223,267.28 67.842,267.089 68.128,266.518 C69.08,265.089 60.604,265.184 57.176,266.613 z" fill="#000000"/>
      <path d="M271.937,327.28 C267.176,330.708 264.89,335.184 264.89,341.089 C264.89,346.422 266.223,349.47 270.033,353.089 C275.937,358.803 284.318,359.47 291.175,354.708 C293.175,353.47 295.08,352.613 295.461,352.994 C295.842,353.375 295.937,353.089 295.461,352.422 C295.08,351.756 295.556,350.137 296.509,348.708 C298.414,345.756 298.699,337.565 296.89,334.041 C293.461,327.47 288.223,324.137 281.08,324.137 C277.176,324.137 275.271,324.803 271.937,327.28 z" fill="#000000"/>
      <path d="M150.414,336.803 C148.223,337.565 145.271,339.375 143.842,340.708 C142.414,342.137 141.08,342.994 140.795,342.708 C140.509,342.518 140.223,343.089 140.223,343.946 C140.128,344.899 139.271,347.851 138.319,350.518 C136.89,354.708 136.795,356.041 137.842,360.041 C138.509,362.613 139.08,365.47 139.176,366.422 C139.271,367.28 139.557,367.851 139.747,367.66 C140.033,367.375 140.795,368.041 141.557,369.184 C142.318,370.232 145.08,372.422 147.652,373.946 C158.033,379.946 170.604,376.137 176.128,365.28 C179.271,359.089 179.557,355.28 177.366,349.089 C173.461,337.946 161.747,332.613 150.414,336.803 z" fill="#000000"/>
    </g>
  </g>
</svg>
