<?xml version="1.0" encoding="UTF-8"?>
<!DOCTYPE svg PUBLIC "-//W3C//DTD SVG 1.1//EN" "http://www.w3.org/Graphics/SVG/1.1/DTD/svg11.dtd">
<svg version="1.1" xmlns="http://www.w3.org/2000/svg" xmlns:xlink="http://www.w3.org/1999/xlink" x="0" y="0" width="400" height="400" viewBox="0, 0, 400, 400">
  <g id="Layer_1">
    <g>
      <path d="M162.917,133.732 L143.517,144.082 L142.225,128.126 L162.489,125.97 L162.917,133.732 z M113.337,181.597 C113.77,187.191 112.904,195.828 109.886,200.128 L100.833,196.678 C103.85,192.378 105.576,186.341 105.576,181.166 L113.337,181.597 z M293.133,276.884 C318.131,173.836 288.821,91.904 209.057,82.417 C209.489,86.742 209.489,90.179 209.489,93.629 C209.489,98.804 209.057,103.116 209.057,103.116 L196.552,100.96 C196.983,96.648 197.846,67.337 187.493,60.869 C187.493,60.869 187.493,76.38 184.049,91.904 L172.404,89.76 C172.404,78.98 167.661,74.668 161.197,71.649 L164.216,92.779 L156.881,103.547 L160.332,113.465 L137.481,121.227 L131.012,139.769 L90.913,194.953 L106.008,213.064 L122.823,198.846 L126.702,201.421 L126.702,222.551 L135.755,222.551 C139.639,207.458 152.138,189.779 163.783,181.166 L157.314,173.404 L166.8,165.199 L175.855,176.423 L208.195,175.98 C212.938,165.642 215.957,153.137 215.957,138.476 L228.462,138.476 C228.462,187.634 203.883,207.027 173.27,237.212 C162.057,248.421 152.138,260.498 150.845,276.884 L293.133,276.884 z M324.168,288.947 L120.665,288.947 L120.665,276.453 L137.914,276.453 C140.932,235.919 179.732,220.826 201.295,188.066 L176.287,188.066 C164.216,192.378 146.102,219.101 146.102,234.625 L114.63,234.625 L115.063,221.689 L104.71,230.313 L77.116,198.403 C77.116,198.403 75.823,196.678 75.823,195.384 C75.823,194.103 76.256,193.228 76.256,193.228 L119.806,134.164 L127.561,110.878 L139.206,106.566 L151.278,89.76 L146.967,60.437 C158.606,56.125 169.819,60.006 175.421,65.6 C175.855,56.988 174.995,47.501 174.995,47.501 C195.69,45.345 203.02,56.556 206.47,69.062 C212.064,69.493 217.25,70.343 221.994,71.218 C222.844,68.63 225.444,66.474 228.462,66.474 C232.331,66.474 234.918,69.493 234.918,72.943 L234.918,74.668 C243.986,77.686 252.598,81.998 260.36,86.742 C261.654,85.017 263.379,84.142 265.535,84.142 C269.416,84.142 272.003,87.161 272.003,90.611 C272.003,92.335 271.572,93.629 270.709,94.504 C278.04,100.541 284.077,107.859 289.683,115.621 C290.545,115.19 291.839,114.759 292.702,114.759 C296.582,114.759 299.601,117.777 299.601,121.227 C299.601,123.814 298.307,125.97 296.151,126.833 C300.463,134.595 303.901,143.219 306.5,152.275 C306.932,151.843 307.794,151.843 308.225,151.843 C312.106,151.843 314.682,154.862 314.682,158.312 C314.682,161.761 312.538,164.349 309.95,164.78 C311.663,173.836 312.969,182.891 313.831,192.378 C317.7,192.378 320.719,195.384 320.719,198.846 C320.719,202.715 317.7,205.302 314.262,205.734 C314.262,214.789 313.831,224.707 312.969,234.194 C316.406,234.625 319.006,237.644 319.006,241.093 C319.006,244.543 315.987,247.56 312.106,247.56 L311.663,247.56 C309.95,257.048 308.225,266.523 306.069,276.453 L324.168,276.453 L324.168,288.947" fill="#000000"/>
      <path d="M120.666,352.767 L324.177,352.767 L324.177,327.757 L120.666,327.757 L120.666,352.767 z" fill="#000000"/>
    </g>
  </g>
</svg>
