<?xml version="1.0" standalone="no"?>
<!DOCTYPE svg PUBLIC "-//W3C//DTD SVG 20010904//EN"
 "http://www.w3.org/TR/2001/REC-SVG-20010904/DTD/svg10.dtd">
<svg version="1.0" xmlns="http://www.w3.org/2000/svg"
 width="354.365547pt" height="361.177779pt" viewBox="0 0 354.365547 361.177779"
 preserveAspectRatio="xMidYMid meet">
<metadata>
Created by Potrace Professional 1.1m
</metadata>
<g transform="translate(-18.645399,377.793111) rotate(-360.00) scale(0.095238,-0.095238)"
fill="#000000" stroke="none">
<path d="M1885 3958 c-89 -8 -186 -24 -247 -41 -20 -5 -53 -14 -73 -20 -278
-77 -526 -220 -745 -428 -102 -97 -274 -303 -274 -329 0 -5 -4 -11 -8 -13 -17
-8 -148 -266 -190 -376 -29 -77 -85 -283 -85 -313 0 -13 -8 -38 -17 -55 -10
-20 -20 -86 -26 -181 -6 -82 -15 -157 -20 -166 -6 -10 -6 -21 0 -27 5 -5 12
-65 16 -134 3 -69 12 -145 20 -168 8 -24 17 -62 20 -85 10 -77 25 -136 49
-194 13 -32 23 -68 23 -81 0 -15 5 -21 14 -17 10 4 15 -2 15 -20 0 -32 27 -87
51 -105 9 -7 18 -28 20 -47 3 -35 40 -108 56 -108 5 0 12 -12 16 -27 4 -16 12
-25 21 -21 8 3 11 -1 8 -9 -3 -7 9 -26 27 -41 17 -14 27 -28 22 -30 -11 -4 80
-103 95 -103 5 0 10 -7 10 -16 0 -9 -5 -14 -11 -10 -18 11 -11 -3 14 -31 14
-15 30 -27 36 -27 7 0 19 -10 27 -22 15 -21 16 -21 21 -3 4 18 5 18 6 1 0 -10
6 -18 12 -18 7 0 10 -6 7 -13 -2 -7 13 -27 34 -43 20 -17 36 -34 35 -39 -2 -5
13 -17 33 -26 20 -9 38 -24 42 -32 3 -8 14 -15 26 -15 11 0 22 -7 26 -16 3 -8
30 -26 59 -38 29 -13 53 -30 53 -38 0 -10 6 -13 16 -9 9 4 31 -4 50 -19 18
-13 58 -33 88 -44 30 -10 52 -23 49 -27 -3 -5 4 -8 16 -8 11 0 22 -4 24 -8 5
-13 104 -47 157 -55 27 -4 56 -12 63 -18 35 -27 179 -55 329 -64 162 -10 408
-8 436 4 18 7 194 44 255 53 21 3 39 9 39 14 0 10 48 29 84 35 14 2 40 9 58
16 17 7 44 18 60 24 16 6 29 16 29 21 0 5 6 9 14 9 22 0 157 73 186 100 28 27
52 34 52 15 0 -6 5 -8 11 -4 8 4 7 11 -1 21 -10 12 -9 15 7 15 11 0 28 14 38
32 10 17 21 31 26 30 19 -3 32 3 66 33 62 53 73 65 70 76 -1 6 10 17 25 25 38
19 149 128 142 139 -8 12 22 43 41 43 7 0 19 14 26 31 7 17 20 33 28 36 8 3
14 16 15 28 0 12 4 19 9 16 5 -3 15 10 22 28 8 19 22 44 32 55 10 12 22 33 26
48 4 14 17 36 28 49 12 12 18 28 14 34 -4 6 -2 11 4 11 6 0 12 9 12 21 0 12 5
21 11 21 6 0 8 5 4 11 -3 5 0 17 8 25 8 8 23 42 33 76 10 34 24 73 30 88 6 14
11 29 10 34 -1 5 2 17 8 28 6 10 12 33 13 51 1 19 7 29 15 26 8 -3 12 9 12 36
-1 61 9 153 18 174 5 11 4 24 -3 31 -8 8 -8 17 -1 31 6 10 10 34 10 53 -1 19
-1 97 -1 174 0 145 -6 183 -22 158 -6 -9 -9 0 -9 26 0 26 4 37 12 33 15 -10 1
37 -18 59 -9 9 -15 40 -15 71 0 30 -5 54 -10 54 -6 0 -11 17 -11 37 0 20 -4
45 -9 55 -5 10 -20 54 -33 97 -14 43 -28 83 -32 89 -4 6 -16 34 -26 63 -52
140 -190 366 -301 494 -108 125 -261 262 -352 315 -19 11 -34 24 -34 28 0 5
-6 9 -12 9 -6 0 -24 8 -39 19 -16 11 -61 36 -102 56 -339 171 -642 230 -1018
197z m362 -1090 c0 -4 -9 -18 -20 -29 -54 -58 -158 -291 -158 -353 0 -16 -4
-29 -8 -29 -31 2 -97 97 -97 141 0 34 38 104 77 141 34 32 184 136 198 137 4
1 8 -3 8 -8z m-1299 -207 c4 -4 8 -17 8 -27 0 -11 4 -28 9 -38 24 -47 34 -106
35 -193 1 -89 -1 -96 -27 -120 -35 -33 -86 -34 -119 -3 -22 21 -24 32 -24 126
0 57 4 105 10 109 6 3 11 18 11 32 0 14 4 34 9 44 5 10 15 37 22 60 7 23 18
54 24 69 11 26 11 26 22 -13 7 -21 15 -42 20 -46z m1751 -313 c0 -2 -8 -18
-17 -36 l-17 -33 -575 0 c-611 0 -588 -2 -604 49 l-7 24 610 0 c335 0 610 -2
610 -4z m-63 -141 c0 -5 -6 -21 -14 -37 l-13 -28 -522 0 c-489 0 -524 1 -529
18 -3 10 -10 27 -15 37 -10 18 19 19 541 19 303 0 552 -4 552 -9z m794 -27
c-3 -8 -12 -35 -19 -61 -12 -39 -33 -85 -87 -182 -56 -104 -175 -208 -274
-239 -72 -23 -166 -39 -192 -32 -14 4 -34 -6 -61 -30 -79 -70 -138 -108 -256
-167 -51 -25 -83 -37 -205 -72 -17 -5 -82 -15 -144 -23 -187 -22 -405 17 -585
104 -32 15 -60 32 -62 36 -2 5 -9 9 -16 9 -12 0 -168 118 -203 155 -40 40
-116 135 -129 159 -7 14 -18 30 -23 37 -5 6 -19 26 -30 45 l-20 34 -168 0
c-154 0 -168 2 -168 19 0 10 -10 36 -22 58 -20 38 -20 67 2 53 5 -3 15 8 21
24 l12 30 124 -3 c116 -3 125 -5 125 -24 0 -20 17 -20 992 -20 868 0 999 2
1052 16 34 9 90 23 124 32 35 9 71 20 81 26 11 5 29 10 42 10 14 0 31 4 40 10
24 16 56 13 49 -4z"/>
<path d="M3281 2088 c-103 -25 -180 -47 -191 -54 -7 -5 -27 -38 -44 -74 -17
-35 -52 -95 -79 -132 -58 -83 -61 -100 -14 -90 141 27 275 141 350 296 24 47
17 64 -22 54z"/>
</g>
</svg>
