<?xml version="1.0" encoding="UTF-8"?>
<!DOCTYPE svg PUBLIC "-//W3C//DTD SVG 1.1//EN" "http://www.w3.org/Graphics/SVG/1.1/DTD/svg11.dtd">
<svg version="1.1" xmlns="http://www.w3.org/2000/svg" xmlns:xlink="http://www.w3.org/1999/xlink" x="0" y="0" width="350" height="350" viewBox="0, 0, 350, 350">
  <g id="Layer_1">
    <path d="M164.718,34.314 C153.861,37.933 146.718,44.218 142.051,54.314 C139.861,58.98 139.384,61.456 139.384,68.504 C139.384,76.123 139.67,77.647 142.623,83.647 C146.242,91.076 152.242,96.98 159.67,100.695 C166.527,104.028 179.289,104.409 187.099,101.456 C194.908,98.504 202.051,91.933 206.051,83.647 C209.003,77.742 209.384,76.123 209.384,68.504 C209.384,60.79 209.003,59.171 206.051,53.266 C198.337,37.457 180.242,29.171 164.718,34.314 z" fill="#000000"/>
    <path d="M100.908,99.837 C100.908,112.885 100.908,113.266 103.67,117.075 C108.813,124.123 115.575,128.79 124.623,131.456 C126.908,132.218 128.908,132.98 128.908,133.171 C128.908,133.361 127.956,134.79 126.908,136.218 C125.194,138.504 124.813,141.266 124.242,153.456 L123.575,168.028 L126.718,170.694 L129.861,173.266 L125.194,175.552 C122.623,176.79 117.956,180.314 114.813,183.456 C108.242,190.123 107.861,191.266 107.861,208.694 L107.861,220.504 L111.956,224.885 C114.146,227.361 118.908,230.79 122.623,232.599 C126.337,234.504 129.575,236.028 129.765,236.218 C130.051,236.313 129.099,237.742 127.67,239.171 C125.194,241.837 125.003,242.599 124.718,255.742 C124.432,263.266 124.432,269.456 124.718,269.456 C124.908,269.456 127.099,267.647 129.575,265.456 C140.718,255.647 154.527,249.361 172.051,246.123 C179.765,244.694 179.956,244.694 188.337,247.552 C204.622,253.075 216.813,261.075 219.861,268.504 C220.527,270.123 221.48,271.456 221.956,271.456 C222.432,271.456 222.908,265.456 222.908,258.123 C222.908,245.647 222.718,244.504 220.432,241.171 L218.051,237.647 L224.051,235.456 C227.956,234.028 231.575,231.742 234.337,229.075 L238.527,224.79 L239.194,214.028 C240.241,196.504 240.146,194.314 237.194,188.599 C234.337,182.79 228.146,177.552 221.67,175.361 C219.575,174.694 217.861,173.933 217.861,173.742 C217.861,173.552 219.289,172.123 220.908,170.694 L224.051,168.123 L223.67,154.409 C223.384,140.79 223.289,140.599 220.241,136.123 L217.099,131.647 L219.956,131.075 C224.241,130.218 234.908,124.695 238.241,121.647 C239.861,120.123 242.432,117.171 243.956,115.075 C246.813,111.266 246.813,110.79 246.908,98.79 C246.908,92.028 246.718,86.409 246.622,86.409 C246.432,86.409 242.908,89.742 238.813,93.837 C226.718,105.647 213.289,110.885 183.384,115.456 C166.051,118.123 167.575,118.123 154.337,115.171 C137.003,111.171 124.623,106.79 117.956,102.409 C112.432,98.695 102.908,89.076 102.908,87.266 C102.908,86.79 102.432,86.409 101.861,86.409 C101.289,86.409 100.908,91.552 100.908,99.837 z M184.337,141.456 C192.527,143.456 209.194,151.171 209.194,152.98 C209.289,155.933 184.051,164.599 175.384,164.599 C172.622,164.694 167.194,163.647 163.384,162.504 C154.813,159.837 138.718,152.409 139.384,151.456 C140.242,149.933 153.48,145.171 164.337,142.409 C170.432,140.79 175.575,139.552 175.861,139.552 C176.146,139.456 179.956,140.409 184.337,141.456 z M199.003,190.123 C211.765,193.266 216.908,195.552 223.765,200.694 L229.194,204.79 L225.003,208.504 C217.48,215.171 211.67,216.98 185.384,220.885 L169.384,223.171 L156.908,220.313 C140.623,216.599 130.242,213.075 124.527,209.456 L119.861,206.504 L123.67,202.98 C131.099,196.314 147.575,190.79 168.337,188.028 C181.194,186.314 185.194,186.599 199.003,190.123 z" fill="#000000"/>
    <path d="M79.765,122.695 C67.48,138.123 59.004,156.504 55.289,175.837 C53.099,187.456 53.289,209.456 55.765,220.98 C68.051,279.171 120.623,319.837 179.861,317.075 C203.67,316.028 223.289,309.647 242.337,296.98 C299.765,258.79 313.575,181.361 272.718,126.409 C269.575,122.123 266.527,118.314 265.861,117.933 C265.099,117.456 261.003,120.885 254.622,127.171 L244.718,137.075 L250.146,144.409 C262.146,160.314 268.051,177.933 268.146,197.933 C268.146,217.075 263.575,232.79 253.67,248.028 C225.194,291.456 166.146,303.171 122.432,274.028 C84.051,248.409 71.004,198.885 91.861,157.456 C94.051,153.171 97.861,147.075 100.432,143.933 C102.908,140.885 104.813,138.028 104.718,137.552 C104.527,137.171 99.765,132.409 94.146,127.075 L83.956,117.361 L79.765,122.695 z" fill="#000000"/>
  </g>
</svg>
