<?xml version="1.0" standalone="no"?>
<!DOCTYPE svg PUBLIC "-//W3C//DTD SVG 20010904//EN"
 "http://www.w3.org/TR/2001/REC-SVG-20010904/DTD/svg10.dtd">
<svg version="1.0" xmlns="http://www.w3.org/2000/svg"
 width="400.000000pt" height="400.000000pt" viewBox="0 0 400.000000 400.000000"
 preserveAspectRatio="xMidYMid meet">
<metadata>
Created by Potrace Professional 1.1m
</metadata>
<g transform="translate(0.000000,400.000000) rotate(-360.00) scale(0.095238,-0.095238)"
fill="#000000" stroke="none">
<path d="M0 2100 l0 -2100 2100 0 2100 0 0 2100 0 2100 -2100 0 -2100 0 0
-2100z m496 339 c-4 -38 39 -174 92 -292 10 -23 22 -54 26 -68 4 -14 17 -47
29 -73 l21 -47 17 31 c9 17 17 34 17 37 1 12 84 206 94 218 5 8 11 20 12 27 5
31 83 194 90 187 4 -4 21 -43 38 -86 48 -122 150 -370 162 -393 9 -17 16 -6
48 69 20 48 43 102 50 119 48 109 83 217 84 258 1 43 3 47 30 50 53 6 62 -3
40 -42 -10 -19 -75 -175 -144 -347 -68 -172 -129 -312 -133 -312 -5 0 -12 8
-16 18 -3 10 -27 68 -53 128 -26 61 -48 117 -50 126 -2 9 -13 35 -24 58 -12
23 -34 71 -49 105 -27 59 -29 62 -40 40 -6 -13 -15 -24 -20 -24 -5 0 -7 -5 -3
-11 4 -6 2 -17 -3 -24 -6 -7 -27 -55 -48 -108 -21 -53 -49 -121 -63 -152 -14
-31 -35 -80 -46 -109 -11 -29 -24 -53 -29 -53 -5 0 -19 29 -32 63 -23 60 -81
207 -100 252 -52 120 -115 281 -115 291 0 8 -10 26 -21 40 -41 52 -30 63 61
63 l81 0 -3 -39z m1156 -105 c-14 -30 -17 -517 -3 -534 21 -25 0 -36 -71 -36
-67 0 -68 1 -60 24 12 31 12 522 1 546 -8 16 -2 18 67 18 68 0 74 -2 66 -18z
m413 -6 c-3 -13 -7 -134 -8 -270 l-2 -247 153 -5 c84 -3 151 -3 148 -1 -4 4
76 43 88 43 10 0 -8 -67 -21 -76 -14 -8 -480 -10 -494 -1 -4 3 -3 14 3 25 12
23 17 481 5 527 l-7 29 70 0 c68 0 71 -1 65 -24z m1020 -7 c2 -34 -8 -39 -41
-21 -18 10 -333 18 -338 9 -1 -2 0 -51 3 -108 l5 -104 115 2 c63 1 123 7 133
12 33 17 41 11 41 -31 l0 -41 -34 9 c-19 5 -85 10 -147 12 l-112 3 -3 -111
c-2 -62 -2 -119 0 -128 4 -22 32 -24 202 -18 113 4 149 9 171 24 16 10 33 16
39 13 12 -8 1 -60 -15 -71 -15 -10 -515 -11 -525 -1 -3 4 1 15 10 25 14 16 16
54 13 269 -2 137 -7 259 -12 269 -9 17 6 18 242 18 l251 0 2 -31z m321 2 c-4
-22 4 -41 37 -86 24 -31 43 -60 43 -65 0 -4 6 -14 13 -21 7 -8 25 -32 40 -54
14 -21 29 -39 33 -39 5 0 16 13 26 29 10 16 21 31 25 34 3 3 31 43 61 89 44
66 55 89 50 113 -6 29 -5 29 47 29 39 0 51 -3 45 -13 -17 -29 -113 -150 -121
-153 -5 -2 -9 -8 -9 -14 0 -13 -55 -94 -81 -120 -16 -16 -19 -37 -18 -130 0
-61 3 -120 5 -132 4 -19 -1 -21 -57 -24 -72 -4 -104 4 -80 19 12 7 17 36 19
114 l4 104 -74 103 c-41 58 -94 133 -119 167 -25 35 -47 67 -49 71 -2 4 35 8
81 8 l85 0 -6 -29z"/>
</g>
</svg>
