<?xml version="1.0" standalone="no"?>
<!DOCTYPE svg PUBLIC "-//W3C//DTD SVG 20010904//EN"
 "http://www.w3.org/TR/2001/REC-SVG-20010904/DTD/svg10.dtd">
<svg version="1.0" xmlns="http://www.w3.org/2000/svg"
 width="605.847552pt" height="322.097683pt" viewBox="0 0 605.847552 322.097683"
 preserveAspectRatio="xMidYMid meet">
<metadata>
Created by Potrace Professional 1.1m
</metadata>
<g transform="translate(-34.000000,326.097683) rotate(-360.00) scale(0.095238,-0.095238)"
fill="#000000" stroke="none">
<path d="M3612 1733 l0 -1691 1035 0 c666 0 1070 4 1135 11 481 54 799 303
908 713 15 56 23 127 27 242 6 186 -10 278 -71 401 -78 158 -255 324 -427 401
-25 11 -45 24 -45 28 0 4 34 29 76 55 277 174 402 442 355 761 -55 381 -322
636 -767 736 l-121 27 -1052 3 -1053 4 0 -1691z m1735 933 c30 -7 69 -19 87
-28 167 -83 204 -330 70 -463 -85 -85 -109 -89 -509 -94 l-343 -4 0 300 0 301
319 0 c196 0 341 -5 376 -12z m128 -1264 c72 -27 145 -102 169 -173 24 -73 18
-198 -13 -258 -30 -56 -81 -104 -145 -133 -51 -24 -61 -24 -443 -27 l-391 -3
0 310 0 311 385 -3 c346 -4 392 -6 438 -24z"/>
<path d="M452 2993 l0 -420 725 -3 725 -3 -772 -839 -773 -839 0 -418 0 -418
1470 0 1470 0 0 420 0 420 -767 0 c-425 0 -766 4 -764 9 2 5 347 381 767 837
l764 828 0 423 0 423 -1423 0 -1422 0 0 -420z"/>
</g>
</svg>
