<?xml version="1.0" standalone="no"?>
<!DOCTYPE svg PUBLIC "-//W3C//DTD SVG 20010904//EN"
 "http://www.w3.org/TR/2001/REC-SVG-20010904/DTD/svg10.dtd">
<svg version="1.0" xmlns="http://www.w3.org/2000/svg"
 width="388.081234pt" height="384.867989pt" viewBox="0 0 388.081234 384.867989"
 preserveAspectRatio="xMidYMid meet">
<metadata>
Created by Potrace Professional 1.1m
</metadata>
<g transform="translate(-0.000000,399.881442) rotate(-360.00) scale(0.095238,-0.095238)"
fill="#000000" stroke="none">
<path d="M2667 4182 c-41 -25 -101 -108 -140 -193 -123 -267 -158 -352 -197
-482 -11 -38 -25 -83 -31 -100 -5 -18 -10 -43 -10 -55 0 -13 -6 -43 -14 -68
-8 -25 -20 -64 -26 -87 -7 -23 -22 -75 -34 -115 -41 -133 -54 -178 -64 -221
-28 -121 -42 -211 -50 -318 -5 -65 -12 -121 -15 -125 -4 -4 -15 4 -25 17 -27
40 -103 201 -124 264 -10 31 -25 75 -33 98 -9 23 -14 74 -13 121 2 92 -22 170
-47 149 -7 -6 -20 -43 -27 -82 -13 -71 -9 -115 30 -313 12 -56 80 -254 106
-305 12 -22 21 -50 20 -62 0 -12 -3 -15 -6 -8 -3 7 -11 13 -18 13 -7 0 -29 11
-49 25 -41 27 -216 100 -272 113 -117 26 -146 33 -180 43 -48 13 -173 6 -191
-11 -19 -20 28 -52 87 -60 112 -14 165 -28 240 -64 98 -47 275 -162 268 -174
-3 -5 -70 -9 -149 -9 -155 0 -509 -44 -594 -73 -17 -6 -48 -10 -69 -10 -20 0
-53 -5 -73 -11 -19 -5 -62 -12 -96 -16 -34 -3 -77 -11 -96 -16 -19 -6 -48 -10
-64 -10 -16 0 -37 -4 -47 -9 -10 -6 -58 -20 -107 -33 -50 -13 -99 -27 -111
-32 -31 -12 -194 -63 -204 -62 -25 0 -147 -67 -183 -100 -22 -20 -45 -37 -50
-37 -5 0 -9 -26 -9 -58 0 -32 5 -57 10 -57 6 0 17 -13 26 -29 8 -16 46 -60 84
-98 58 -59 78 -72 132 -87 34 -10 76 -18 93 -18 36 0 96 -19 96 -31 0 -23 177
-225 259 -294 143 -122 257 -191 443 -269 53 -22 215 -24 254 -4 12 7 25 10
27 7 3 -3 7 -61 8 -130 2 -111 5 -129 28 -167 111 -184 284 -313 485 -360 73
-17 268 -14 346 5 148 38 299 141 352 242 11 22 32 59 44 81 58 103 105 330
106 516 1 58 5 124 9 147 6 36 11 42 32 39 13 -2 46 -15 72 -29 26 -14 56 -25
66 -25 10 0 24 -8 31 -16 31 -37 57 -1 32 45 -34 62 -74 180 -66 199 3 9 15
12 33 8 15 -3 85 -10 155 -16 71 -6 132 -11 137 -12 5 -1 25 1 45 5 20 3 86
12 147 18 104 12 185 32 257 63 45 20 153 97 181 129 35 41 102 164 117 216
52 175 43 396 -21 542 -34 78 -108 184 -169 242 -95 93 -151 118 -289 127 -48
4 -86 9 -86 13 0 3 9 20 21 38 16 25 20 49 20 125 0 88 -22 208 -43 231 -5 6
-9 17 -9 24 0 26 -93 211 -151 300 -64 99 -141 194 -206 254 -96 88 -94 86
-95 162 0 97 -15 143 -73 222 -53 70 -69 86 -118 118 -35 22 -118 22 -155 0z
m278 -792 c35 -6 75 -16 90 -23 14 -6 33 -12 42 -13 27 -3 132 -74 175 -119
54 -56 59 -63 92 -122 l28 -51 -30 -57 c-30 -58 -133 -170 -156 -170 -7 0 -18
-6 -24 -14 -19 -22 -117 -66 -181 -80 -91 -21 -323 -2 -344 28 -4 5 -19 14
-33 22 -99 48 -184 128 -233 220 l-29 54 28 50 c33 58 151 180 197 203 18 9
37 21 44 27 6 6 39 17 73 24 34 8 76 17 93 22 46 13 96 13 168 -1z"/>
<path d="M2794 3343 c-106 -28 -184 -104 -212 -209 -15 -54 -7 -149 18 -199
23 -50 89 -116 143 -143 50 -26 189 -30 217 -7 9 8 30 21 47 29 37 19 95 88
117 140 9 22 15 69 15 114 0 66 -4 85 -31 132 -30 51 -123 138 -151 140 -6 0
-34 4 -61 8 -31 5 -67 3 -102 -5z"/>
</g>
</svg>
