<?xml version="1.0" encoding="UTF-8"?>
<!DOCTYPE svg PUBLIC "-//W3C//DTD SVG 1.1//EN" "http://www.w3.org/Graphics/SVG/1.1/DTD/svg11.dtd">
<svg version="1.1" xmlns="http://www.w3.org/2000/svg" xmlns:xlink="http://www.w3.org/1999/xlink" x="0" y="0" width="400" height="400" viewBox="0, 0, 400, 400">
  <g id="Layer_1">
    <g>
      <path d="M20.497,2.096 C21.354,3.524 21.354,4.477 20.592,5.429 C19.449,6.762 20.116,8 22.02,8 C22.878,8 23.259,6.572 23.163,4 C23.068,0.858 22.592,0 21.259,0 C19.735,0 19.639,0.381 20.497,2.096 z" fill="#000000"/>
      <path d="M86.306,31.715 C86.02,55.143 85.735,63.524 84.878,63.524 C84.211,63.524 83.354,63.81 82.878,64.286 C82.497,64.667 130.687,64.953 190.02,64.953 C260.211,64.953 297.544,64.667 296.877,64 C296.401,63.524 287.925,62.953 277.925,62.762 C260.401,62.477 260.02,62.477 259.734,60.381 C259.544,59.143 258.687,57.905 257.925,57.619 C256.877,57.238 256.496,57.81 256.496,60 C256.496,62.857 256.306,62.953 252.211,62.953 C248.496,62.953 243.354,61.238 246.02,60.857 C246.592,60.857 245.639,60.477 244.115,60.096 C239.258,59.048 239.639,56.953 244.782,56.953 C248.02,56.953 249.163,56.572 249.163,55.524 C249.163,54.667 248.782,54 248.306,54 C247.83,54 247.544,54.477 247.544,54.953 C247.544,55.524 246.782,56 246.02,56 C244.115,56 244.115,55.048 246.115,52.096 C247.258,50.477 248.306,50 250.02,50.381 C252.782,51.143 254.211,48.477 251.83,47.143 C250.496,46.381 250.401,45.715 251.258,43.143 C251.925,41.429 252.02,40 251.639,40 C251.163,40 250.877,36.953 250.973,33.238 C251.163,26.381 250.115,23.905 245.354,18.953 C244.496,18 242.973,15.048 242.115,12.381 C241.163,9.715 239.544,6.381 238.401,5.048 C236.687,2.953 236.02,2.762 234.401,3.81 C231.735,5.524 230.401,5.334 226.306,2.477 C222.973,0.191 221.639,0 212.306,0 C204.782,0.096 201.449,0.477 200.02,1.524 C198.973,2.381 196.306,3.048 194.02,3.048 C187.925,3.048 185.068,6.191 182.687,15.524 C180.782,22.858 180.877,34.953 182.782,38.191 C183.544,39.429 185.068,43.143 186.02,46.477 C187.449,51.238 188.877,53.429 193.354,57.715 L198.877,62.953 L184.211,62.953 L169.544,62.953 L169.449,40.762 C169.354,28.477 169.258,14.477 169.163,9.524 L168.973,0.477 L152.116,0.191 C137.068,0 135.354,0.096 135.83,1.524 C136.782,3.81 134.687,11.238 131.354,17.81 C128.02,24.191 128.877,26.858 132.877,23.048 C135.163,20.953 136.401,20.762 149.449,20.477 C157.163,20.286 163.735,20.477 164.02,20.953 C164.306,21.524 163.068,22.096 161.258,22.381 C159.449,22.667 156.401,23.143 154.497,23.524 C152.592,23.81 147.258,24.096 142.782,24.096 C135.354,24 134.497,24.191 134.497,25.905 C134.497,27.429 135.258,27.715 138.782,27.715 C141.068,27.619 144.306,28.096 146.02,28.762 C147.639,29.429 150.116,30.191 151.544,30.477 C155.068,31.143 166.496,40.762 166.496,43.048 C166.496,44.477 164.496,44.191 164.496,42.762 C164.401,41.048 156.211,35.048 153.925,34.953 C152.877,34.953 151.163,34.286 150.02,33.429 C148.973,32.667 146.687,32 144.973,32 C143.163,32 141.163,31.334 140.497,30.572 C139.258,28.953 138.592,29.524 132.116,38.286 L129.354,42 L131.735,42.857 L134.02,43.81 L131.354,44.477 C129.354,45.048 128.877,45.619 129.258,47.524 C129.639,49.429 129.163,50.191 127.354,50.953 C125.639,51.619 125.449,51.905 126.687,51.905 C127.639,52 129.163,53.334 130.02,54.953 C131.639,58.286 132.497,58.572 134.211,56.857 C136.211,54.953 138.687,56.667 138.306,59.715 C138.02,62.381 137.735,62.477 132.211,62.762 C127.258,63.048 126.02,62.762 123.925,60.762 C122.592,59.524 121.544,57.334 121.544,56 C121.449,51.715 120.401,49.238 118.401,48.667 C116.782,48.286 116.592,47.619 117.068,45.524 C117.544,43.715 117.258,42.381 116.116,41.238 C115.163,40.286 113.639,38.477 112.687,37.143 L110.878,34.762 L106.497,37.143 C104.02,38.381 101.735,39.715 101.544,40 C100.306,41.524 97.544,41.905 97.544,40.572 C97.544,39.143 101.544,35.81 104.782,34.667 C105.735,34.381 106.497,33.619 106.497,33.143 C106.497,32.572 108.116,31.619 110.02,30.953 C111.925,30.381 113.449,29.524 113.449,29.143 C113.449,28.762 109.735,28.477 105.068,28.477 C96.687,28.477 96.687,28.477 93.163,32.191 C91.258,34.286 89.449,36.477 89.068,37.238 C88.782,37.905 88.782,37.143 89.068,35.524 C89.354,33.905 90.782,31.619 92.211,30.477 C93.544,29.429 95.639,27.715 96.687,26.762 C98.306,25.429 100.306,25.143 106.306,25.334 C113.544,25.619 113.925,25.81 116.782,29.048 L119.735,32.477 L119.068,27.524 C118.687,24.762 117.925,22.096 117.449,21.524 C116.877,21.048 116.497,19.81 116.497,18.953 C116.497,18 115.925,16.953 115.163,16.667 C114.401,16.381 113.735,14.191 113.639,11.143 C113.354,6.096 114.687,3.81 116.782,5.905 C117.639,6.762 118.497,6.286 120.211,4.286 L122.497,1.524 L121.925,6.667 C121.544,9.905 121.639,12 122.401,12.381 C123.544,13.143 124.211,10.762 124.687,4.286 L125.068,0 L105.83,0 L86.497,0 L86.306,31.715 z M211.544,4.572 C213.639,7.048 211.258,8.572 207.544,7.048 C205.83,6.286 204.496,5.429 204.496,5.048 C204.496,2.572 209.639,2.286 211.544,4.572 z M211.258,10.572 C215.83,13.715 212.782,22 207.068,22 C204.496,22 201.544,24.381 201.544,26.381 C201.544,28.953 197.639,31.143 192.687,31.524 C188.306,31.81 187.639,31.619 186.401,29.334 C184.687,26.191 184.687,20.667 186.401,18.572 C188.02,16.572 191.449,16.572 195.068,18.477 C198.496,20.191 199.83,19.524 199.068,16.381 C198.116,12.477 201.068,8.953 205.354,8.953 C207.449,8.953 210.02,9.715 211.258,10.572 z M234.401,20.858 C235.163,21.429 235.449,22.286 235.068,22.858 C234.687,23.524 234.782,24 235.354,24 C235.925,24 236.592,23.429 236.877,22.762 C237.163,22.096 237.354,22.381 237.449,23.429 C237.449,24.477 236.687,25.905 235.735,26.572 C234.115,27.81 234.115,27.905 236.211,28 C237.449,28 238.496,28.477 238.496,29.048 C238.496,29.619 237.449,30.096 236.211,30 C231.449,29.619 230.877,30 233.544,32 L236.02,34 L232.401,34 C227.068,34 222.782,31.524 221.925,27.905 C221.163,24.381 222.211,23.048 226.782,21.334 C230.782,19.905 232.592,19.81 234.401,20.858 z M221.639,38.381 C222.401,40.191 222.306,41.429 221.068,43.905 C218.211,49.429 210.496,47.429 210.496,41.048 C210.496,38.857 211.163,37.905 213.258,37.143 C217.925,35.429 220.496,35.81 221.639,38.381 z M95.83,47.334 C95.163,52.572 93.544,53.715 93.544,48.953 C93.544,45.905 95.258,41.429 96.116,42.286 C96.306,42.477 96.211,44.762 95.83,47.334 z M201.83,49.334 C204.115,52.857 204.306,56.381 202.211,56.762 C200.877,57.048 200.496,56.477 200.496,54.191 C200.496,52.572 199.83,50.667 198.973,50 C197.735,48.953 197.544,49.048 197.544,50.381 C197.544,51.238 197.925,52 198.496,52 C199.068,52 199.354,53.143 199.258,54.572 L199.068,57.048 L195.639,53.524 C191.639,49.238 192.02,46.953 196.877,46.953 C199.354,46.953 200.687,47.619 201.83,49.334 z M230.592,48.572 C231.639,49.81 231.449,50.857 229.735,54.477 C227.925,58.096 226.973,59.048 224.02,59.524 C219.068,60.477 217.163,58.762 218.02,54.096 C218.401,52.096 219.354,49.715 220.211,48.762 C222.211,46.572 228.782,46.381 230.592,48.572 z M226.02,62 C223.258,63.143 222.496,63.143 222.496,62 C222.496,61.429 223.735,61.048 225.258,61.048 C227.639,61.143 227.735,61.238 226.02,62 z" fill="#000000"/>
      <path d="M256.877,0.953 C256.02,1.81 256.592,14.953 257.544,15.524 C258.02,15.81 258.496,15.429 258.496,14.572 C258.496,13.715 259.83,12.381 261.544,11.524 C264.02,10.191 264.496,9.334 264.496,6.191 C264.496,4.096 264.973,1.905 265.639,1.334 C266.401,0.477 265.449,0.191 262.02,0.381 C259.449,0.477 257.163,0.667 256.877,0.953 z" fill="#000000"/>
      <path d="M335.544,19.619 C335.639,35.429 335.925,39.619 337.068,40.762 C338.877,42.572 340.782,41.238 343.353,36.477 C348.592,26.381 350.877,22.477 352.115,21.238 C352.877,20.477 353.544,19.429 353.544,18.953 C353.544,18.477 356.972,14.667 361.258,10.477 C368.592,3.238 368.877,2.762 367.068,1.429 C364.687,-0.381 360.782,-0.476 360.211,1.238 C359.925,2.191 359.449,2.191 358.115,1.143 C356.687,-0.095 356.496,0.096 356.496,2.381 C356.496,3.81 356.02,4.953 355.544,4.953 C354.972,4.953 354.496,4.572 354.496,4.096 C354.496,3.524 353.544,2.858 352.496,2.477 C351.353,2.191 350.687,1.429 351.068,0.953 C351.353,0.381 348.211,0 343.544,0 L335.449,0 L335.544,19.619 z M353.258,4.572 C352.877,4.953 352.02,4.953 351.353,4.667 C350.496,4.381 350.782,4.096 351.925,4.096 C352.972,4 353.544,4.286 353.258,4.572 z" fill="#000000"/>
      <path d="M371.163,1.429 C370.687,2.762 371.544,2.858 376.782,2.096 C377.163,2.096 377.544,1.524 377.544,0.953 C377.544,-0.571 371.734,-0.19 371.163,1.429 z" fill="#000000"/>
      <path d="M386.02,1.048 C386.306,1.619 387.068,1.81 387.544,1.429 C388.972,0.572 388.687,0 386.972,0 C386.115,0 385.639,0.477 386.02,1.048 z" fill="#000000"/>
      <path d="M63.258,11.143 C61.258,14.572 61.735,16.286 63.925,13.905 C65.639,12.191 66.973,8 65.83,8 C65.354,8 64.211,9.429 63.258,11.143 z" fill="#000000"/>
      <path d="M307.163,9.81 C306.02,11.905 305.544,16 306.496,16 C307.163,16 307.353,15.619 307.068,15.143 C306.02,13.429 309.83,12.858 311.449,14.477 C312.782,15.81 312.782,16.191 311.639,16.953 C310.687,17.524 310.401,18.667 310.877,20.477 C311.449,22.667 311.163,23.238 309.449,23.715 C308.211,24.096 307.163,25.334 306.782,27.143 C306.211,30.096 304.496,31.143 304.496,28.477 C304.496,27.715 304.02,26.953 303.449,26.953 C302.877,26.953 302.496,27.81 302.687,28.762 C303.068,30.953 308.973,31.715 311.163,29.905 C312.401,28.858 312.877,28.858 313.639,30.286 C314.211,31.238 315.068,31.81 315.544,31.429 C316.973,30.572 316.687,26.953 315.258,27.238 C314.401,27.429 314.115,26.286 314.306,23.334 C314.496,21.048 314.115,18.953 313.544,18.572 C312.782,18.096 312.782,17.334 313.544,15.905 C314.115,14.858 314.306,13.524 314.02,13.048 C313.163,11.715 307.544,9.048 307.163,9.81 z" fill="#000000"/>
      <path d="M32.782,10.667 C33.735,10.953 35.259,10.953 36.211,10.667 C37.163,10.477 36.401,10.191 34.497,10.191 C32.592,10.191 31.83,10.477 32.782,10.667 z" fill="#000000"/>
      <path d="M4.973,14 C4.687,14.572 3.544,14.953 2.401,14.953 C0.782,14.953 0.497,15.715 0.497,19.524 C0.497,22 0.782,24 1.068,24 C1.354,24 2.878,23.048 4.497,21.81 C7.83,19.334 9.544,20.096 7.64,23.143 C5.735,26.191 7.068,26.572 11.259,24.477 C16.497,21.81 18.497,21.905 21.259,24.667 C23.83,27.238 26.973,27.429 26.973,24.953 C26.973,24.191 28.306,22.191 29.83,20.667 C32.116,18.381 32.401,17.619 31.354,16.858 C29.259,15.619 29.068,15.715 27.83,18.953 C27.068,20.953 26.02,22 24.687,22 C20.497,22 17.639,19.619 20.878,18.858 C22.02,18.572 21.925,18 20.306,16 C18.497,13.715 18.211,13.715 17.068,15.238 C16.116,16.477 14.401,16.953 10.878,16.953 C6.592,16.953 6.211,16.762 7.735,15.619 C8.687,14.858 9.163,14 8.782,13.619 C7.83,12.667 5.735,12.858 4.973,14 z" fill="#000000"/>
      <path d="M22.306,14.667 C23.068,14.953 23.925,14.953 24.211,14.572 C24.592,14.286 23.925,14 22.878,14.096 C21.735,14.096 21.544,14.381 22.306,14.667 z" fill="#000000"/>
      <path d="M35.544,18 C35.544,18.572 35.925,18.953 36.497,18.953 C37.068,18.953 37.544,18.572 37.544,18 C37.544,17.429 37.068,16.953 36.497,16.953 C35.925,16.953 35.544,17.429 35.544,18 z" fill="#000000"/>
      <path d="M46.782,20 C46.687,21.334 47.259,22 48.592,22 C49.83,22 50.497,21.334 50.497,20 C50.497,18.762 49.83,18 48.687,18 C47.639,18 46.878,18.762 46.782,20 z" fill="#000000"/>
      <path d="M280.211,19.619 C279.353,20.477 280.306,22 281.544,22 C282.115,22 282.496,21.334 282.496,20.477 C282.496,18.953 281.353,18.477 280.211,19.619 z" fill="#000000"/>
      <path d="M121.544,26.477 C121.544,30.286 121.83,30.953 123.544,30.953 C125.83,30.953 126.211,28.477 123.925,27.619 C122.877,27.238 122.592,26.286 123.068,24.477 C123.449,22.953 123.258,22 122.592,22 C121.925,22 121.544,23.905 121.544,26.477 z" fill="#000000"/>
      <path d="M38.116,24.572 C38.878,26.286 41.639,26.096 42.211,24.286 C42.497,23.429 41.735,22.953 40.116,22.953 C38.211,22.953 37.735,23.429 38.116,24.572 z" fill="#000000"/>
      <path d="M49.259,28.953 C48.878,30.096 49.354,31.143 50.306,31.429 C52.306,32.286 53.925,30.572 53.163,28.572 C52.306,26.381 49.83,26.572 49.259,28.953 z" fill="#000000"/>
      <path d="M70.02,28.953 C69.639,29.524 69.83,30 70.401,30 C70.973,30 71.544,29.524 71.544,28.953 C71.544,28.477 71.258,28 71.068,28 C70.782,28 70.306,28.477 70.02,28.953 z" fill="#000000"/>
      <path d="M46.02,32 C45.639,32.572 46.116,32.953 46.973,32.953 C47.925,32.953 48.306,32.572 48.02,32 C47.639,31.429 47.163,30.953 46.973,30.953 C46.782,30.953 46.306,31.429 46.02,32 z" fill="#000000"/>
      <path d="M42.973,34.953 C43.354,35.524 43.83,36 44.02,36 C44.306,36 44.497,35.524 44.497,34.953 C44.497,34.477 44.02,34 43.449,34 C42.878,34 42.687,34.477 42.973,34.953 z" fill="#000000"/>
      <path d="M34.306,37.81 C34.02,40 34.306,40.667 35.735,40.762 C37.259,40.857 37.449,40.572 36.497,39.429 C35.544,38.286 35.639,37.905 36.878,37.429 C38.687,36.762 38.116,34.953 36.02,34.953 C35.354,34.953 34.497,36.286 34.306,37.81 z" fill="#000000"/>
      <path d="M303.734,35.715 C302.211,36 301.544,36.857 301.544,38.477 C301.544,39.715 300.496,41.429 299.258,42.191 C297.353,43.524 297.163,44 298.211,46.286 C301.068,52.572 311.068,53.619 316.592,48.381 C319.925,45.238 320.211,43.81 317.925,41.524 C315.925,39.619 314.496,39.524 314.496,41.524 C314.496,42.286 314.973,42.953 315.544,42.953 C316.02,42.953 316.496,43.429 316.496,44 C316.496,44.572 315.639,44.953 314.496,44.953 C313.353,44.953 312.496,45.429 312.496,46 C312.496,46.572 311.639,46.953 310.496,46.953 C309.353,46.953 308.496,46.286 308.496,45.524 C308.496,44.667 308.973,44 309.544,44 C310.02,44 310.496,42.667 310.496,40.953 C310.496,38.286 310.782,38 312.496,38.477 C313.925,38.953 314.496,38.667 314.496,37.524 C314.496,36.572 313.639,36 312.211,36 C310.973,36 309.068,35.81 308.02,35.619 C306.877,35.429 304.973,35.429 303.734,35.715 z M306.687,39.524 C306.687,40 306.115,40.572 305.544,40.762 C304.973,41.048 304.496,40.381 304.496,39.524 C304.496,38.572 304.973,38 305.544,38.191 C306.115,38.381 306.687,38.953 306.687,39.524 z M306.496,46.953 C306.496,47.524 306.02,48 305.449,48 C304.877,48 304.687,47.524 304.973,46.953 C305.353,46.477 305.83,46 306.02,46 C306.306,46 306.496,46.477 306.496,46.953 z" fill="#000000"/>
      <path d="M51.354,38.381 C50.306,39.143 49.925,40.096 50.401,40.953 C51.068,41.905 51.735,41.81 53.354,40.381 C54.497,39.334 55.544,38.191 55.544,37.81 C55.544,36.572 53.163,36.953 51.354,38.381 z" fill="#000000"/>
      <path d="M11.925,44.857 C17.354,50.477 17.544,50.572 17.449,48.762 C17.354,46.667 12.211,41.334 9.544,40.477 C7.449,39.905 7.83,40.667 11.925,44.857 z" fill="#000000"/>
      <path d="M38.497,42 C38.497,42.572 39.354,42.953 40.497,42.953 C41.639,42.953 42.497,42.572 42.497,42 C42.497,41.429 41.639,40.953 40.497,40.953 C39.354,40.953 38.497,41.429 38.497,42 z" fill="#000000"/>
      <path d="M339.544,43.429 C339.544,44.191 339.925,45.143 340.496,45.524 C341.068,45.81 341.544,45.238 341.544,44.096 C341.544,42.953 341.068,42 340.496,42 C339.925,42 339.544,42.667 339.544,43.429 z" fill="#000000"/>
      <path d="M254.592,44.572 C254.592,45.715 254.877,46 255.163,45.143 C255.449,44.477 255.449,43.619 255.068,43.238 C254.782,42.953 254.496,43.524 254.592,44.572 z" fill="#000000"/>
      <path d="M41.163,46.381 C40.592,47.905 41.259,48.953 42.687,48.953 C43.735,48.953 43.735,46.286 42.592,45.524 C42.116,45.238 41.449,45.619 41.163,46.381 z" fill="#000000"/>
      <path d="M46.497,46 C46.497,46.477 47.639,47.238 48.973,47.619 C50.401,47.905 51.544,48.572 51.544,49.143 C51.544,49.619 52.211,50 52.973,50 C55.354,50 54.782,48.572 51.639,46.762 C48.306,44.762 46.497,44.477 46.497,46 z" fill="#000000"/>
      <path d="M382.115,46.857 C380.115,49.048 380.02,50 381.925,50 C383.734,50 385.925,46.381 384.591,45.619 C384.115,45.334 383.068,45.905 382.115,46.857 z" fill="#000000"/>
      <path d="M60.592,48.953 C59.83,49.429 59.544,50.572 59.925,51.905 C60.592,54 62.497,54.857 62.497,52.953 C62.497,52.477 62.02,52 61.354,52 C60.592,52 60.687,51.524 61.544,50.477 C62.973,48.667 62.497,47.81 60.592,48.953 z" fill="#000000"/>
      <path d="M67.258,52.096 C67.544,53.715 68.306,54.953 69.068,54.953 C71.163,54.953 70.782,51.715 68.687,50.381 C67.068,49.334 66.878,49.524 67.258,52.096 z" fill="#000000"/>
      <path d="M18.497,52.762 C18.497,53.238 19.259,55.81 20.116,58.381 C21.639,62.762 21.925,63.143 24.401,62.477 C25.83,62.096 27.163,61.619 27.354,61.429 C27.83,61.048 20.592,52.667 19.354,52.191 C18.878,52 18.497,52.286 18.497,52.762 z" fill="#000000"/>
      <path d="M370.211,55.334 C366.877,58.953 366.782,60.381 369.734,59.429 C372.972,58.477 374.496,57.048 374.496,54.953 C374.496,52 373.163,52.096 370.211,55.334 z" fill="#000000"/>
      <path d="M336.211,55.143 C335.544,57.429 337.449,59.905 341.258,61.905 C343.449,63.048 344.592,61.81 342.496,60.477 C341.925,60.191 341.544,58.381 341.544,56.477 C341.544,52.572 339.83,51.715 339.163,55.238 L338.782,57.524 L338.592,55.238 C338.496,52.381 336.877,52.286 336.211,55.143 z" fill="#000000"/>
      <path d="M386.496,58 C386.496,58.572 386.972,58.953 387.544,58.953 C388.115,58.953 388.306,58.572 388.02,58 C387.639,57.429 387.163,56.953 386.972,56.953 C386.687,56.953 386.496,57.429 386.496,58 z" fill="#000000"/>
      <path d="M253.354,58.667 C254.02,58.953 254.877,58.953 255.258,58.572 C255.544,58.286 254.973,58 253.925,58.096 C252.782,58.096 252.496,58.381 253.354,58.667 z" fill="#000000"/>
      <path d="M55.259,62.762 C54.687,67.524 54.878,67.81 58.02,67.238 C59.925,66.857 60.401,66.381 59.925,65.143 C59.544,64.191 59.163,62.477 59.259,61.238 C59.259,59.715 58.687,58.953 57.544,58.953 C56.211,58.953 55.544,60 55.259,62.762 z" fill="#000000"/>
      <path d="M67.83,64.096 C69.163,64.857 70.02,64.857 70.782,64.096 C71.639,63.334 71.068,63.048 68.973,63.048 C66.401,63.048 66.211,63.238 67.83,64.096 z" fill="#000000"/>
      <path d="M320.211,66.762 L296.496,67.048 L296.782,152.095 L296.973,237.048 L347.449,237.048 C386.306,236.953 398.115,236.667 398.687,235.714 C399.068,235.048 399.449,196.857 399.449,150.762 L399.544,66.953 L377.258,66.857 C364.972,66.762 352.496,66.667 349.544,66.572 C346.496,66.572 333.353,66.667 320.211,66.762 z M371.639,76.762 C371.544,79.905 370.782,83.81 370.02,85.524 C367.639,90.667 365.544,97.429 365.544,99.715 C365.544,100.953 364.592,104.381 363.449,107.334 C362.306,110.476 361.258,115.905 361.163,120.191 C360.972,124.191 360.592,128.191 360.211,128.953 C359.925,129.81 359.639,131.81 359.734,133.524 C359.83,139.238 358.687,153.81 358.02,154.953 C356.877,156.762 355.544,155.048 355.544,152 C355.544,150.381 355.068,148.857 354.496,148.476 C353.353,147.81 354.115,116.667 355.353,112.953 C355.83,111.619 356.782,107.334 357.449,103.524 C359.449,92.191 360.401,88.953 362.115,88.953 C362.972,88.953 363.353,88.572 363.068,88.096 C362.02,86.477 365.449,77.334 368.02,75.238 C369.353,74 370.496,72.572 370.496,72 C370.496,71.429 370.877,70.953 371.258,70.953 C371.639,70.953 371.83,73.619 371.639,76.762 z M347.544,81.81 C347.544,83.334 346.782,85.619 345.83,86.857 C344.973,88.191 344.02,91.334 343.83,93.905 C343.639,96.476 342.02,101.334 340.211,104.953 C337.068,111.143 336.877,112 337.258,119.715 C337.639,126.286 338.02,128 339.258,128 C340.401,128 340.496,128.286 339.544,129.429 C338.592,130.572 338.592,131.334 339.544,133.048 C340.211,134.286 340.496,136.857 340.115,138.762 C339.83,140.857 340.115,143.334 340.973,145.048 C341.734,146.476 342.306,147.905 342.115,148.095 C341.925,148.286 341.544,150 341.163,151.715 C340.592,154.667 340.782,154.953 342.877,154.953 C345.258,154.953 347.449,151.715 347.544,148.191 C347.544,147.048 348.02,147.524 348.972,149.334 C351.544,154.286 353.925,156.476 356.972,156.857 C360.877,157.238 361.925,158.286 360.687,160.667 C359.449,162.953 361.83,169.334 363.734,168.762 C364.401,168.572 365.544,166.191 366.211,163.619 C367.734,157.619 369.449,154.857 374.211,151.334 C376.306,149.81 378.211,148.286 378.496,148 C378.782,147.715 379.925,146.857 380.972,146 C382.782,144.667 382.877,144.667 381.83,146 C381.163,146.857 378.782,149.524 376.496,152 C374.211,154.476 371.925,157.429 371.353,158.476 C370.877,159.619 370.115,161.143 369.544,162 C368.02,164.572 365.544,173.715 365.544,176.953 C365.544,182.095 367.163,180.762 373.163,170.762 C376.211,165.619 379.734,166 383.449,171.715 C384.782,173.81 388.496,178 391.734,181.143 C397.449,186.667 398.401,188.286 396.496,189.524 C395.925,189.81 394.782,188.572 393.925,186.762 C393.068,184.953 391.258,182.762 389.925,182 C388.687,181.143 385.353,178.572 382.591,176.191 L377.639,171.905 L374.401,176.762 C372.687,179.334 369.83,182.953 368.211,184.762 C365.449,187.619 365.353,188 366.972,188.572 C368.687,189.334 377.83,186.857 382.496,184.476 C385.925,182.762 389.734,185.143 388.591,188.286 C388.211,189.524 387.734,195.429 387.544,201.524 C387.449,207.524 386.877,212.762 386.306,213.143 C385.83,213.429 384.211,213.429 382.687,213.143 C380.115,212.667 380.02,212.667 382.306,211.714 C384.401,210.762 384.496,210.095 384.496,199.714 L384.496,188.762 L381.258,189.334 C373.544,190.762 365.353,192.857 364.782,193.429 C364.401,193.714 364.115,196.381 364.02,199.238 C364.02,202.095 363.639,204.953 363.353,205.524 C362.401,206.953 362.592,212.286 363.639,214.191 C364.115,215.238 364.115,216.095 363.544,216.476 C363.068,216.762 363.734,218.095 365.068,219.429 C366.877,221.334 367.353,222.667 366.972,225.619 C366.782,227.81 366.592,230.095 366.592,230.762 C366.496,232.762 364.496,232.191 364.496,230.191 C364.496,229.238 363.83,227.524 363.068,226.476 C361.639,224.572 361.544,224.572 360.306,226.286 C359.163,227.81 357.83,228 351.734,227.714 C346.687,227.429 344.02,226.857 343.258,225.714 C341.544,223.619 337.544,225.238 337.544,228 C337.544,229.143 336.877,230 336.02,230 C334.306,230 334.02,228.476 335.449,227.524 C336.115,227.143 336.02,226.191 335.258,224.953 C334.306,223.429 334.496,222.667 336.496,220.476 C338.496,218.381 338.877,216.953 338.877,212.476 C338.782,209.524 338.211,205.714 337.544,204.095 C336.687,202 336.592,200.667 337.449,199.143 C339.449,195.429 338.687,192.953 335.163,191.524 C333.258,190.762 330.401,188.381 328.687,186.286 C323.068,179.524 322.401,178.953 321.449,179.524 C320.973,179.81 320.496,180.953 320.496,182 C320.496,182.953 320.115,184 319.639,184.191 C317.639,184.857 311.83,193.714 310.687,197.81 C309.544,201.429 309.163,201.905 307.925,200.953 C305.83,199.238 306.115,197.81 309.449,194 C311.068,192.095 312.401,190 312.496,189.334 C312.496,188.762 313.163,187.714 313.925,187.048 C314.782,186.381 315.734,184.286 316.115,182.381 C316.877,178.095 320.02,174 322.592,174 C323.925,174 325.068,175.143 326.02,177.238 C327.544,180.857 332.02,186 333.639,186 C334.973,186 333.83,181.048 332.02,178.953 C331.353,178.191 329.734,175.429 328.496,172.953 C325.734,167.429 325.83,167.524 324.306,168.762 C322.496,170.095 304.211,171.334 304.973,170 C305.353,169.429 308.02,168.953 310.973,168.953 C314.782,168.953 317.734,168.286 320.877,166.572 C323.449,165.238 326.02,164 326.592,163.81 C327.925,163.334 326.877,158.953 325.449,158.953 C324.496,158.953 313.544,152.095 312.496,150.953 C312.211,150.572 310.782,150 309.258,149.619 C307.734,149.238 306.496,148.572 306.496,148 C306.496,146 308.306,146.191 311.353,148.381 C313.068,149.619 316.401,151.429 318.687,152.476 C328.592,156.572 329.83,157.619 332.02,163.334 C333.163,166.381 334.306,169.143 334.687,169.524 C335.068,169.905 336.592,168.286 338.02,166 C340.115,162.667 340.496,161.238 339.734,159.619 C337.544,154.953 336.306,149.334 332.496,126 C330.973,116.286 330.782,113.715 331.83,109.81 C332.496,107.238 333.353,104.762 333.734,104.381 C334.211,104 334.496,102.572 334.496,101.334 C334.496,100 335.163,98.667 336.02,98.381 C336.782,98 337.544,97.429 337.544,96.953 C337.544,96.476 338.02,94.857 338.687,93.334 C339.734,90.667 339.925,89.81 340.306,85.81 C340.592,83.524 345.449,77.905 346.592,78.572 C347.068,78.857 347.544,80.381 347.544,81.81 z M388.877,139.238 C387.639,141.429 385.163,144 384.306,144 C382.877,144 383.353,142.476 385.544,140.191 C387.734,137.81 390.115,137.143 388.877,139.238 z" fill="#000000"/>
      <path d="M336.592,144.572 C336.592,145.715 336.877,146 337.163,145.143 C337.449,144.476 337.449,143.619 337.068,143.238 C336.782,142.953 336.496,143.524 336.592,144.572 z" fill="#000000"/>
      <path d="M53.163,69.715 C52.878,70.191 51.163,70.762 49.449,70.762 C45.544,70.857 44.116,72 47.83,72 C50.497,72 50.592,72.191 49.925,75.715 C49.068,80.381 48.782,80.953 46.973,80.953 C46.211,80.953 45.259,82.477 44.878,84.667 C44.497,86.953 43.544,88.476 42.401,88.762 C41.449,88.953 40.116,90.762 39.449,92.572 C38.878,94.476 37.735,96 36.878,96 C36.116,96 35.163,96.762 34.782,97.715 C34.401,98.667 33.259,100.096 32.306,100.857 C31.259,101.524 30.592,102.857 30.687,103.81 C30.878,105.048 30.401,105.429 28.592,105.238 C26.592,105.048 26.401,105.334 26.878,107.334 C27.544,110.191 26.306,111.524 21.735,112.476 C17.83,113.334 17.354,115.238 21.259,114.762 C23.354,114.572 23.925,114.953 23.83,116.286 C23.639,118.572 25.163,117.524 27.068,113.905 C28.211,111.715 29.259,110.953 31.449,110.953 C33.83,110.953 34.211,110.667 33.735,108.953 C33.354,107.429 33.83,106.762 35.354,106.286 C36.782,106 37.544,104.953 37.544,103.429 C37.544,102.096 38.401,100.572 39.449,100 C40.497,99.524 41.639,97.619 42.02,96 C42.878,92.096 46.02,91.905 46.973,95.619 C47.449,97.619 47.925,98 48.782,97.143 C49.639,96.286 49.639,95.715 48.687,94.762 C47.163,93.334 47.163,89.524 48.592,86.857 C49.449,85.143 49.925,85.048 51.259,86.191 C52.687,87.334 52.782,87.048 52.306,83.429 C51.544,78.191 52.687,76.096 55.925,76.762 C58.878,77.334 59.259,75.905 56.878,73.905 C56.02,73.143 54.973,71.715 54.592,70.572 C54.116,69.524 53.544,69.143 53.163,69.715 z" fill="#000000"/>
      <path d="M86.497,203.714 L86.497,338.476 L89.068,335.714 C90.401,334.191 91.925,333.048 92.401,333.048 C94.306,333.048 94.211,334.381 92.211,336.095 C90.02,337.905 90.116,337.905 98.116,338 L106.306,338 L112.877,331.524 C117.449,327.048 120.211,324.952 121.925,324.952 C124.211,325.048 127.925,322.286 143.639,308.952 C146.306,306.762 148.592,305.048 148.782,305.048 C149.544,305.048 150.497,312.572 151.068,322.857 C151.735,334.667 153.544,338 159.544,338 C161.639,338 164.592,337.429 165.925,336.857 C167.925,336 169.449,335.905 172.211,336.762 C174.211,337.429 176.116,337.714 176.306,337.524 C176.592,337.238 175.83,335.429 174.687,333.333 C173.544,331.238 170.211,324.762 167.449,319.048 L162.306,308.572 L162.973,296 C163.354,289.143 164.116,282.762 164.592,281.905 C165.068,280.953 166.592,279.905 168.02,279.619 C169.83,279.143 170.496,278.476 170.116,277.429 C169.163,275.048 172.02,275.81 175.544,278.857 C178.496,281.429 187.163,284.952 190.496,285.048 C192.973,285.048 201.544,289.333 201.163,290.381 C200.782,291.619 208.115,298 209.925,298 C210.592,298 212.401,299.333 213.83,300.952 C215.639,303.048 217.449,304 219.354,304 C222.687,304 224.115,306.286 221.925,308.095 C219.544,310 220.306,311.333 223.449,310.667 C225.258,310.286 226.687,310.572 227.354,311.333 C228.02,312.095 229.83,312.476 231.735,312.286 C234.877,311.81 234.496,312.286 225.449,321.143 C220.115,326.286 213.83,332.191 211.449,334.191 L206.973,337.905 L214.687,338 L222.401,338 L225.163,334.286 C229.068,329.143 240.592,317.048 242.782,315.905 C244.973,314.667 254.02,316.572 256.592,318.667 C257.449,319.429 258.592,320 259.163,320 C259.734,320 260.782,320.667 261.449,321.429 C262.115,322.191 264.306,323.143 266.496,323.524 C268.592,323.81 270.592,324.857 270.973,325.714 C271.354,326.857 272.401,327.048 274.782,326.667 C276.496,326.286 278.687,326.476 279.449,326.952 C280.401,327.619 281.734,327.143 283.734,325.429 C286.973,322.762 289.83,323.333 290.973,327.048 C291.353,328.095 292.02,328.762 292.592,328.476 C293.163,328.095 293.544,276.953 293.544,198.476 L293.544,68.953 L190.02,68.953 L86.497,68.953 L86.497,203.714 z M182.496,79.429 C187.163,82.191 187.735,82.286 189.735,81.143 C192.496,79.429 195.354,80.667 200.115,85.524 C207.639,93.334 210.782,93.81 215.068,87.905 L218.02,83.905 L225.163,84.477 C229.163,84.762 233.639,85.715 235.163,86.572 C236.782,87.334 238.592,88 239.258,88 C241.544,88 249.544,92 249.544,93.143 C249.544,93.715 251.258,96 253.449,98.096 C255.639,100.191 258.592,104.381 260.02,107.429 C261.734,110.953 264.02,113.905 266.496,115.715 C271.163,119.048 273.258,123.619 273.258,130.762 C273.258,134.286 273.925,136.857 275.163,138.667 C278.401,143.334 280.02,146.762 280.973,151.524 C282.782,160.286 284.496,168 285.639,172.286 C286.973,177.524 287.068,177.048 281.354,192.476 C279.734,196.857 277.258,201.524 275.925,202.667 L273.544,204.857 L277.354,204.762 C279.544,204.667 282.02,205.143 282.877,205.905 C284.973,207.619 284.973,210.857 282.877,211.714 C281.83,212.095 281.544,213.048 281.925,214.476 C282.211,215.905 281.925,217.238 280.973,218 C280.211,218.667 279.544,219.714 279.544,220.191 C279.544,220.762 278.592,222.286 277.544,223.714 C276.401,225.143 275.544,227.143 275.544,228.095 C275.544,229.143 274.877,230 274.115,230 C271.734,230 270.02,226.953 268.877,220.762 C267.925,215.429 268.02,214.476 270.211,209.81 C272.687,204.381 272.687,200.953 269.925,193.714 C269.163,191.619 268.496,188.381 268.496,186.572 C268.496,184.667 267.925,181.905 267.354,180.286 C266.687,178.762 266.115,173.429 266.02,168.476 C265.925,163.524 265.354,158.572 264.782,157.524 C264.211,156.381 262.687,152.381 261.449,148.476 C260.211,144.667 258.401,139.905 257.449,138 C255.449,134 246.687,124.953 244.782,124.953 C243.068,124.953 242.973,124.762 246.973,132.476 C248.877,136.096 250.496,140.191 250.496,141.524 C250.496,142.857 251.639,145.524 252.973,147.524 C256.782,153.238 257.449,162.857 254.306,166.762 C253.734,167.429 252.115,168 250.592,168 C247.544,168 233.735,172.572 231.735,174.191 C229.639,176 227.449,181.905 227.544,185.905 C227.544,187.905 228.401,194.953 229.354,201.619 C230.306,208.286 230.877,215.905 230.592,218.572 C230.115,222.762 229.544,223.714 226.973,225.048 C225.354,225.81 222.973,227.238 221.735,228.095 L219.449,229.714 L222.973,233.143 C228.02,237.905 227.83,241.143 222.211,243.905 C218.592,245.619 217.068,245.81 212.592,245.143 C209.639,244.667 206.401,244.476 205.354,244.762 C204.306,245.048 202.401,244.476 201.068,243.619 C197.925,241.524 194.496,241.524 194.496,243.524 C194.496,245.429 195.449,245.714 204.02,246.381 C207.83,246.667 212.592,247.333 214.496,248 C216.401,248.572 219.354,249.048 220.973,248.953 C225.83,248.762 227.925,248.953 229.544,250 C230.782,250.762 230.496,251.333 228.115,253.524 C226.496,254.857 224.211,256.095 223.068,256.095 C210.973,256.857 211.258,256.762 210.02,260.762 C209.354,263.048 209.449,263.048 216.211,262.953 C225.639,262.762 231.925,264 232.306,266.286 C232.782,268.476 227.068,276 222.973,278.857 C221.354,279.905 216.782,281.333 212.877,281.905 C206.973,282.762 205.068,282.762 202.115,281.524 C200.211,280.667 197.354,280 195.925,280 C194.401,280 191.354,279.143 189.068,278.095 C186.877,277.048 184.211,275.905 183.258,275.619 C182.306,275.333 181.544,274.191 181.544,273.143 C181.544,271.905 180.211,270.572 177.735,269.524 C169.735,265.81 167.925,263.619 165.163,254.762 C161.735,243.714 159.354,227.619 160.496,222.667 C160.973,220.572 161.163,212.857 160.973,205.524 C160.592,187.334 159.449,184.286 156.116,191.81 C153.925,196.667 147.258,204 145.068,204 C142.592,204 143.163,208.476 146.211,212 C148.592,214.857 148.687,215.524 147.639,218.381 C147.068,220.191 146.497,222.381 146.497,223.238 C146.497,224.095 144.687,226.762 142.401,229.143 C138.497,233.143 138.306,233.619 138.877,237.81 C139.544,242.476 138.306,246 136.116,246 C135.354,246 134.211,246.667 133.449,247.524 C131.258,250.191 122.687,247.81 119.258,243.619 C117.354,241.238 116.782,232.572 118.497,231.524 C119.068,231.143 120.401,229.048 121.544,226.953 C124.211,221.619 123.163,216.953 118.973,215.81 C116.782,215.238 115.735,215.429 114.877,216.476 C114.306,217.334 113.258,218 112.687,218 C112.116,218 110.687,219.143 109.544,220.572 C107.83,222.857 107.449,222.953 106.878,221.619 C106.497,220.667 106.973,219.143 107.925,218 C110.401,215.429 109.544,213.048 105.544,210.857 C100.782,208.381 99.258,204.191 98.782,192.476 C97.925,169.81 98.687,162.667 102.592,158.191 C105.068,155.429 105.449,154.381 104.878,151.143 C104.497,148.381 104.687,147.048 105.925,146.095 C106.782,145.334 107.544,143.429 107.544,141.81 C107.544,140.191 109.449,135.524 111.925,131.238 C114.401,126.953 116.782,121.524 117.354,119.143 C117.925,116.667 118.687,114.476 119.163,114.096 C120.497,113.143 128.497,102.191 128.497,101.334 C128.687,98.286 143.639,86.286 148.306,85.429 C150.306,85.048 154.211,83.619 156.973,82.381 C159.735,81.048 163.83,80 166.02,79.905 C168.211,79.81 171.163,79.429 172.496,78.953 C176.401,77.715 179.735,77.905 182.496,79.429 z M242.973,193.714 C248.306,194.572 248.877,194.857 247.449,196.476 C246.592,197.524 246.592,198 247.354,198 C248.02,198 248.496,199.334 248.496,200.953 C248.496,204.095 251.068,206.286 254.211,205.81 C255.449,205.619 256.115,206.286 256.306,207.905 C256.973,212.572 246.02,231.143 244.02,228.857 C243.258,227.905 239.258,215.334 236.973,206.476 C234.115,195.238 234.306,191.429 237.83,192.476 C238.973,192.857 241.354,193.429 242.973,193.714 z M244.877,245.238 C246.496,249.81 242.02,257.81 236.877,259.429 C234.877,260 234.687,259.714 234.877,254.762 C235.068,249.429 237.449,243.619 239.735,242.667 C242.211,241.619 243.925,242.572 244.877,245.238 z M105.544,267.524 C105.544,268.286 105.068,268.953 104.497,268.953 C103.925,268.953 103.544,268.286 103.544,267.524 C103.544,266.667 103.925,266 104.497,266 C105.068,266 105.544,266.667 105.544,267.524 z M211.544,288 C209.544,289.238 208.496,289.238 208.496,288 C208.496,287.429 209.544,287.048 210.782,287.048 C212.592,287.048 212.687,287.238 211.544,288 z M104.497,297.619 C104.497,298.476 103.639,299.905 102.592,300.857 C101.544,301.714 98.497,306.667 95.925,311.81 C90.592,322.286 89.544,322.381 89.544,312 C89.449,305.333 90.306,303.333 94.782,298.286 C97.354,295.429 104.497,294.952 104.497,297.619 z M100.782,322.762 C100.401,323.714 99.068,325.524 97.639,326.857 C95.354,329.048 95.163,329.048 94.211,327.429 C93.449,326 93.83,325.048 96.401,322.762 C99.735,319.81 101.83,319.81 100.782,322.762 z" fill="#000000"/>
      <path d="M185.735,166.667 C182.782,168.762 182.877,170.953 185.83,170.953 C187.163,170.953 189.639,171.524 191.449,172.095 L194.592,173.238 L192.592,175.429 C191.449,176.667 190.782,177.905 191.068,178.286 C192.02,179.143 186.877,180.286 185.544,179.524 C184.973,179.143 184.687,178.476 185.068,177.905 C186.02,176.286 182.116,176.953 178.782,178.953 C173.83,182 174.496,184.381 180.496,186 C183.258,186.762 186.306,188.191 187.163,189.143 C188.973,191.143 194.973,191.714 196.02,189.905 C196.401,189.334 197.735,189.143 199.068,189.429 C203.925,190.667 205.925,187.524 203.449,182.857 C202.592,181.334 202.687,180.572 203.83,179.714 C204.592,179.048 205.449,177.81 205.735,176.953 C206.02,176 207.544,175.524 210.592,175.524 C217.354,175.524 216.306,173.143 207.544,168.762 C201.258,165.619 198.973,165.048 194.02,165.048 C190.211,165.048 187.163,165.715 185.735,166.667 z" fill="#000000"/>
      <path d="M155.639,169.524 C153.163,172.191 153.354,173.429 156.496,174.286 C158.211,174.762 158.306,174.572 157.354,172.762 C156.496,171.048 156.592,170.381 157.83,169.429 C158.782,168.857 159.544,168 159.544,167.619 C159.544,166.381 157.925,167.143 155.639,169.524 z" fill="#000000"/>
      <path d="M118.877,190.095 C117.258,192 117.258,192.191 118.877,193.81 C120.497,195.429 120.687,195.429 122.02,193.524 C122.877,192.476 123.544,191.048 123.544,190.381 C123.544,188.286 120.687,188.095 118.877,190.095 z" fill="#000000"/>
      <path d="M138.401,217.238 C138.306,217.429 138.116,218.667 137.925,220 C137.735,221.334 137.258,224 136.877,225.714 C136.116,229.619 137.258,229.905 140.877,226.572 C143.449,224.191 144.401,220.953 142.592,220.953 C142.02,220.953 141.354,220.095 140.973,218.953 C140.497,217.334 138.877,216.286 138.401,217.238 z" fill="#000000"/>
      <path d="M209.925,224.095 C209.068,225.524 209.735,226 214.115,227.048 C218.877,228.095 219.735,227.429 216.592,224.953 C214.02,222.762 210.973,222.381 209.925,224.095 z" fill="#000000"/>
      <path d="M124.211,235.714 C122.306,237.524 123.735,240.762 127.449,242.857 L131.354,245.048 L133.925,242.476 C136.973,239.429 136.497,237.905 132.497,238.191 C130.877,238.286 128.782,237.619 127.735,236.667 C125.639,234.857 125.163,234.667 124.211,235.714 z" fill="#000000"/>
      <path d="M23.544,77.334 C23.449,80.477 27.449,87.905 30.02,89.619 C31.354,90.476 32.497,92 32.497,92.857 C32.497,94.096 32.878,93.905 34.02,92.286 C35.449,90.191 35.354,89.905 32.306,86.953 C30.497,85.238 27.83,82 26.306,79.715 C24.497,76.953 23.544,76.096 23.544,77.334 z" fill="#000000"/>
      <path d="M42.497,80 C42.497,80.572 42.973,80.953 43.544,80.953 C44.116,80.953 44.306,80.572 44.02,80 C43.639,79.429 43.163,78.953 42.973,78.953 C42.687,78.953 42.497,79.429 42.497,80 z" fill="#000000"/>
      <path d="M63.925,87.238 C63.639,88.191 62.687,88.667 61.925,88.286 C61.068,88 60.497,88.476 60.497,89.524 C60.497,90.857 60.973,91.048 62.782,90.572 C64.02,90.191 66.306,89.524 68.02,89.048 C70.116,88.476 70.401,88.191 68.973,88.096 C67.83,88 66.401,87.429 65.735,86.857 C64.878,85.905 64.401,86 63.925,87.238 z" fill="#000000"/>
      <path d="M68.687,90.857 C67.83,91.429 67.639,92 68.306,92.381 C68.782,92.667 69.83,92.286 70.497,91.524 C71.83,89.905 70.782,89.524 68.687,90.857 z" fill="#000000"/>
      <path d="M54.116,98.572 C53.068,101.238 53.354,101.715 56.02,102.381 C58.973,103.143 59.259,104.953 56.497,105.715 C54.973,106.096 54.687,106.572 55.544,107.524 C56.306,108.476 56.116,108.953 54.687,109.429 C52.687,110.096 50.878,114 52.592,114 C53.068,114 53.163,114.667 52.878,115.524 C52.497,116.286 51.544,116.953 50.687,116.953 C49.83,116.953 48.401,117.619 47.544,118.381 C45.449,120.286 41.544,120.572 38.306,119.048 C36.116,118 35.354,118 33.354,119.334 C32.116,120.286 31.639,120.953 32.306,120.953 C32.973,120.953 33.354,121.524 33.259,122.191 C32.973,123.334 33.544,123.619 36.973,123.905 C39.83,124.096 38.497,126.953 34.401,129.524 C31.163,131.619 30.02,131.905 28.878,130.953 C27.925,130.095 27.544,130.095 27.544,130.857 C27.544,131.524 26.782,132 25.925,132 C24.782,132 24.401,131.429 24.782,130 C25.068,128.857 24.878,128 24.401,128 C23.925,128 23.544,128.572 23.544,129.334 C23.544,130 22.401,131.619 20.973,132.857 C19.354,134.191 18.497,136 18.497,138 C18.497,139.905 17.83,141.334 16.497,142 C15.354,142.572 14.497,143.715 14.497,144.572 C14.497,145.429 13.544,146 12.02,146 C10.211,146 9.544,145.429 9.544,144 C9.544,142.857 8.878,142 8.116,142 C7.354,142 6.497,142.857 6.211,144 C5.83,145.334 4.878,146 3.068,146 L0.497,146 L0.497,160.953 C0.497,169.238 0.687,176 0.973,176 C1.259,176 3.64,173.714 6.211,170.953 C13.449,163.238 22.497,156.476 27.068,155.334 C32.02,154.095 52.306,156 60.401,158.381 C70.782,161.524 77.163,166.762 76.306,171.619 C76.116,172.667 76.497,173.429 77.258,173.238 C78.02,173.143 78.497,174.095 78.497,175.714 C78.497,177.143 78.973,179.81 79.639,181.619 C81.163,185.714 79.544,189.81 75.258,193.048 C72.02,195.429 71.83,194.953 73.925,189.81 C74.401,188.667 73.925,187.619 72.306,186.572 C69.449,184.762 65.544,185.524 65.544,188 C65.449,189.81 61.068,195.238 60.211,194.381 C59.925,194.095 58.116,194.191 56.116,194.572 C52.02,195.334 51.354,197.429 54.782,198.476 C56.592,199.048 56.687,199.334 55.354,199.619 C53.354,200.191 52.211,202.667 53.544,203.524 C54.211,204 54.211,204.667 53.449,205.619 C51.639,207.714 53.163,208.572 56.02,206.953 C57.354,206.286 58.782,206 59.163,206.286 C59.544,206.667 59.354,206.953 58.782,206.953 C57.354,206.953 53.544,213.238 53.544,215.619 C53.544,219.619 47.068,237.619 44.878,239.619 C42.878,241.524 42.497,241.619 41.163,240.286 C39.354,238.476 37.449,239.333 37.544,242 C37.544,243.048 37.068,244.191 36.497,244.476 C35.259,245.238 36.116,249.333 38.306,253.81 C39.735,256.572 39.735,257.238 38.592,257.905 C37.83,258.381 37.259,259.905 37.259,261.429 C37.259,262.857 36.878,264 36.306,264 C35.259,264 33.544,259.81 34.211,258.667 C34.497,258.191 33.735,256.953 32.592,255.905 C31.449,254.762 30.497,253.143 30.497,252.191 C30.401,251.238 29.735,249.619 28.973,248.572 C28.116,247.524 27.544,245.619 27.544,244.286 C27.544,243.048 27.068,242 26.592,242 C25.449,242 24.497,244.572 24.497,247.714 C24.497,249.333 23.83,250.381 22.497,250.667 C19.735,251.429 19.068,254.762 20.497,261.524 C21.544,266.572 21.449,267.333 19.83,268.572 C15.544,272 14.782,272 12.02,269.429 C9.544,267.143 9.354,266.381 9.925,262.572 C10.497,258.572 10.401,258.191 8.02,257.619 C4.592,256.762 4.592,252.191 8.02,248.953 C10.687,246.476 11.163,244.381 9.259,243.81 C8.401,243.429 8.687,241.714 10.306,237.429 C12.401,232.095 12.497,231.429 10.973,230.381 C9.544,229.333 10.116,228.381 15.449,223.238 C18.782,219.905 21.544,216.572 21.544,215.905 C21.544,213.905 24.306,210.476 25.163,211.334 C25.544,211.714 24.782,213.81 23.544,216.095 C22.306,218.286 21.449,220.286 21.735,220.572 C22.782,221.619 27.449,215.905 28.401,212.381 C29.068,210.191 30.211,207.619 30.973,206.572 C31.83,205.524 32.497,203.714 32.497,202.667 C32.497,201.619 34.116,198.953 36.02,196.857 C39.925,192.572 40.02,192.095 38.211,189.619 C37.163,188.191 36.116,188 33.163,188.572 C29.544,189.238 29.544,189.238 30.116,193.143 C30.497,195.714 30.401,196.953 29.639,196.953 C28.973,196.953 28.497,198.667 28.497,200.762 C28.497,202.857 28.116,205.048 27.639,205.524 C27.068,206.095 26.497,207.429 26.211,208.476 C25.83,210.095 25.735,210 25.639,207.905 C25.544,206.476 26.116,203.143 26.973,200.476 C28.116,196.572 28.211,194.762 27.354,191.81 C26.687,189.714 25.639,188 24.878,188 C23.925,188 23.735,189.619 24.211,194.857 C24.497,199.048 24.306,203.048 23.544,205.238 C21.068,212.953 9.735,223.238 6.687,220.762 C5.735,220 5.64,219.429 6.401,219.238 C6.973,218.953 7.544,218.095 7.544,217.238 C7.544,216.381 7.735,215.905 8.116,216.286 C9.449,217.619 14.592,213.714 17.068,209.429 C19.449,205.429 19.735,204.191 19.163,199.238 C18.782,195.524 18.878,194.095 19.544,195.048 C20.306,196.191 20.497,196.095 20.497,194.381 C20.497,193.238 19.639,191.524 18.687,190.667 C16.401,188.572 14.782,188.476 16.497,190.476 C17.449,191.714 17.449,192.286 16.497,193.524 C15.83,194.286 15.544,196 15.83,197.238 C16.116,198.381 15.925,201.238 15.354,203.524 C14.02,208.762 9.64,211.524 4.116,210.476 C0.592,209.81 0.497,209.81 0.497,212.857 C0.497,215.714 0.687,215.905 3.544,215.334 C7.354,214.572 7.354,216.095 3.449,217.81 L0.497,219.143 L0.497,258.476 L0.497,297.81 L5.259,298.286 C7.83,298.572 11.83,299.238 14.02,299.81 C17.068,300.476 17.639,300.857 16.211,301.429 C15.259,301.905 12.973,301.905 11.259,301.524 C9.449,301.143 6.306,300.667 4.211,300.381 L0.497,299.81 L0.497,340.381 C0.497,378 0.592,380.952 2.211,381.81 C3.163,382.286 4.592,382.571 5.259,382.286 C5.925,382 6.497,382.571 6.497,383.429 C6.497,385.429 3.259,386.857 2.687,385.143 C2.497,384.571 1.925,384 1.449,384 C0.878,384 0.497,387.619 0.497,392 L0.497,400 L15.735,400 C29.354,400 31.354,399.81 34.306,398 L37.639,395.905 L38.211,398 C38.687,399.81 39.544,400 48.592,400 C54.782,400 58.497,399.619 58.497,398.952 C58.497,398.381 57.83,397.714 56.973,397.333 C56.211,397.048 55.544,396.19 55.544,395.429 C55.544,394.476 54.401,394 52.401,394 C50.116,394 49.449,393.619 49.83,392.571 C50.592,390.667 46.878,389.429 44.973,391.048 C44.116,391.714 42.306,392 40.782,391.619 C38.592,391.143 38.401,391.143 39.735,392 C40.782,392.667 41.163,393.714 40.782,394.667 C40.306,396 40.687,396.19 43.068,395.619 C44.973,395.143 45.544,395.238 44.592,395.905 C43.83,396.381 43.544,397.333 44.02,398 C44.401,398.762 43.354,398.476 41.639,397.429 C39.925,396.381 38.497,395.238 38.497,394.762 C38.497,393.333 35.449,394 34.782,395.619 C34.306,396.857 33.83,396.667 31.83,394.381 C30.497,392.762 28.973,390.476 28.497,389.238 C27.925,388 26.878,387.048 26.02,387.048 C24.401,386.952 23.925,384.476 25.354,383.524 C26.211,383.048 28.782,386.095 30.973,390.476 C31.544,391.619 32.687,392.476 33.544,392.476 C35.83,392.476 35.83,388.381 33.449,385.143 C32.211,383.524 31.544,381.619 31.83,380.857 C32.211,379.905 32.401,380.095 32.401,381.238 C32.497,382.952 34.973,383.714 35.83,382.286 C37.068,380.095 34.306,377.238 29.068,375.524 C24.687,374 23.639,373.238 24.02,371.905 C24.401,370.857 23.544,369.333 21.735,367.905 L18.878,365.524 L20.687,361.81 C22.116,358.857 22.211,357.619 21.354,355.048 C20.02,351.238 21.068,349.619 22.401,353.333 C23.544,356.381 24.687,356.667 26.878,354.476 C28.592,352.762 30.497,352.476 30.497,354 C30.497,354.571 30.973,354.952 31.544,354.952 C32.02,354.952 32.497,352.952 32.497,350.476 C32.497,347.905 32.973,346 33.639,346 C34.306,346 34.592,347.714 34.306,350.762 C34.02,354.476 34.401,355.905 35.925,357.429 C37.639,359.143 37.735,359.524 36.497,359.81 C35.639,359.905 33.83,362.19 32.497,364.762 C31.163,367.333 29.544,369.81 29.068,370.19 C27.544,371.238 34.401,377.238 36.211,376.571 C36.973,376.286 37.83,376 38.116,376 C38.306,376 38.497,374.857 38.497,373.333 C38.497,370.952 38.211,370.762 35.354,371.333 C32.687,371.905 32.401,371.81 33.449,370.571 C34.116,369.714 34.401,368.667 34.02,368.095 C33.735,367.524 34.306,366.571 35.449,366 C37.163,365.048 37.544,365.238 37.544,366.952 C37.544,368.286 38.116,368.952 39.544,368.952 C41.068,368.952 41.544,369.714 41.544,372.095 C41.544,374.762 41.735,375.048 42.973,374 C45.354,372 44.973,365.333 42.401,363.905 C40.782,363.048 40.592,362.571 41.544,361.619 C42.497,360.762 42.878,360.762 43.163,361.714 C43.449,362.476 44.116,363.048 44.687,363.048 C45.354,363.048 45.544,361.333 45.259,358.762 C44.973,356.381 45.449,352.952 46.116,350.952 C47.449,347.714 47.449,348.095 47.068,356 C46.782,360.667 46.306,365.714 45.925,367.238 C45.163,370.286 46.497,370.857 48.878,368.476 C49.639,367.714 50.878,366.952 51.449,366.952 C52.687,367.048 52.782,366.095 52.497,359.81 C52.401,356.667 52.782,354.571 53.83,353.524 C55.544,351.81 56.973,352.762 55.354,354.667 C54.687,355.524 54.401,358.095 54.782,361.524 L55.354,367.048 L51.449,369.048 C47.259,371.143 46.116,373.143 49.544,372.286 C50.592,372 52.116,372.286 52.973,372.952 C53.735,373.619 55.163,374 56.211,373.81 C57.544,373.619 58.116,374.19 58.306,376.286 C58.592,378.381 58.211,378.952 56.782,378.952 C55.735,378.952 53.925,379.714 52.687,380.571 C51.449,381.429 49.83,381.905 49.068,381.619 C47.163,380.952 45.259,383.429 45.639,386.095 C46.116,388.952 47.83,389.524 49.925,387.429 C50.782,386.571 52.211,386.095 53.068,386.381 C55.259,387.238 57.068,386 55.354,384.857 C54.211,384.19 54.306,384 55.544,384.095 C56.306,384.19 58.116,384.571 59.544,384.952 C61.639,385.619 61.735,385.81 60.211,386.476 C58.782,387.048 58.687,387.524 59.639,388.762 C60.782,390 60.401,390.19 57.068,389.81 C52.116,389.429 51.544,391.048 56.02,393.143 C59.449,394.667 64.973,394.571 63.925,392.952 C63.639,392.476 62.782,392.381 61.925,392.667 C61.163,392.952 60.497,392.762 60.497,392.095 C60.497,390.667 64.02,390.667 66.592,392.095 C67.639,392.667 69.544,392.762 70.687,392.476 C72.782,391.714 72.782,391.714 70.401,390.381 C69.068,389.714 66.973,389.048 65.83,389.048 C64.592,389.048 63.258,388.476 62.878,387.905 C62.02,386.381 69.068,387.333 82.211,390.476 L84.497,391.048 L84.687,366.952 L84.973,342.857 L109.544,342.952 C122.973,342.952 146.782,342.952 162.306,342.952 C188.973,342.952 190.687,343.143 189.925,344.762 C189.068,346.762 188.211,394.381 188.973,397.714 C189.544,399.905 189.83,400 203.068,400 C212.401,400 216.401,399.714 215.925,398.952 C214.592,396.762 218.687,394 223.163,394 C229.163,394 239.639,397.143 239.068,398.762 C238.687,399.714 244.496,400 266.115,400 L293.639,400 L293.449,389.238 C293.353,383.333 293.258,370.286 293.353,360.286 C293.449,342.667 293.544,342 295.544,342 C296.592,342 297.544,341.619 297.544,341.238 C297.544,340.857 249.258,340.476 190.401,340.476 L83.258,340.476 L82.782,268.476 C82.592,228.857 82.306,193.619 82.306,190 C82.306,186.381 82.592,176 82.973,166.857 C83.354,157.715 83.449,149.334 83.068,148.191 C82.401,146.191 81.735,146.095 69.354,146.286 C56.782,146.476 56.211,146.381 54.401,144.095 C53.354,142.857 52.497,140.572 52.497,139.238 C52.497,136.762 52.401,136.667 51.068,138.572 C49.639,140.381 49.544,140 49.639,134.953 C49.639,130.191 49.735,129.81 50.687,132.191 C51.163,133.715 52.211,134.667 52.878,134.381 C53.639,134.095 54.782,134.572 55.449,135.429 C56.687,136.953 60.497,137.619 60.497,136.476 C60.497,136.095 59.163,134.762 57.449,133.334 C54.782,131.048 54.497,130.286 55.068,127.619 C55.544,125.905 55.925,123.715 55.925,122.762 C56.02,121.81 56.973,120.286 58.02,119.524 C59.163,118.762 59.449,118.096 58.782,118 C58.116,118 57.83,117.334 58.116,116.476 C58.592,115.429 59.163,115.238 60.592,116.096 C61.735,116.667 63.354,116.857 64.401,116.572 C65.449,116.191 66.878,116.762 67.925,118 C69.163,119.238 70.497,119.81 71.925,119.429 C73.258,119.048 75.068,119.715 76.687,120.953 C79.83,123.334 82.02,123.619 82.878,121.524 C83.544,119.619 82.592,116.953 81.258,116.953 C80.782,116.953 78.973,115.905 77.449,114.572 C74.973,112.572 73.735,112.286 68.306,112.476 C64.878,112.667 62.878,112.572 64.02,112.286 C68.401,111.143 68.02,108 63.544,108 C59.544,108 58.02,105.81 60.592,103.619 C62.973,101.619 62.116,99.238 59.735,101.238 C58.401,102.381 58.211,102.191 58.878,99.715 C59.449,97.334 59.259,96.953 57.163,96.953 C55.83,96.953 54.401,97.715 54.116,98.572 z M32.02,134 C31.639,134.572 30.973,134.953 30.401,134.953 C29.83,134.953 29.639,134.572 30.02,134 C30.306,133.429 31.068,132.953 31.639,132.953 C32.211,132.953 32.306,133.429 32.02,134 z M40.497,141.429 C40.497,142.191 41.068,143.143 41.735,143.429 C42.401,143.715 41.639,143.81 39.925,143.524 C38.211,143.334 36.306,143.619 35.735,144.191 C35.163,144.762 34.116,144.857 33.449,144.476 C32.687,144 33.259,143.143 35.163,141.905 C38.592,139.619 40.497,139.524 40.497,141.429 z M50.782,145.619 C50.116,145.905 48.782,145.905 47.735,145.715 C46.782,145.429 47.354,145.238 48.973,145.238 C50.687,145.143 51.449,145.429 50.782,145.619 z M66.973,196 C66.687,196.572 65.735,196.953 64.878,196.953 C64.02,196.953 63.639,196.572 64.02,196 C64.306,195.429 65.258,194.953 66.116,194.953 C66.973,194.953 67.354,195.429 66.973,196 z M61.544,196.953 C61.544,197.524 60.973,198 60.401,198 C59.83,198 59.639,197.524 60.02,196.953 C60.306,196.476 60.782,196 61.068,196 C61.259,196 61.544,196.476 61.544,196.953 z M78.02,196.953 C77.639,197.524 76.878,198 76.211,198 C75.449,198 75.639,197.619 76.497,196.953 C78.401,195.714 78.782,195.714 78.02,196.953 z M73.925,197.905 C74.592,198.953 72.211,200 69.163,200 C67.068,199.905 67.068,199.905 69.544,198.476 C72.497,196.762 73.163,196.667 73.925,197.905 z M53.925,262.953 C54.306,263.429 54.116,264.191 53.544,264.476 C52.973,264.857 52.497,264.381 52.497,263.524 C52.497,261.81 53.068,261.524 53.925,262.953 z M63.735,276.667 C63.068,276.952 61.925,276.952 61.259,276.667 C60.592,276.381 61.163,276.191 62.497,276.191 C63.83,276.191 64.401,276.381 63.735,276.667 z M57.449,286.952 C53.354,290.762 49.354,293.905 48.497,293.905 C47.639,293.905 50.306,290.762 54.306,286.952 C58.401,283.143 62.401,280 63.258,280 C64.211,280 61.735,282.952 57.449,286.952 z M32.878,290.476 C33.163,291.333 34.02,292 34.687,292 C36.306,292.095 42.306,298 40.782,298 C40.116,298 39.544,297.524 39.354,297.048 C39.163,296.476 36.973,295.048 34.592,293.714 C30.02,291.333 28.211,288.952 30.782,288.952 C31.639,288.952 32.497,289.714 32.878,290.476 z M26.497,294.572 L28.973,295.905 L26.02,296 C21.735,296 15.354,294.095 16.02,292.952 C16.782,291.714 22.973,292.762 26.497,294.572 z M57.068,299.333 C57.163,299.429 56.973,301.143 56.782,303.238 C56.306,306.476 55.925,306.952 53.735,306.952 C51.354,306.952 51.259,306.857 52.878,305.143 C54.878,302.857 54.973,300 52.973,300 C52.211,300 51.544,299.524 51.544,298.857 C51.544,298.191 52.497,298 54.211,298.476 C55.735,298.857 57.068,299.238 57.068,299.333 z M45.544,302.572 C45.544,304.381 43.354,304 42.687,302.191 C42.497,301.524 43.068,300.952 43.925,300.952 C44.782,300.952 45.544,301.714 45.544,302.572 z M42.497,306.952 C42.973,306.952 43.639,306.572 43.925,306 C44.973,304.381 47.639,306.191 47.259,308.381 C47.068,309.81 46.306,310.476 44.497,310.476 C42.687,310.476 41.925,311.143 41.639,312.762 C41.259,315.524 39.925,315.714 39.163,312.952 C38.878,311.714 39.163,310.952 40.116,310.952 C40.878,310.952 41.544,310.095 41.544,308.952 C41.544,306.762 38.02,306.191 37.163,308.286 C36.878,309.238 36.497,309.238 35.449,308.286 C34.401,307.333 34.687,306.572 36.592,304.572 L38.973,302.095 L40.306,304.572 C40.973,305.905 41.925,306.952 42.497,306.952 z M72.02,306.286 C73.639,306.572 72.116,306.667 68.592,306.667 C64.687,306.572 62.02,306 61.735,305.333 C61.544,304.476 62.497,304.381 65.163,305.048 C67.258,305.524 70.306,306.095 72.02,306.286 z M28.211,306.572 C27.925,306.952 27.068,306.952 26.306,306.667 C25.544,306.381 25.735,306.095 26.878,306.095 C27.925,306 28.592,306.286 28.211,306.572 z M29.544,313.429 C29.544,314.857 27.068,316.286 26.211,315.333 C25.83,315.048 25.83,314.191 26.211,313.429 C26.878,311.619 29.544,311.619 29.544,313.429 z M48.973,314 C49.354,314.572 49.163,314.952 48.592,314.952 C48.02,314.952 47.544,314.572 47.544,314 C47.544,313.429 47.735,312.952 47.925,312.952 C48.211,312.952 48.687,313.429 48.973,314 z M22.497,318.476 C21.83,319.333 20.592,320 19.83,320 C19.163,320 18.497,320.476 18.497,320.952 C18.497,322.381 11.354,326.952 9.163,326.952 C7.544,326.952 7.449,326.762 8.497,325.524 C9.163,324.667 10.592,324 11.64,324 C12.687,324 13.544,323.524 13.544,323.048 C13.544,322.476 15.64,320.952 18.211,319.524 C23.925,316.572 24.116,316.572 22.497,318.476 z M39.068,325.524 C38.306,331.524 36.497,334 36.497,329.048 C36.497,325.524 38.782,317.429 39.354,319.048 C39.544,319.619 39.449,322.572 39.068,325.524 z M55.544,331.238 C56.687,333.429 56.782,334 55.639,334 C54.497,334 51.449,326.095 51.544,323.429 C51.544,322.286 52.211,323.143 53.163,325.524 C53.925,327.714 55.068,330.286 55.544,331.238 z M39.544,338 C39.544,338.571 38.687,338.952 37.735,338.952 C36.211,338.952 36.211,338.857 37.544,338 C39.354,336.762 39.544,336.762 39.544,338 z M37.544,340.762 C37.544,341.238 36.782,342.476 36.02,343.524 C34.592,345.333 34.592,345.333 35.639,342.762 C36.782,340 37.544,339.333 37.544,340.762 z M257.449,348.571 C260.401,352.095 262.496,355.333 262.115,355.714 C261.258,356.571 250.496,345.048 250.496,343.333 C250.496,340.762 252.211,342.095 257.449,348.571 z M226.115,346.476 C226.687,347.333 227.925,348 228.877,348 C229.735,348 230.496,348.571 230.496,349.333 C230.496,350 231.83,352.476 233.544,354.667 C235.639,357.524 236.496,359.81 236.306,362.19 C236.211,364 236.877,367.143 237.735,369.048 L239.354,372.667 L234.973,378.286 C232.496,381.429 230.496,384.857 230.496,386 C230.496,387.619 229.83,388 226.973,388 C223.544,388 222.401,386.762 224.592,385.429 C225.163,385.048 227.258,381.524 229.068,377.619 C231.544,372.571 232.496,369.143 232.496,365.619 C232.496,361.048 230.782,354.191 229.449,352.952 C229.068,352.762 228.306,351.524 227.639,350.381 C226.782,348.667 224.973,347.905 219.258,346.952 C213.735,346 212.496,345.524 214.02,344.857 C216.877,343.714 224.782,344.762 226.115,346.476 z M20.306,349.524 C20.02,349.81 19.449,349.238 19.068,348.286 C18.497,346.857 18.592,346.762 19.639,347.714 C20.306,348.381 20.592,349.238 20.306,349.524 z M28.211,350.191 C27.83,350.952 27.639,350.762 27.544,349.619 C27.544,348.571 27.735,347.905 28.116,348.286 C28.401,348.571 28.497,349.429 28.211,350.191 z M207.544,350.095 C207.544,350.571 206.782,350.952 206.02,350.952 C204.496,350.952 204.02,349.81 205.163,348.667 C205.925,347.905 207.544,348.762 207.544,350.095 z M220.306,350 C226.496,353.333 227.83,354.667 227.258,357.429 C226.973,359.048 227.258,360 228.02,360 C231.258,360 231.258,367.619 228.02,374.571 C225.544,379.81 225.354,379.905 220.782,380.19 C218.211,380.381 215.925,381.048 215.735,381.714 C215.544,382.476 216.02,382.952 216.877,382.952 C217.83,382.952 218.496,383.429 218.496,384 C218.496,385.429 203.449,384.667 200.973,383.143 C199.258,382.095 199.735,382 204.211,382.19 C207.258,382.381 209.544,382.095 209.544,381.524 C209.544,380.952 210.877,379.714 212.496,378.762 C217.068,376.19 216.401,374.571 211.068,375.333 C206.115,376 204.687,374.952 206.973,372.667 C209.068,370.571 208.877,370 206.02,370 C202.687,370 201.925,368.381 204.687,366.857 L206.877,365.714 L204.687,364.857 C201.83,363.81 201.83,360.19 204.592,356.667 C206.782,353.81 209.544,353.143 209.544,355.333 C209.544,356.095 210.401,357.524 211.544,358.476 C213.449,360.286 213.544,360.286 213.544,358.381 C213.544,357.238 212.973,355.81 212.211,355.143 C211.258,354.095 211.449,354.095 213.544,354.762 C214.877,355.333 216.973,357.333 218.115,359.333 C220.306,363.333 221.83,363.238 220.877,359.143 C220.02,355.524 217.83,353.238 213.925,352 C211.639,351.238 210.782,350.381 211.163,349.429 C211.925,347.429 215.925,347.619 220.306,350 z M252.782,355.619 C256.211,357.048 259.354,358.571 259.83,358.952 C260.211,359.333 257.925,361.333 254.592,363.238 C249.83,366.095 248.401,366.571 247.544,365.524 C246.592,364.381 243.544,355.524 243.544,353.714 C243.449,352.381 246.496,352.952 252.782,355.619 z M272.02,364 C272.306,364.571 274.02,365.619 275.83,366.476 C281.354,368.857 284.592,372.19 283.83,374.762 C283.544,376 282.877,376.952 282.306,376.952 C280.782,376.952 275.544,372.667 275.544,371.333 C275.544,370.667 274.306,369.524 272.782,368.762 C271.163,368.095 269.83,366.476 269.639,365.238 C269.354,362.952 270.877,362.19 272.02,364 z M17.544,369.238 C17.544,369.81 16.878,369.714 16.02,368.952 C15.163,368.286 14.497,367.333 14.497,366.762 C14.497,366.19 15.163,366.286 16.02,366.952 C16.782,367.714 17.544,368.667 17.544,369.238 z M4.497,372.286 C4.497,374.476 4.211,375.048 3.64,374.095 C2.782,372.857 3.163,368.952 4.116,368.952 C4.306,368.952 4.497,370.476 4.497,372.286 z M198.02,370.952 C198.306,371.524 198.115,372 197.544,372 C196.973,372 196.496,371.524 196.496,370.952 C196.496,370.476 196.687,370 196.973,370 C197.163,370 197.639,370.476 198.02,370.952 z M66.973,374 C67.354,374.571 66.687,374.952 65.544,374.952 C64.306,374.952 63.639,374.571 64.02,374 C64.306,373.429 64.973,372.952 65.544,372.952 C66.02,372.952 66.687,373.429 66.973,374 z M204.306,374.857 C204.592,375.714 204.02,376.095 202.401,375.81 C201.163,375.619 199.925,374.857 199.735,374.19 C199.449,373.238 200.02,372.952 201.544,373.143 C202.782,373.333 204.02,374.095 204.306,374.857 z M13.163,376.19 C12.878,376.952 12.592,376.762 12.592,375.619 C12.497,374.571 12.782,373.905 13.068,374.286 C13.449,374.571 13.449,375.429 13.163,376.19 z M22.306,380.762 L24.973,382.952 L21.83,382.952 C17.925,383.048 17.544,382.476 18.306,378 C18.687,375.619 18.973,375.143 19.259,376.476 C19.449,377.619 20.878,379.524 22.306,380.762 z M272.592,378.952 C273.068,378.952 273.544,379.714 273.544,380.476 C273.544,382.667 270.782,382.286 269.449,379.905 C268.592,378.381 268.687,377.524 269.639,376.286 C270.877,374.857 271.068,374.857 271.354,376.857 C271.449,378 272.02,378.952 272.592,378.952 z M291.353,377.905 C291.639,380.286 291.544,380.286 289.353,378.857 C286.115,376.667 285.734,374.762 288.592,375.143 C290.211,375.429 291.068,376.286 291.353,377.905 z M10.782,382.286 C9.735,384.19 8.497,382.667 8.497,379.238 L8.592,375.524 L9.925,378.476 C10.592,380.19 11.068,381.81 10.782,382.286 z M72.211,376.571 C71.925,376.952 71.068,376.952 70.306,376.667 C69.544,376.381 69.735,376.095 70.878,376.095 C71.925,376 72.592,376.286 72.211,376.571 z M258.115,378.571 C257.734,379.429 257.544,380.381 257.544,380.571 C257.544,380.857 256.782,380.952 256.02,380.952 C254.211,380.952 254.02,379.81 255.734,378.19 C257.449,376.476 258.782,376.762 258.115,378.571 z M31.259,378.571 C30.878,378.952 30.02,378.952 29.354,378.667 C28.497,378.381 28.782,378.095 29.925,378.095 C30.973,378 31.544,378.286 31.259,378.571 z M287.163,381.524 C286.973,382 287.544,383.048 288.401,383.714 C289.83,384.762 289.734,384.952 287.925,384.952 C286.401,384.952 285.544,384.095 284.782,381.524 C283.83,378.286 283.83,378.19 285.639,379.333 C286.687,380 287.353,380.952 287.163,381.524 z M248.496,381.524 C248.496,382.286 247.83,382.952 246.973,382.952 C245.449,382.952 244.973,381.81 246.211,380.667 C247.354,379.524 248.496,379.905 248.496,381.524 z M16.497,384.476 C16.497,384.667 16.02,385.143 15.544,385.524 C14.973,385.81 14.497,385.619 14.497,385.048 C14.497,384.476 14.973,384 15.544,384 C16.02,384 16.497,384.19 16.497,384.476 z M248.496,388.762 C248.496,389.905 241.639,393.429 240.877,392.667 C240.496,392.381 240.782,391.429 241.449,390.571 C242.496,389.333 243.544,388.857 247.734,388.095 C248.115,388.095 248.496,388.381 248.496,388.762 z" fill="#000000"/>
      <path d="M43.544,109.81 C43.544,111.143 45.83,112.953 47.354,112.953 C48.497,112.953 48.401,112.572 46.973,110.953 C45.163,108.953 43.544,108.381 43.544,109.81 z" fill="#000000"/>
      <path d="M0.497,114.476 C0.497,115.334 0.973,116 1.544,116 C2.02,116 2.497,115.619 2.497,115.048 C2.497,114.572 2.02,113.81 1.544,113.524 C0.973,113.143 0.497,113.619 0.497,114.476 z" fill="#000000"/>
      <path d="M41.544,118 C41.544,118.572 41.925,118.953 42.497,118.953 C43.068,118.953 43.544,118.572 43.544,118 C43.544,117.429 43.068,116.953 42.497,116.953 C41.925,116.953 41.544,117.429 41.544,118 z" fill="#000000"/>
      <path d="M0.497,127.81 C0.497,137.429 0.592,137.715 3.068,138.857 C6.211,140.286 9.544,140.381 9.544,138.857 C9.449,138.286 8.497,136.381 7.259,134.762 C5.83,132.667 5.449,131.524 6.306,131.238 C8.116,130.572 7.735,128.191 5.544,126.762 C3.068,125.238 2.878,122.476 5.259,121.143 C6.782,120.286 6.687,120 4.211,119.048 C2.592,118.476 1.163,118 0.973,118 C0.687,118 0.497,122.381 0.497,127.81 z" fill="#000000"/>
      <path d="M60.497,122 C60.497,123.238 61.544,123.238 63.544,122 C64.687,121.238 64.592,121.048 62.782,121.048 C61.544,121.048 60.497,121.429 60.497,122 z" fill="#000000"/>
      <path d="M66.497,123.334 C66.497,126 71.925,129.143 77.544,129.905 C80.02,130.191 78.116,132.762 74.497,133.905 C69.925,135.238 69.258,136.953 73.258,137.143 C74.782,137.238 77.449,137.429 79.258,137.524 C82.211,137.81 82.497,137.619 82.497,134.953 C82.497,133.429 82.02,131.81 81.544,131.524 C80.973,131.143 80.497,130.096 80.497,129.238 C80.497,128.096 78.306,126.476 74.687,124.762 C68.401,121.619 66.497,121.334 66.497,123.334 z" fill="#000000"/>
      <path d="M25.544,124.476 C25.544,125.334 25.639,126 25.925,126 C26.116,126 26.497,125.334 26.878,124.476 C27.163,123.715 26.973,122.953 26.497,122.953 C25.925,122.953 25.544,123.715 25.544,124.476 z" fill="#000000"/>
      <path d="M21.544,125.524 C21.544,126.286 21.925,126.953 22.497,126.953 C23.068,126.953 23.544,126.286 23.544,125.524 C23.544,124.667 23.068,124 22.497,124 C21.925,124 21.544,124.667 21.544,125.524 z" fill="#000000"/>
      <path d="M0.687,194.762 C0.973,205.524 1.163,206.476 2.973,206.857 C4.116,207.048 5.259,207.714 5.64,208.286 C6.592,209.714 11.544,208.191 11.544,206.476 C11.544,205.619 11.925,204.953 12.401,204.953 C13.83,204.953 13.354,195.81 11.925,192.857 C11.163,191.429 8.973,189.238 7.163,188.095 C5.259,186.953 3.449,185.334 3.163,184.476 C2.782,183.619 2.116,182.953 1.449,182.953 C0.782,182.953 0.497,186.953 0.687,194.762 z" fill="#000000"/>
      <path d="M58.782,186.667 C54.02,189.524 53.163,192 56.973,192 C58.497,192 60.116,190.953 61.544,188.953 C64.592,184.667 63.639,183.81 58.782,186.667 z" fill="#000000"/>
      <path d="M29.068,237.905 C28.687,238.476 28.878,239.143 29.449,239.524 C30.02,239.81 30.497,239.429 30.497,238.572 C30.497,236.762 29.925,236.572 29.068,237.905 z" fill="#000000"/>
      <path d="M334.02,270.667 C332.306,271.524 330.306,272.857 329.449,273.619 C328.496,274.476 327.449,274.572 326.496,274 C324.306,272.572 323.163,272.762 323.83,274.476 C324.211,275.429 323.258,277.048 321.353,278.762 C319.639,280.286 317.639,282.762 316.877,284.286 C316.115,285.81 314.782,286.952 314.02,286.952 C311.639,286.952 313.83,291.333 316.592,292 C318.592,292.476 319.068,293.333 319.258,296.762 C319.639,301.619 319.353,301.81 311.544,302.286 L306.02,302.572 L306.02,306 C306.02,308.857 306.306,309.429 308.02,309.333 C310.973,309.048 316.306,311.905 317.068,314.191 C317.639,315.905 318.211,316.095 320.877,315.429 C322.592,315.048 327.639,314.667 332.211,314.572 L340.306,314.381 L339.925,320.667 C339.734,324.095 340.02,327.143 340.496,327.524 C341.068,327.81 341.544,327.524 341.544,326.857 C341.544,326.191 342.687,324.381 344.02,322.952 L346.592,320.286 L344.02,320.762 C341.925,321.143 341.544,320.857 341.544,319.143 C341.544,318 342.687,316.286 344.115,315.333 C346.592,313.714 346.782,313.714 348.02,315.333 C348.687,316.191 350.306,316.952 351.734,316.952 C355.83,316.952 360.496,315.81 359.925,314.952 C359.639,314.476 360.592,313.333 362.02,312.381 C364.306,310.952 364.401,310.572 363.068,309.81 C362.211,309.333 361.068,309.143 360.592,309.429 C360.115,309.714 358.496,309.619 357.068,309.048 C355.163,308.286 354.496,307.333 354.496,305.238 C354.401,302.667 354.306,302.572 352.972,304.381 C351.068,306.952 346.496,305.905 347.163,303.048 C347.544,301.524 347.068,300.762 345.353,300.095 C343.83,299.524 342.782,299.619 342.306,300.381 C341.734,301.143 341.258,301.143 340.401,300.286 C339.544,299.429 339.639,298.762 340.877,297.524 C341.734,296.572 342.496,295.429 342.496,294.952 C342.496,294.381 342.877,294.095 343.258,294.095 C345.163,294.381 348.496,292.667 348.02,291.619 C347.734,291.048 347.258,289.714 346.877,288.762 C346.592,287.905 345.639,286.952 344.782,286.762 C343.068,286.476 340.306,279.238 341.068,276.857 C341.353,276 342.401,274.952 343.544,274.667 C346.877,273.81 345.925,271.714 342.496,272.381 C340.02,272.857 339.544,272.667 339.544,270.953 C339.544,268.572 338.02,268.572 334.02,270.667 z M336.211,287.619 C337.068,289.81 334.401,291.333 332.592,289.524 C331.83,288.762 331.544,287.714 331.925,287.143 C332.973,285.429 335.449,285.81 336.211,287.619 z M315.258,306.572 C314.877,306.952 314.02,306.952 313.353,306.667 C312.496,306.381 312.782,306.095 313.925,306.095 C314.973,306 315.544,306.286 315.258,306.572 z" fill="#000000"/>
      <path d="M350.972,272 C351.449,273.333 351.163,274.572 350.211,275.333 C349.258,276.095 348.877,277.81 349.258,280.762 C349.639,284.381 350.02,284.952 352.02,284.952 C354.877,284.952 356.02,282.191 354.02,280 C353.163,279.143 352.496,277.524 352.496,276.572 C352.496,275.048 353.068,274.953 356.496,275.524 C359.544,276 360.496,275.81 360.496,274.857 C360.496,272.286 358.972,271.238 354.687,270.476 C350.496,269.81 350.306,269.905 350.972,272 z" fill="#000000"/>
      <path d="M374.496,274.476 C373.925,275.238 371.544,276 369.258,276.191 L365.163,276.476 L367.734,278.952 C370.02,281.143 370.211,281.619 368.877,283.429 C366.877,286.381 367.163,287.714 370.211,289.238 C375.83,292 378.591,288.857 374.401,284.381 L372.211,282.095 L374.877,278.952 C377.449,275.905 378.306,272.952 376.591,272.952 C376.115,272.952 375.163,273.619 374.496,274.476 z" fill="#000000"/>
      <path d="M297.544,292.572 C297.639,293.714 297.83,294 298.211,293.143 C298.496,292.476 298.401,291.619 298.115,291.238 C297.734,290.952 297.544,291.524 297.544,292.572 z" fill="#000000"/>
      <path d="M302.496,294.952 C302.496,295.524 303.163,296 304.02,296 C304.877,296 305.353,295.524 304.973,294.952 C304.687,294.476 303.925,294 303.449,294 C302.877,294 302.496,294.476 302.496,294.952 z" fill="#000000"/>
      <path d="M374.02,296 C373.639,296.572 372.211,297.048 370.687,297.048 L368.02,297.048 L370.496,299.048 C372.972,300.952 372.972,300.952 374.782,298.857 C375.734,297.714 376.496,296.381 376.496,295.905 C376.496,294.667 374.782,294.762 374.02,296 z" fill="#000000"/>
      <path d="M301.544,299.905 C301.544,300.381 302.401,301.048 303.544,301.333 C304.687,301.619 305.544,301.333 305.544,300.667 C305.544,300 304.592,299.333 303.544,299.238 C302.401,299.238 301.544,299.524 301.544,299.905 z" fill="#000000"/>
      <path d="M362.02,318 C364.782,319.143 366.496,319.143 366.496,318 C366.496,317.429 365.068,317.048 363.258,317.048 C360.496,317.143 360.306,317.238 362.02,318 z" fill="#000000"/>
      <path d="M314.02,318.952 C313.639,319.524 313.83,320 314.401,320 C314.973,320 315.544,319.524 315.544,318.952 C315.544,318.476 315.258,318 315.068,318 C314.782,318 314.306,318.476 314.02,318.952 z" fill="#000000"/>
      <path d="M297.639,332 C297.639,333.333 297.925,333.905 298.115,333.238 C298.401,332.572 298.401,331.429 298.115,330.762 C297.925,330.095 297.639,330.667 297.639,332 z" fill="#000000"/>
      <path d="M396.02,332.952 C395.734,333.429 391.544,335.048 386.782,336.476 C381.925,338 377.544,339.333 376.972,339.524 C376.401,339.714 381.258,339.905 387.734,339.905 L399.544,340 L399.544,337.619 C399.544,333.143 397.544,330.476 396.02,332.952 z" fill="#000000"/>
      <path d="M338.687,335.524 C338.687,337.143 338.972,337.714 339.163,336.762 C339.449,335.714 339.449,334.381 339.163,333.714 C338.877,333.048 338.687,333.81 338.687,335.524 z" fill="#000000"/>
      <path d="M114.973,345.048 C114.592,345.619 115.83,346.667 117.639,347.429 C121.163,348.857 122.782,348 121.83,345.333 C121.163,343.81 115.925,343.524 114.973,345.048 z" fill="#000000"/>
      <path d="M147.544,345.714 C147.544,346.286 148.211,348.095 149.068,349.81 C150.401,352.571 150.497,353.238 149.163,355.048 L147.639,357.143 L146.973,354.857 C146.497,353.524 145.354,351.905 144.306,351.238 C143.354,350.476 142.497,348.952 142.497,347.81 C142.497,346.095 142.211,346 140.973,346.952 C140.211,347.714 139.735,348.667 140.116,349.143 C140.401,349.619 139.258,350.571 137.544,351.143 C135.925,351.714 134.497,352.571 134.497,353.143 C134.497,355.238 132.592,353.714 132.02,351.238 C131.735,349.619 130.687,348.381 129.735,348.191 C128.782,348.095 127.163,347.905 126.116,347.714 C125.068,347.619 124.02,348 123.83,348.667 C123.544,349.333 124.401,350 125.735,350.191 C127.163,350.381 128.116,351.238 128.306,352.762 C128.592,354.476 128.211,354.857 127.068,354.381 C126.116,354 124.02,353.619 122.211,353.524 C120.401,353.333 118.306,353.143 117.544,353.048 C116.211,352.952 116.211,352.857 117.544,352 C118.782,351.143 118.782,351.048 117.354,351.048 C113.735,350.952 112.497,352.191 112.497,355.81 C112.497,361.143 111.449,364.476 110.401,362.857 C109.925,362.095 109.544,360.286 109.544,358.857 C109.544,356.476 109.163,356.286 107.068,356.857 C104.116,357.619 96.497,364.571 96.497,366.476 C96.497,367.238 95.258,369.619 93.83,371.905 C91.735,375.048 90.878,375.714 89.83,374.857 C88.687,373.905 88.497,375.714 88.497,385.048 C88.497,394.952 88.687,396.095 90.02,394.952 C91.354,393.905 91.735,394.19 92.782,396.857 L93.925,400 L136.116,400 L178.306,400 L179.925,397.429 C181.163,395.619 182.306,394.952 183.639,395.333 C185.354,395.81 185.544,395.429 185.258,392.667 C185.068,389.81 184.687,389.524 181.735,389.619 C179.925,389.714 178.401,389.333 178.401,388.667 C178.306,388 178.116,384.19 177.925,380.095 C177.83,376.095 177.163,372.286 176.592,371.714 C175.83,370.952 175.544,371.333 175.544,373.333 C175.544,374.762 175.068,376 174.496,376 C173.925,376 173.544,374.667 173.544,373.048 C173.544,371.143 172.687,369.524 171.354,368.667 C169.925,367.619 169.449,366.476 169.735,365.048 C170.02,363.905 169.925,362.952 169.449,362.952 C168.877,362.952 168.496,362.476 168.496,361.714 C168.401,359.524 164.02,357.143 160.211,357.333 C156.973,357.524 156.496,357.238 156.496,355.333 C156.496,353.143 154.496,350.667 149.735,346.572 C148.497,345.524 147.544,345.143 147.544,345.714 z M129.163,359.143 C128.877,360 128.592,359.714 128.592,358.571 C128.497,357.524 128.782,356.952 129.068,357.238 C129.449,357.619 129.449,358.476 129.163,359.143 z M96.02,384.762 C95.83,386.857 95.544,388.857 95.544,389.333 C95.544,389.714 95.068,389.81 94.497,389.524 C92.878,388.476 93.258,380.952 94.973,380.952 C96.02,380.952 96.306,382 96.02,384.762 z" fill="#000000"/>
      <path d="M88.497,347.048 C88.497,347.619 88.973,347.81 89.544,347.524 C90.02,347.143 90.497,346.667 90.497,346.476 C90.497,346.191 90.02,346 89.544,346 C88.973,346 88.497,346.476 88.497,347.048 z" fill="#000000"/>
      <path d="M307.163,346.667 C306.306,347.524 309.83,351.048 313.544,353.143 C320.782,357.143 326.115,360.381 330.496,363.333 C346.211,373.81 351.639,374.476 337.258,364.191 C324.687,355.048 308.306,345.524 307.163,346.667 z" fill="#000000"/>
      <path d="M382.496,351.81 C374.877,356.857 367.83,362 360.496,367.905 C359.163,368.952 358.306,370.19 358.687,370.571 C359.258,371.048 366.687,366.476 378.972,358 C380.211,357.143 383.925,354.762 387.258,352.667 C390.591,350.571 393.544,348.191 393.925,347.429 C394.972,344.571 390.877,346.191 382.496,351.81 z" fill="#000000"/>
      <path d="M296.02,348.095 C294.782,351.333 298.496,368 300.496,368 C300.877,368 301.734,365.524 302.306,362.476 C303.449,357.048 302.496,352 300.306,352 C299.83,352 299.544,351.333 299.544,350.667 C299.544,349.905 298.782,348.667 298.02,348 C296.782,347.048 296.401,347.048 296.02,348.095 z" fill="#000000"/>
      <path d="M88.497,351.524 C88.497,352.476 89.449,352.952 90.973,352.952 C92.592,352.952 93.544,352.476 93.544,351.524 C93.544,350.571 92.592,350 90.973,350 C89.449,350 88.497,350.571 88.497,351.524 z" fill="#000000"/>
      <path d="M26.497,357.524 C25.735,358.857 24.782,360 24.306,360 C23.354,360 23.163,366.095 24.116,368.381 C25.163,371.048 28.497,370.381 28.497,367.524 C28.497,366.095 28.973,364.952 29.544,364.952 C30.02,364.952 30.497,364.381 30.497,363.619 C30.497,362.762 31.068,362 31.735,361.81 C32.592,361.429 32.592,360.571 31.544,358.191 C30.02,354.381 28.306,354.095 26.497,357.524 z M29.544,362 C29.544,363.238 28.401,363.238 26.497,362 C25.259,361.238 25.449,361.048 27.259,361.048 C28.497,361.048 29.544,361.429 29.544,362 z" fill="#000000"/>
      <path d="M94.782,356.762 C94.497,357.714 94.02,358.857 93.83,359.238 C93.544,359.619 94.02,359.714 94.878,359.429 C96.497,358.762 97.83,354.952 96.401,354.952 C95.83,354.952 95.163,355.81 94.782,356.762 z" fill="#000000"/>
      <path d="M387.734,360.191 C384.972,361.524 383.734,365.619 385.353,368.191 C386.02,369.143 386.211,370 385.734,370 C379.449,370.095 363.544,374.476 363.544,376.19 C363.449,378.381 375.258,377.81 390.972,374.762 C399.258,373.238 401.734,370.191 396.782,367.81 C394.591,366.762 393.925,365.714 393.639,362.762 C393.353,358.667 392.02,358.191 387.734,360.191 z" fill="#000000"/>
      <path d="M310.496,364.095 C310.496,367.714 310.211,368.19 306.973,369.524 C300.496,372.286 302.782,375.333 312.496,376.952 C320.306,378.19 340.211,378.381 340.877,377.143 C341.639,375.905 332.02,372.952 324.782,372.286 L318.592,371.714 L318.782,368.19 C318.973,365.143 318.496,364.286 315.639,362.286 C313.734,361.048 311.83,360 311.353,360 C310.877,360 310.496,361.81 310.496,364.095 z" fill="#000000"/>
      <path d="M351.163,367.714 C350.211,368 349.544,368.667 349.83,369.333 C350.02,370 349.353,372.19 348.306,374.19 C346.496,377.905 346.496,378 348.496,380 C350.115,381.619 350.592,383.619 350.972,390.286 C351.449,401.048 351.353,400.762 352.592,398.667 C353.258,397.619 353.925,393.238 354.211,388.857 C354.687,382.476 355.163,380.762 356.687,379.905 C358.782,378.762 359.068,376.952 357.068,376.952 C355.83,376.952 354.782,373.714 354.211,368.762 C354.115,367.81 353.83,367.048 353.544,367.143 C353.258,367.143 352.211,367.429 351.163,367.714 z" fill="#000000"/>
      <path d="M183.544,370 C183.544,370.571 184.02,370.952 184.592,370.952 C185.163,370.952 185.354,370.571 184.973,370 C184.687,369.429 184.211,368.952 183.925,368.952 C183.735,368.952 183.544,369.429 183.544,370 z" fill="#000000"/>
      <path d="M49.163,375.619 C47.925,376.952 48.497,378 50.497,378 C51.639,378 52.497,377.333 52.497,376.476 C52.497,374.952 50.401,374.476 49.163,375.619 z" fill="#000000"/>
      <path d="M40.02,380.952 C37.068,385.619 36.878,387.81 39.163,388.667 C41.163,389.524 43.735,386.19 43.163,383.714 C42.782,382.381 43.068,382 44.116,382.381 C45.068,382.762 45.544,382.095 45.544,380 C45.544,375.714 43.068,376.19 40.02,380.952 z" fill="#000000"/>
      <path d="M178.496,379.905 C178.496,381.048 178.973,382 179.544,382 C180.02,382 180.496,381.333 180.496,380.571 C180.496,379.81 180.02,378.857 179.544,378.476 C178.973,378.19 178.496,378.762 178.496,379.905 z" fill="#000000"/>
      <path d="M184.211,382.952 C183.925,384.095 184.116,385.238 184.592,385.524 C185.068,385.905 185.544,384.952 185.544,383.524 C185.544,380.476 184.973,380.286 184.211,382.952 z" fill="#000000"/>
      <path d="M382.687,386.762 C381.449,389.143 382.306,390.952 384.591,390.952 C386.02,390.952 386.496,390.286 386.496,388 C386.496,384.667 384.115,383.905 382.687,386.762 z" fill="#000000"/>
      <path d="M318.496,390.476 C318.496,393.524 318.782,394 320.973,394 C322.973,394 323.544,393.524 323.544,391.714 C323.544,389.143 321.83,386.952 319.83,386.952 C318.973,386.952 318.496,388.286 318.496,390.476 z" fill="#000000"/>
      <path d="M75.544,394 C74.782,395.333 74.782,396 75.449,396 C76.02,396 76.497,396.571 76.497,397.238 C76.401,397.905 75.544,397.524 74.592,396.286 C73.544,395.048 71.925,394 71.068,394 C70.116,394 69.449,394.857 69.449,396.286 C69.449,398.381 69.354,398.381 68.116,396.667 C67.163,395.429 65.83,395.048 63.83,395.333 C62.306,395.619 60.687,395.905 60.211,395.905 C59.83,396 59.544,396.857 59.544,398 C59.544,399.905 60.211,400 72.02,400 L84.497,400 L84.497,396 C84.497,392 84.497,392 80.497,392 C77.544,392 76.306,392.476 75.544,394 z" fill="#000000"/>
    </g>
  </g>
</svg>
